<?xml version="1.0" encoding="utf-8"?>
<!-- Generator: Adobe Illustrator 16.0.0, SVG Export Plug-In . SVG Version: 6.00 Build 0)  -->
<!DOCTYPE svg PUBLIC "-//W3C//DTD SVG 1.1//EN" "http://www.w3.org/Graphics/SVG/1.1/DTD/svg11.dtd">
<svg version="1.1" id="Layer_1" xmlns="http://www.w3.org/2000/svg" xmlns:xlink="http://www.w3.org/1999/xlink" x="0px" y="0px"
	 width="600px" height="600px" viewBox="0 0 600 600" enable-background="new 0 0 600 600" xml:space="preserve">
<g>
	<polygon fill="#F7DA03" points="550.561,443.728 299.864,588.469 49.035,443.728 49.035,154.11 299.864,9.234 550.561,154.11 	"/>
	<path d="M403.792,106.404L301.215,47.21l0,0c-0.134-0.135-0.27-0.135-0.404-0.135l0,0l0,0h-0.136h-0.135c-0.134,0-0.271,0-0.406,0
		c0,0,0,0-0.136,0h-0.134c-0.136,0-0.404,0-0.539,0l0,0l0,0l0,0c-0.136,0-0.271,0.135-0.405,0.135l0,0l-100.955,58.248
		c-1.216,0.676-1.622,2.163-0.946,3.379c0.677,1.215,2.298,1.621,3.379,0.946l89.736-51.762l-38.11,48.652
		c-0.811,1.082-0.678,2.703,0.404,3.514c1.081,0.811,2.703,0.675,3.516-0.405l41.622-53.113v51.896c0,1.352,1.082,2.568,2.568,2.568
		c1.488,0,2.566-1.082,2.566-2.568V56.67l41.627,53.113c0.541,0.675,1.217,0.945,2.029,0.945c0.539,0,1.078-0.135,1.485-0.54
		c1.079-0.812,1.217-2.432,0.405-3.514l-38.11-48.652l91.357,52.707c0.407,0.271,0.811,0.271,1.216,0.271
		c0.811,0,1.756-0.406,2.164-1.216C405.413,108.702,405.006,107.08,403.792,106.404z"/>
	<path d="M403.115,488.732c-0.676-1.218-2.297-1.623-3.377-0.946l-89.602,51.759l38.11-48.651c0.812-1.082,0.674-2.702-0.405-3.513
		c-1.08-0.812-2.703-0.677-3.515,0.405L302.7,540.897v-51.896c0-1.352-1.078-2.568-2.566-2.568c-1.486,0-2.568,1.081-2.568,2.568
		v51.896l-41.622-53.111c-0.812-1.082-2.435-1.218-3.516-0.405c-1.082,0.811-1.215,2.431-0.404,3.513l38.11,48.651l-91.357-52.706
		c-1.216-0.674-2.703-0.271-3.379,0.947c-0.676,1.216-0.271,2.702,0.945,3.379l102.577,59.192c0,0,0,0,0.135,0
		s0.135,0.135,0.271,0.135c0,0,0,0,0.135,0c0,0,0,0,0.134,0h0.135c0.136,0,0.405,0.136,0.543,0.136l0,0l0,0l0,0l0,0
		c0.269,0,0.403,0,0.539-0.136h0.135h0.136c0.134,0,0.134-0.135,0.271-0.135c0,0,0,0,0.134,0l100.954-58.247
		C403.387,491.569,403.792,489.949,403.115,488.732z"/>
	<path d="M409.87,480.895c1.72,0,3.112,1.39,3.112,3.107c0,1.716-1.393,3.107-3.112,3.107c-1.713,0-3.105-1.392-3.105-3.107
		C406.765,482.284,408.157,480.895,409.87,480.895z"/>
	<circle cx="188.91" cy="484.002" r="3.107"/>
	<path d="M555.425,147.218L304.595,2.477c-2.838-1.622-6.352-1.622-9.189,0L44.575,147.218c-2.84,1.621-4.596,4.731-4.596,7.974
		V444.81c0,3.241,1.756,6.352,4.596,7.974l250.83,144.74c1.485,0.812,2.972,1.217,4.593,1.217c1.624,0,3.245-0.404,4.597-1.217
		l250.83-144.74c2.837-1.622,4.596-4.732,4.596-7.974V155.191C560.021,151.949,558.262,148.839,555.425,147.218z M541.775,439.538
		l-241.777,139.47L58.495,439.538l-0.407-279.075l241.91-139.47l241.644,139.47L541.775,439.538z"/>
	<path d="M209.586,153.321c1.081,0,1.894-0.809,1.894-1.891v-9.595l7.84,10.27c0.539,0.677,1.079,1.216,2.025,1.216h0.136
		c1.081,0,2.027-0.809,2.027-2.025v-14.191c0-1.082-0.812-1.892-1.894-1.892c-1.079,0-1.891,0.81-1.891,1.892v9.19l-7.569-10
		c-0.54-0.676-1.082-1.216-2.025-1.216h-0.405c-1.082,0-2.028,0.81-2.028,2.026v14.191
		C207.695,152.512,208.507,153.321,209.586,153.321z"/>
	<path d="M236.48,153.457c5.541,0,9.596-4.19,9.596-9.188l0,0c0-5.136-3.918-9.19-9.461-9.19c-5.541,0-9.595,4.189-9.595,9.19l0,0
		C227.021,149.402,230.939,153.457,236.48,153.457z M231.21,144.268c0-3.11,2.163-5.543,5.405-5.543
		c3.109,0,5.406,2.568,5.406,5.677l0,0c0,3.108-2.161,5.542-5.406,5.542C233.373,149.809,231.21,147.375,231.21,144.268
		L231.21,144.268z"/>
	<path d="M251.48,153.186h5.002c5.675,0,9.46-3.92,9.46-8.918l0,0c0-5.001-3.918-8.921-9.46-8.921h-5.002
		c-1.079,0-2.025,0.812-2.025,2.026v13.787C249.591,152.375,250.401,153.186,251.48,153.186z M253.509,138.862h2.974
		c3.245,0,5.406,2.161,5.406,5.406l0,0c0,3.107-2.161,5.403-5.406,5.403h-2.974V138.862z"/>
	<path d="M271.483,153.186h10.002c0.945,0,1.756-0.811,1.756-1.756c0-0.947-0.811-1.759-1.756-1.759h-8.108v-3.782h6.757
		c0.944,0,1.756-0.812,1.756-1.759c0-0.944-0.812-1.756-1.756-1.756h-6.757v-3.649h7.974c0.944,0,1.756-0.81,1.756-1.756
		s-0.812-1.756-1.756-1.756h-9.867c-1.079,0-2.026,0.81-2.026,2.026v13.921C269.593,152.375,270.401,153.186,271.483,153.186z"/>
	<path d="M286.35,151.295c2.028,1.486,4.324,2.161,6.757,2.161c3.92,0,6.622-2.026,6.622-5.541l0,0c0-3.108-2.025-4.459-5.676-5.406
		c-3.107-0.81-3.919-1.216-3.919-2.295l0,0c0-0.812,0.812-1.624,2.299-1.624c1.215,0,2.43,0.406,3.784,1.216
		c0.271,0.135,0.674,0.27,0.944,0.27c1.082,0,1.894-0.81,1.894-1.756c0-0.81-0.407-1.352-0.812-1.621
		c-1.622-1.082-3.514-1.622-5.676-1.622c-3.65,0-6.218,2.161-6.218,5.406l0,0c0,3.513,2.298,4.594,5.948,5.406
		c2.972,0.81,3.646,1.216,3.646,2.295l0,0c0,1.082-0.944,1.624-2.566,1.624c-1.757,0-3.244-0.677-4.596-1.624
		c-0.27-0.134-0.674-0.404-1.082-0.404c-1.079,0-1.891,0.812-1.891,1.756C285.54,150.483,285.945,151.025,286.35,151.295z"/>
	<path d="M311.352,153.457c2.839,0,4.729-0.81,6.353-2.297c0.406-0.271,0.675-0.811,0.675-1.351c0-0.946-0.812-1.758-1.893-1.758
		c-0.405,0-0.81,0.134-1.215,0.407c-1.081,0.945-2.163,1.352-3.92,1.352c-3.109,0-5.135-2.568-5.135-5.678l0,0
		c0-3.107,2.159-5.54,5.135-5.54c1.352,0,2.568,0.406,3.649,1.216c0.271,0.135,0.676,0.408,1.217,0.408
		c1.081,0,1.893-0.812,1.893-1.894c0-0.675-0.406-1.216-0.812-1.621c-1.488-1.082-3.242-1.757-5.947-1.757
		c-5.539,0-9.325,4.19-9.325,9.188l0,0C302.298,149.402,306.217,153.457,311.352,153.457z"/>
	<path d="M323.921,153.321c1.081,0,2.028-0.809,2.028-2.025v-5.406h7.296v5.406c0,1.082,0.812,2.025,2.025,2.025
		c1.083,0,2.029-0.809,2.029-2.025v-14.191c0-1.082-0.812-2.026-2.029-2.026c-1.078,0-2.025,0.81-2.025,2.026v5.271h-7.296v-5.271
		c0-1.082-0.813-2.026-2.028-2.026c-1.082,0-2.029,0.81-2.029,2.026v14.191C321.892,152.512,322.704,153.321,323.921,153.321z"/>
	<path d="M350.003,153.457c5.542,0,9.461-4.19,9.461-9.188l0,0c0-5.136-3.919-9.19-9.461-9.19c-5.541,0-9.596,4.189-9.596,9.19l0,0
		C340.544,149.402,344.462,153.457,350.003,153.457z M344.599,144.268c0-3.11,2.163-5.543,5.404-5.543
		c3.109,0,5.405,2.568,5.405,5.677l0,0c0,3.108-2.161,5.542-5.405,5.542C346.896,149.809,344.599,147.375,344.599,144.268
		L344.599,144.268z"/>
	<path d="M371.761,153.457c5.542,0,9.596-4.19,9.596-9.188l0,0c0-5.136-3.92-9.19-9.46-9.19c-5.541,0-9.596,4.189-9.596,9.19l0,0
		C362.301,149.402,366.221,153.457,371.761,153.457z M366.355,144.268c0-3.11,2.163-5.543,5.405-5.543
		c3.109,0,5.407,2.568,5.407,5.677l0,0c0,3.108-2.161,5.542-5.407,5.542C368.653,149.809,366.355,147.375,366.355,144.268
		L366.355,144.268z"/>
	<path d="M386.762,153.186h9.19c0.946,0,1.758-0.811,1.758-1.756c0-0.947-0.812-1.759-1.758-1.759h-7.296v-12.433
		c0-1.08-0.812-2.026-2.029-2.026c-1.082,0-2.026,0.81-2.026,2.026v13.921C384.736,152.375,385.683,153.186,386.762,153.186z"/>
	<path d="M234.386,473.923c-0.404-0.81-0.135-1.757,0.677-2.296l4.594-2.703c1.487-0.812,2.976-1.082,4.055-0.812
		c0.946,0.271,1.624,0.812,2.163,1.757l0,0c0.81,1.487,0.54,2.702-0.135,3.784c1.892-0.271,3.242,0,4.324,1.757l0,0
		c1.352,2.433,0.136,4.731-2.837,6.487l-4.732,2.703c-0.81,0.407-1.756,0.134-2.295-0.676L234.386,473.923z M242.09,474.599
		c1.217-0.676,1.891-1.621,1.217-2.567l0,0c-0.54-0.812-1.486-0.946-2.703-0.271l-2.838,1.621l1.621,2.839L242.09,474.599z
		 M246.01,479.462c1.217-0.674,1.756-1.62,1.217-2.564l0,0c-0.543-0.946-1.487-1.082-2.974-0.138l-3.38,1.895l1.621,2.837
		L246.01,479.462z"/>
	<path d="M292.1,466.499L292.1,466.499c0-4.326,3.379-7.839,7.975-7.839c2.296,0,3.783,0.539,5.134,1.485
		c0.271,0.271,0.676,0.678,0.676,1.353c0,0.944-0.676,1.621-1.622,1.621c-0.541,0-0.81-0.135-1.08-0.405
		c-0.946-0.677-1.891-1.081-3.243-1.081c-2.432,0-4.326,2.162-4.326,4.729l0,0c0,2.703,1.895,4.866,4.597,4.866
		c1.216,0,2.297-0.27,3.106-0.945v-2.161h-2.297c-0.81,0-1.486-0.677-1.486-1.49c0-0.809,0.677-1.485,1.486-1.485h3.783
		c0.948,0,1.621,0.677,1.621,1.622v3.65c0,0.945-0.404,1.619-1.213,2.161c-1.217,0.812-2.975,1.486-5.271,1.486
		C295.343,474.2,292.1,470.958,292.1,466.499z"/>
	<path d="M355.28,466.96c0.405-0.812,1.485-1.081,2.295-0.677l3.65,2.163c4.055,2.431,5.271,6.892,3.245,10.539l0,0
		c-2.163,3.65-6.622,4.866-10.812,2.568l-3.65-2.161c-0.812-0.407-1.082-1.486-0.676-2.298L355.28,466.96z M355.146,478.985
		c2.296,1.352,4.864,0.677,6.215-1.621l0,0c1.352-2.297,0.676-4.864-1.621-6.215l-2.164-1.353l-4.593,7.838L355.146,478.985z"/>
	<g>
		<g>
			<g>
				<g>
					<path d="M396.011,314.26l59.409,32.834h0.781v-0.462l-0.403-0.225l-59.413-32.833l-0.175-0.096l0,0h-0.199H201.07h-0.208
						l-0.182,0.104l-56.788,32.833l-0.39,0.225v0.453h0.779l56.788-32.834H396.011"/>
				</g>
			</g>
		</g>
		<g>
			<g>
				<path d="M455.418,383.941c-2.256-0.462-4.824-0.847-7.562-0.847c-5.253,0-11.136,1.416-16.655,6.41
					c-4.727,4.277-10.328,6.165-16.707,6.165c-3.261,0-6.729-0.493-10.389-1.415c-5.325-1.342-10.764-1.819-16.264-1.819
					c-13.319,0-27.037,2.782-40.626,2.782c-3.396,0-6.784-0.173-10.154-0.605c-13.417-1.73-26.799-11.355-40.022-11.355
					c-0.04,0-0.08,0-0.121,0c-8.026,0.037-14.546,7.119-25.223,7.119c-0.685,0-1.383-0.032-2.102-0.09
					c-16.188-1.387-31.611-4.251-47.515-4.251c-3.514,0-7.049,0.136-10.623,0.464c-5.431,0.495-17.912,9.392-28.042,9.392
					c-2.129,0-4.15-0.391-5.984-1.337c-13.644-7.037-21.411-10.525-31.087-10.525c-0.674,0-2.135,0.075-2.828,0.108v0.76
					l0.817-0.037c0.678-0.033,1.355-0.05,2.011-0.05c9.453,0,16.97,3.342,30.729,10.438c1.833,0.942,3.967,1.425,6.342,1.425
					c6.288,0,13.435-3.326,19.179-5.997c3.712-1.726,6.917-3.217,8.934-3.398c3.414-0.312,6.864-0.466,10.553-0.466
					c10.294,0,20.188,1.183,30.663,2.438c5.461,0.651,11.109,1.328,16.784,1.814c0.723,0.062,1.453,0.09,2.169,0.09
					c5.899,0,10.628-2.124,14.799-4.002c3.536-1.593,6.876-3.097,10.429-3.113h0.101c7.105,0,14.457,2.91,21.568,5.722
					c5.998,2.375,12.197,4.828,18.368,5.625c3.211,0.415,6.564,0.615,10.256,0.615c6.868,0,13.847-0.714,20.593-1.408
					c6.611-0.677,13.445-1.375,20.033-1.375c6.027,0,11.285,0.587,16.073,1.795c3.793,0.959,7.351,1.44,10.579,1.44
					c6.859,0,12.493-2.084,17.229-6.369c4.616-4.176,9.894-6.207,16.134-6.207c2.286,0,4.641,0.262,7.403,0.829l0.938,0.192
					l0.008-0.777L455.418,383.941z M378.473,356.609c0.903,0,1.822,0.032,2.763,0.104c12.232,0.922,25.446,12.452,36.739,12.452
					c2.711,0,5.312-0.664,7.764-2.301c9.391-6.27,17.738-9.865,26.302-9.865c1.122,0,2.252,0.062,3.384,0.188l0.781,0.162v-0.86
					l-0.695-0.074c-1.148-0.129-2.316-0.195-3.47-0.195c-8.135,0-16.377,3.085-26.734,9.998c-2.187,1.458-4.585,2.167-7.331,2.167
					c-5.596,0-11.671-2.919-18.103-6.004c-6.122-2.943-12.453-5.983-18.58-6.443c-0.937-0.07-1.885-0.107-2.819-0.107l0,0
					c-10.365,0-18.362,4.338-24.786,7.822c-3.919,2.126-7.307,3.966-10.184,4.217c-1.009,0.088-2.007,0.134-2.959,0.134
					c-6.42,0-10.714-1.998-15.26-4.11c-4.73-2.2-9.615-4.475-17.2-4.684c-0.757-0.021-1.517-0.033-2.261-0.033
					c-10.443,0-20.033,2.063-30.179,6.494c-4.949,2.163-10.603,3.256-16.801,3.256c-3.81,0-7.757-0.424-11.73-1.264
					c-6.67-1.406-13.497-2.087-20.874-2.087c-9.865,0-19.599,1.19-31.18,2.98c-2.038,0.315-4.191,0.473-6.398,0.473
					c-7.668,0-15.597-1.893-21.755-5.194c-7.297-3.91-14.076-5.892-20.148-5.892c-0.854,0-1.708,0.037-2.537,0.116l-0.707,0.067
					v0.71l0,0c0.79-0.075,2.389-0.112,3.244-0.112c5.254,0,11.758,1.498,19.78,5.8c6.225,3.335,14.322,5.286,22.123,5.286
					c2.214,0,4.402-0.158,6.518-0.486c10.642-1.644,20.825-2.974,31.061-2.974c6.831,0,13.684,0.595,20.714,2.077
					c4.049,0.855,8.044,1.278,11.891,1.278c6.216,0,12.051-1.113,17.114-3.321c9.875-4.313,19.291-6.428,29.865-6.428
					c0.74,0,1.488,0.008,2.24,0.034c14.7,0.402,19.167,8.794,32.48,8.794c0.959,0,1.967-0.046,3.025-0.138
					C351.433,367.951,361.896,356.609,378.473,356.609 M384.061,439.398c-1.906-0.519-3.883-0.938-5.946-1.204
					c-0.703-0.086-1.406-0.129-2.11-0.129c-5.265,0-10.731,2.334-16.164,4.88c-7.929,3.712-16.911,7.536-25.833,7.598
					c-0.033,0-0.066,0-0.1,0c-7.149,0-11.653-6.023-17.666-9.204c-5.353-2.837-10.395-4.14-15.285-4.198
					c-0.072-0.004-0.142-0.004-0.214-0.004c-0.942,0-1.882,0.036-2.813,0.12c-5.247,0.461-10.286,2.263-15.218,5.094
					c-5.781,3.313-10.061,8.093-17.061,8.747c-0.779,0.076-1.565,0.113-2.346,0.113c-2.876,0-5.699-0.494-7.977-1.437
					c-7.619-3.158-19.849-12.372-31.124-12.372c-1.134,0-2.259,0.092-3.37,0.295c-2.208,0.402-4.042,1.622-4.838,2.349l0.574,0.346
					l0.422-0.387c0.743-0.676,2.084-1.195,3.982-1.541c1.031-0.186,2.116-0.282,3.229-0.282c7.818,0,16.31,4.655,23.131,8.392
					c2.807,1.54,5.456,2.994,7.695,3.919c2.331,0.963,5.271,1.496,8.274,1.496c0.808,0,1.622-0.038,2.419-0.113
					c5.145-0.485,8.941-3.146,12.61-5.722c1.521-1.067,3.094-2.171,4.765-3.13c5.101-2.923,9.973-4.56,14.899-4.991
					c0.887-0.078,1.81-0.115,2.744-0.115h0.208c4.932,0.058,9.813,1.402,14.929,4.109c1.941,1.026,3.768,2.396,5.532,3.717
					c3.668,2.744,7.461,5.58,12.496,5.58h0.109c9.149-0.065,18.3-3.994,26.156-7.673c5.184-2.429,10.678-4.809,15.831-4.809
					c0.681,0,1.359,0.047,2.009,0.13c1.926,0.245,3.838,0.631,5.842,1.179l0.315,0.088l0.473-0.647L384.061,439.398z
					 M220.953,412.474c0.55,0,1.095,0.021,1.636,0.067l189.124,10.897l1.421,0.079l1.229-0.711l-2.601-0.148l-189.128-10.895
					c-0.53-0.046-1.104-0.071-1.68-0.071l0,0L220.953,412.474l0.001-0.781h-0.001c-6.393,0-13.112,2.819-20.229,5.801
					c-4.251,1.781-8.646,3.625-12.897,4.771l-1.813,0.491l1.001,0.575l1.016-0.314C199.193,420.011,210.81,412.474,220.953,412.474"
					/>
			</g>
		</g>
		<g>
			<polygon fill-rule="evenodd" clip-rule="evenodd" fill="#F7DA03" points="395.269,313.901 385.267,273.792 391.32,266.602 
				391.32,230.286 381.644,220.042 372.364,230.483 372.364,245.015 359.72,245.015 359.72,258.216 337.084,258.216 
				337.084,245.403 330.16,245.397 330.16,203.451 338.299,195.614 338.299,170.319 322.656,170.319 322.656,181.171 
				308.456,181.171 308.456,170.319 289.059,170.319 289.059,181.171 274.858,181.171 274.858,170.319 259.22,170.319 
				259.22,195.614 267.356,203.451 267.356,245.397 260.435,245.403 260.435,258.216 237.797,258.216 237.797,245.015 
				225.152,245.015 225.152,230.483 215.87,220.042 206.197,230.286 206.197,266.602 212.252,273.792 202.246,313.901 
				395.269,313.901 			"/>
			<path d="M395.767,314.293h-194.02l10.078-40.401l-6.019-7.147V230.13l10.073-10.665l9.664,10.872v14.288h12.643v13.203h21.858
				v-12.815l6.923-0.005v-41.391l-8.137-7.835v-25.852h16.417v10.852h13.422v-10.852h20.176v10.852h13.424v-10.852h16.417v25.852
				l-8.138,7.835v41.391l6.924,0.005v12.815h21.856v-13.203h12.646v-14.288l9.662-10.872l10.072,10.665v36.614l-6.017,7.147
				L395.767,314.293z M202.745,313.512H394.77l-9.93-39.82l6.091-7.232v-36.019l-9.278-9.822l-8.896,10.014v14.771H360.11v13.202
				h-23.416v-12.815l-6.925-0.004v-42.503l8.14-7.837v-24.739h-14.86v10.852h-14.983v-10.852h-18.617v10.852h-14.979v-10.852h-14.86
				v24.739l8.138,7.837v42.503l-6.923,0.004v12.815h-23.417v-13.202h-12.643v-14.771l-8.901-10.014l-9.275,9.822v36.019l6.091,7.232
				l-0.048,0.194L202.745,313.512z"/>
		</g>
		<g>
			<path fill="#FFE703" d="M276.079,273.73v10.385h3.109v-6.947C278.207,275.858,277.388,274.712,276.079,273.73L276.079,273.73z
				 M272.312,271.407v12.708h3.112v-10.906C274.405,272.372,273.491,271.801,272.312,271.407L272.312,271.407z M268.055,284.115
				h3.603l0.03-12.975c-1.146-0.488-2.488-0.809-3.633-0.818V284.115L268.055,284.115z M318.488,308.355v5.244h2.788v-5.244H318.488
				L318.488,308.355z M321.933,313.6h3.109v-5.244h-3.109V313.6L321.933,313.6z M325.697,313.6h3.768v-5.244h-3.768V313.6
				L325.697,313.6z M321.276,288.538h-2.788v15.329h2.788V288.538L321.276,288.538z M325.042,288.538h-3.109v15.329h3.109V288.538
				L325.042,288.538z M329.465,303.866v-15.329h-3.768v15.329H329.465L329.465,303.866z M321.442,273.637
				c-1.312,0.982-1.971,2.13-2.954,3.438v7.041h2.954V273.637L321.442,273.637z M325.042,271.346
				c-0.979,0.489-2.126,1.146-2.946,1.797v10.972h2.946V271.346L325.042,271.346z M329.465,284.115v-13.793
				c-1.311,0.164-2.623,0.361-3.768,0.852v12.941H329.465L329.465,284.115z M329.465,307.703v-3.279h-1.147v3.279H329.465
				L329.465,307.703z M329.465,287.885v-3.109h-1.147v3.109H329.465L329.465,287.885z M336.671,313.6v-12.938h-3.112V313.6H336.671
				L336.671,313.6z M332.903,313.6v-43.401h-2.811c0,14.577,0,28.989,0,43.401H332.903L332.903,313.6z M333.493,300.03h18.244
				v-15.586h-18.179L333.493,300.03L333.493,300.03z M378.92,274.127l-4.516-4.747H366.8v14.412h20.802
				c-0.816-3.279-1.636-6.389-2.621-9.665H378.92L378.92,274.127z M387.602,284.444h-9.665l-0.063,15.586h13.429
				C389.991,294.791,388.914,289.688,387.602,284.444L387.602,284.444z M385.145,273.407l5.565-6.646h-17.684l6.16,6.646H385.145
				L385.145,273.407z M352.393,300.03h24.824l0.07-15.586h-24.895V300.03L352.393,300.03z M366.152,269.38h-28.825v14.412h28.825
				V269.38L366.152,269.38z M366.152,313.6v-12.938h-28.825V313.6H366.152L366.152,313.6z M298.349,205.839h-30.569v13.016h30.569
				V205.839L298.349,205.839z M299.005,205.184h30.788v-1.272l-30.788-0.066V205.184L299.005,205.184z M298.349,203.845h-30.569
				v1.339h30.569V203.845L298.349,203.845z M299.005,203.219h30.95l7.696-7.369h-38.646V203.219L299.005,203.219z M298.349,195.85
				l-38.371-0.057l7.532,7.371l30.839,0.056V195.85L298.349,195.85z M308.176,170.629h-18.833v10.809H274.44v-10.809h-14.902v24.565
				c26.039,0,52.24,0,78.443,0v-24.565h-15.065v10.809h-14.74V170.629L308.176,170.629z M395.686,314.227
				c-64.618,0-129.234,0-193.85,0c3.789-13.345,6.302-27.001,10.064-40.349l-6.024-7.16v-36.562l10.002-10.591l9.801,10.796v14.33
				h12.645v13.208h21.589v-12.817l7.123-0.008c0-13.827,0-27.659,0-41.486l-8.138-7.836v-25.755h16.285v10.851h13.557v-10.851h20.04
				v10.851h13.561v-10.851h16.28v25.755l-8.134,7.836c0,13.828,0,27.659,0,41.486l6.922,0.008v12.817H359.4v-13.208h12.481v-14.33
				l9.757-10.796l10.006,10.591v36.562l-6.023,7.16C389.385,287.226,391.895,300.881,395.686,314.227L395.686,314.227z
				 M299.005,218.854h30.788v-13.016h-30.788V218.854L299.005,218.854z M267.779,238.92h30.569v-19.324h-30.569V238.92
				L267.779,238.92z M299.005,238.92h30.788v-19.324h-30.788V238.92L299.005,238.92z M373.063,230.077h17.646l-9.033-9.458
				L373.063,230.077L373.063,230.077z M372.533,266.104h18.509v-35.374h-18.509V266.104L372.533,266.104z M299.005,266.104
				c24.235,0,48.637,0,72.877,0v-20.799h-11.755v13.267h-23.456v-12.805c-6.716,0-13.59,0-20.471,0v-0.693h13.593v-5.499h-30.788
				v18.084h6.385v0.748h-6.385V266.104L299.005,266.104z M298.349,258.407h-6.385v-0.748h6.385v-18.084h-30.569v5.499h13.375v0.693
				c-6.714,0-13.592,0-20.471,0v12.805h-23.09v-13.267H225.64v20.799h72.709V258.407L298.349,258.407z M224.985,266.104v-35.374
				h-18.342v35.374H224.985L224.985,266.104z M224.521,230.077l-8.625-9.538l-9.033,9.592L224.521,230.077L224.521,230.077z
				 M212.511,273.407h5.922l6.224-6.646h-17.754L212.511,273.407L212.511,273.407z M218.598,274.127h-6.06
				c-0.818,3.276-1.638,6.386-2.456,9.665h20.635V269.38h-7.532L218.598,274.127L218.598,274.127z M225.64,266.76l-1.803,1.965h67.8
				c1.31-0.657,2.621-0.982,3.931-1.312l-0.126-0.653H225.64L225.64,266.76z M245.291,299.959v-15.515h-24.919v15.515H245.291
				L245.291,299.959z M209.918,284.444c-1.31,5.243-2.455,10.275-3.767,15.515h13.593v-15.515H209.918L209.918,284.444z
				 M205.988,300.661c-0.984,4.423-1.965,8.674-3.276,12.938h28.494v-12.938H205.988L205.988,300.661z M231.863,313.6h28.331
				v-12.938h-28.331V313.6L231.863,313.6z M263.96,299.959v-15.515h-18.04v15.515H263.96L263.96,299.959z M231.372,269.38v14.412
				h28.822V269.38H231.372L231.372,269.38z M279.681,313.6h38.157v-5.244h-6.389v-4.489h6.389v-15.329h-6.389v-4.422h1.971
				c0.815-1.635,1.309-2.619,2.128-4.09c-2.128-6.058-7.594-10.829-13.817-11.976l-0.655,3.461l-0.597-0.165l0.82-4.586h-5.241
				l0.82,4.75l-0.553,0.04l-0.655-3.482c-1.312,0.167-2.561,0.657-3.871,1.15c-4.748,2.292-7.696,5.729-9.824,10.97
				c0.818,1.473,1.31,2.291,1.964,3.926c0.329,0,1.966,0,1.966,0v4.422h-6.224v15.329h6.224v4.489h-6.224V313.6L279.681,313.6z
				 M260.847,269.38v14.412h3.113v-14.25l3.55,0.086c6.237,0.148,10.557,4.008,13.973,9.904c1.473-3.932,4.749-8.022,8.843-10.152
				H260.847L260.847,269.38z M264.586,313.6h2.812c0-14.412,0-28.795,0-43.368l-2.812-0.067V313.6L264.586,313.6z M260.847,313.6
				h3.113v-12.938h-3.113V313.6L260.847,313.6z M391.532,300.661H366.8V313.6h28.01
				C393.662,309.335,392.518,305.084,391.532,300.661L391.532,300.661z M279.026,308.355h-2.947v5.244h2.947V308.355
				L279.026,308.355z M275.424,313.6v-5.244h-2.947v5.244H275.424L275.424,313.6z M271.821,313.6v-5.244h-3.767v5.244H271.821
				L271.821,313.6z M268.055,307.703h1.145v-3.279h-1.145V307.703L268.055,307.703z M268.055,303.866h3.767v-15.329h-3.767V303.866
				L268.055,303.866z M268.055,287.885h1.145v-3.109h-1.145V287.885L268.055,287.885z M279.846,277.896v6.22h3.438
				C282.302,281.99,281.154,279.861,279.846,277.896L279.846,277.896z M272.477,288.538v15.329h2.947v-15.329H272.477
				L272.477,288.538z M276.079,288.538v15.329h2.947v-15.329H276.079L276.079,288.538z M285.25,284.776c-5.077,0-10.25,0-15.489,0
				v3.109c5.239,0,10.412,0,15.489,0V284.776L285.25,284.776z M285.25,304.424c-5.077,0-10.25,0-15.489,0v3.279
				c5.239,0,10.412,0,15.489,0V304.424L285.25,304.424z M312.109,284.776v3.109c5.235,0,10.313,0,15.556,0v-3.109
				C322.423,284.776,317.345,284.776,312.109,284.776L312.109,284.776z M312.109,304.424v3.279c5.235,0,10.313,0,15.556,0v-3.279
				H312.109L312.109,304.424z M336.671,269.38h-29.642c4.255,2.13,7.535,5.895,9.003,9.987c3.902-6.429,7.634-9.25,14.077-9.794
				l3.449-0.031v14.25h3.112V269.38L336.671,269.38z M317.838,277.896c-1.476,1.965-2.621,4.094-3.603,6.22h3.603V277.896
				L317.838,277.896z M372.043,266.76h-70.09l-0.102,0.653c1.474,0.33,2.723,0.655,3.869,1.312h68.193L372.043,266.76
				L372.043,266.76z"/>
			<path d="M396.201,314.616H201.32l0.139-0.494c1.912-6.729,3.527-13.66,5.087-20.361c1.517-6.51,3.083-13.238,4.924-19.79
				l-5.982-7.111v-36.859l10.397-11.01l10.183,11.222v14.091h12.645v13.205h20.812v-12.815l7.121-0.008v-40.933l-8.136-7.835
				v-26.311h17.062v10.851h12.777v-10.851h20.822v10.851h12.779v-10.851h17.06v26.311l-8.132,7.835v40.933l6.92,0.008v12.815h21.213
				v-13.205h12.479v-14.091l10.144-11.222l10.402,11.01v36.859l-5.984,7.111c1.838,6.545,3.401,13.267,4.917,19.769
				c1.563,6.706,3.18,13.643,5.094,20.382L396.201,314.616z M367.19,313.209h27.108c-1.059-3.941-2.147-8.005-3.08-12.162H367.19
				V313.209z M337.715,313.209h28.047v-12.162h-28.047V313.209z M333.948,313.209h2.333v-12.162h-2.333V313.209z M330.483,313.209
				h2.028v-42.62h-2.028V313.209z M326.086,313.209h2.988v-4.464h-2.988V313.209z M322.324,313.209h2.329v-4.464h-2.329V313.209z
				 M318.876,313.209h2.012v-4.464h-2.012V313.209z M280.07,313.209h37.376v-4.464h-6.387v-5.268h6.387v-14.55h-6.387v-5.202h2.119
				c0.734-1.466,1.205-2.407,1.94-3.734c-2.095-5.792-7.188-10.253-13.077-11.484l-0.665,3.489l-1.345-0.369l0.801-4.477h-4.313
				l0.813,4.716l-1.326,0.096l-0.649-3.453c-1.065,0.184-2.104,0.576-3.199,0.988l-0.222,0.083
				c-4.443,2.147-7.399,5.419-9.53,10.582l0.18,0.319c0.615,1.104,1.071,1.921,1.614,3.242h2.094v5.202h-6.224v14.55h6.224v5.268
				h-6.224V313.209z M276.468,313.209h2.169v-4.464h-2.169V313.209z M272.864,313.209h2.171v-4.464h-2.171V313.209z
				 M268.442,313.209h2.989v-4.464h-2.989V313.209z M264.974,313.209h2.034v-42.597l-2.034-0.049V313.209z M261.237,313.209h2.334
				v-12.162h-2.334V313.209z M232.254,313.209h27.551v-12.162h-27.551V313.209z M203.239,313.209h27.578v-12.162h-24.517
				C205.391,305.133,204.464,309.145,203.239,313.209z M328.707,307.313h0.367v-2.5h-0.367V307.313z M312.5,307.313h14.776v-2.5
				H312.5V307.313z M270.15,307.313h14.708v-2.5H270.15V307.313z M268.442,307.313h0.367v-2.5h-0.367V307.313z M326.086,303.478
				h2.988v-14.55h-2.988V303.478z M322.324,303.478h2.329v-14.55h-2.329V303.478z M318.876,303.478h2.012v-14.55h-2.012V303.478z
				 M276.468,303.478h2.169v-14.55h-2.169V303.478z M272.864,303.478h2.171v-14.55h-2.171V303.478z M268.442,303.478h2.989v-14.55
				h-2.989V303.478z M378.267,299.64h12.535c-0.604-2.45-1.172-4.9-1.722-7.274c-0.566-2.458-1.155-4.999-1.783-7.532h-8.968
				L378.267,299.64z M352.783,299.64h24.044l0.068-14.806h-24.112V299.64z M333.884,299.64h17.465v-14.806h-17.4L333.884,299.64z
				 M246.311,299.574h17.261v-14.74h-17.261V299.574z M220.763,299.574H244.9v-14.74h-24.138V299.574z M206.651,299.574h12.701
				v-14.74h-9.13c-0.627,2.516-1.216,4.987-1.808,7.458C207.838,294.703,207.262,297.116,206.651,299.574z M328.707,287.496h0.367
				v-2.33h-0.367V287.496z M312.5,287.496h14.776v-2.33H312.5V287.496z M270.15,287.496h14.708v-2.33H270.15V287.496z
				 M268.442,287.496h0.367v-2.33h-0.367V287.496z M326.086,283.726h2.988v-12.96c-1.021,0.137-2.063,0.316-2.988,0.671V283.726z
				 M322.486,283.726h2.167v-11.74c-0.646,0.345-1.482,0.828-2.167,1.35V283.726z M318.876,283.726h2.174v-9.252
				c-0.641,0.604-1.121,1.273-1.658,2.023c-0.165,0.23-0.335,0.467-0.516,0.709V283.726z M314.851,283.726h2.596v-4.616
				C316.541,280.446,315.698,281.944,314.851,283.726z M280.236,283.726h2.435c-0.765-1.607-1.581-3.117-2.435-4.502V283.726z
				 M276.468,283.726h2.332v-6.426l-0.101-0.135c-0.729-0.976-1.376-1.842-2.231-2.608V283.726z M272.702,283.726h2.333v-10.33
				c-0.833-0.668-1.545-1.109-2.333-1.43V283.726z M268.442,283.726h2.826l0.029-12.325c-0.95-0.376-1.959-0.614-2.855-0.673
				V283.726z M367.19,283.402h19.911c-0.861-3.443-1.617-6.215-2.411-8.884h-5.936l-4.518-4.747h-7.047V283.402z M337.715,283.402
				h28.047v-13.631h-28.047V283.402z M333.948,283.402h2.333v-13.631h-2.333V283.402z M261.237,283.402h2.334v-13.631h-2.334
				V283.402z M231.76,283.402h28.045v-13.631H231.76V283.402z M210.582,283.402h19.746v-13.631h-6.979l-4.586,4.747h-5.92
				c-0.38,1.509-0.758,2.989-1.137,4.465C211.331,280.444,210.956,281.907,210.582,283.402z M271.154,269.771
				c3.973,1.119,7.3,4.016,10.26,8.884c1.529-3.58,4.277-6.842,7.463-8.884H271.154z M308.536,269.771
				c3.374,2.056,6.114,5.205,7.578,8.727c3.138-4.976,6.214-7.6,10.457-8.727H308.536z M379.356,273.016h5.607l4.913-5.865h-15.958
				L379.356,273.016z M212.691,273.016h5.572l5.494-5.865h-16.017L212.691,273.016z M305.821,268.335h67.184l-1.129-1.184h-69.427
				C303.628,267.426,304.771,267.75,305.821,268.335z M224.725,268.335h66.819c1.165-0.57,2.335-0.895,3.473-1.184h-69.206
				L224.725,268.335z M372.923,265.714h17.728v-34.594h-17.728V265.714z M299.395,265.714h72.095v-20.019h-10.974v13.267h-24.234
				v-12.805H315.81v-1.472h13.593v-4.724h-30.008v17.307h6.386v1.528h-6.386V265.714z M226.029,265.714h71.932v-6.917h-6.386v-1.528
				h6.386v-17.307h-29.792v4.724h13.376v1.472h-20.473v12.805h-23.867v-13.267h-11.176V265.714z M207.032,265.714h17.562v-34.594
				h-17.562V265.714z M299.395,238.529h30.008v-18.544h-30.008V238.529z M268.169,238.529h29.792v-18.544h-29.792V238.529z
				 M215.89,221.113l-8.122,8.626l15.878-0.048L215.89,221.113z M373.946,229.687h15.853l-8.113-8.496L373.946,229.687z
				 M299.395,218.464h30.008v-12.235h-30.008V218.464z M268.169,218.464h29.792v-12.235h-29.792V218.464z M299.395,204.794h30.008
				v-0.493l-30.008-0.066V204.794z M268.169,204.794h29.792v-0.56h-29.792V204.794z M299.395,202.831h30.402l6.889-6.592h-37.291
				V202.831z M267.669,202.774l30.292,0.055v-6.591l-37.025-0.054L267.669,202.774z M259.928,194.805h77.662V171.02h-14.286v10.808
				h-15.519V171.02h-18.053v10.808h-15.682V171.02h-14.123V194.805z"/>
		</g>
		<g>
			<g>
				<path fill-rule="evenodd" clip-rule="evenodd" fill="#F7DA03" d="M283.53,258.405h8.661v-19.188h-11.067v6.459h2.399
					L283.53,258.405L283.53,258.405z M314.417,258.405h-9.195l0.009-19.188h11.157l0.008,6.459h-1.979V258.405L314.417,258.405z
					 M281.124,211.161h11.067v18.019h-11.067V211.161L281.124,211.161z M305.329,211.161h11.066v18.019h-11.066V211.161
					L305.329,211.161z M212.974,235.099h5.567v16.87h-5.567V235.099L212.974,235.099z M378.979,235.099h5.565v16.87h-5.565V235.099
					L378.979,235.099z"/>
			</g>
			<g>
				<path d="M315.222,258.906h-10.755l0.01-20.243h12.711l0.013,7.601h-1.979V258.906z M306.028,257.467h7.633V245.02h1.979
					l-0.01-4.901h-9.594L306.028,257.467z M292.994,258.809h-10.218l-0.009-12.631h-2.4v-7.619h12.627V258.809z M284.334,257.347
					h7.104v-17.229h-9.511v4.901h2.4L284.334,257.347z M385.348,252.869h-7.125v-18.428h7.125V252.869z M379.783,251.31h4.009V236
					h-4.009V251.31z M219.344,252.869h-7.125v-18.428h7.125V252.869z M213.778,251.31h4.009V236h-4.009V251.31z M317.199,230.081
					h-12.625v-19.578h12.625V230.081z M306.134,228.521h9.506v-16.458h-9.506V228.521z M292.994,230.081h-12.627v-19.578h12.627
					V230.081z M281.927,228.521h9.511v-16.458h-9.511V228.521z"/>
			</g>
		</g>
		<g>
			<path fill-rule="evenodd" clip-rule="evenodd" fill="#F7DA03" d="M289.748,313.931v-27.648c0-10.366,17.085-11.698,17.958-0.448
				v28.096l5.767-0.007v-5.631h-1.98v-4.364h1.98v-15.441h-1.98v-4.326h1.944c-0.815-8.227-6.961-12.225-12.844-12.784
				c-0.523-0.05-1.052-0.075-1.566-0.073c-0.756,0.007-1.503,0.061-2.229,0.159c-5.985,0.847-10.954,5.102-12.849,12.698h1.927
				v4.326h-1.987v15.42h1.982v4.394h-1.982v5.629H289.748L289.748,313.931z"/>
			<path d="M306.926,314.711v-28.876c-0.407-5.236-4.556-7.118-7.985-7.118c-4.18,0-8.414,2.601-8.414,7.565v28.424h-7.418v-7.187
				h1.981v-2.835h-1.981v-16.979h1.987v-2.765h-2.146l0.241-0.972c1.869-7.491,6.79-12.331,13.496-13.277
				c0.771-0.105,1.556-0.163,2.33-0.169h0.002c0.572,0,1.114,0.027,1.647,0.076c5.687,0.541,12.644,4.397,13.543,13.483l0.086,0.859
				h-2.029v2.765h1.982v16.999h-1.982v2.811h1.982v7.184L306.926,314.711z M284.667,313.15h4.302v-26.868
				c0-5.925,5.138-9.125,9.972-9.125c4.416,0,9.082,2.664,9.543,8.614l0.002,27.378l4.206-0.008v-4.068h-1.979v-5.926h1.979v-13.88
				h-1.979v-5.887h1.843c-1.146-7.531-7.12-10.76-12.037-11.228c-0.481-0.046-0.976-0.07-1.469-0.07
				c-0.729,0.005-1.444,0.058-2.147,0.155c-5.752,0.811-10.058,4.851-11.932,11.143h1.686v5.883h-1.988v13.864h1.982v5.954h-1.982
				V313.15z"/>
		</g>
		<g>
			<path fill-rule="evenodd" clip-rule="evenodd" fill="#F7DA03" d="M183.021,362.306l19.638,8.316
				c0.008,1.685-0.207,3.306,2.345,4.684c3.69,1.993,12.338,6.792,18.376,11.975c2.674,25.472,20.022,45.31,55.076,58.339
				c14-11.706,29.219-12.257,43.898,0c14.168-4.514,29.571-9.587,41.566-18.677l32.517,0.029
				c-0.613-12.352-5.006-18.904-11.116-22.811c5.375-7.411,7.711-15.354,7.553-24.385h11.144v-6.717l-6.805-5.805h-26.555
				l-5.669,5.805v6.717h7.158c-47.007,38.78-87.864,25.539-127.39-1.76l-0.005-0.008c-4.806-3.903-10.278-9.312-13.357-14.542
				l-48.383-6.189L183.021,362.306L183.021,362.306z"/>
		</g>
		<g>
			<path fill-rule="evenodd" clip-rule="evenodd" fill="#F7DA03" d="M279.57,409.771c1.987,0,3.605,1.614,3.605,3.603
				c0,1.985-1.618,3.608-3.605,3.608c-1.984,0-3.604-1.623-3.604-3.608C275.966,411.386,277.586,409.771,279.57,409.771
				L279.57,409.771z"/>
		</g>
		<g>
			<path d="M279.57,409.364h0.005c1.103,0,2.109,0.451,2.831,1.175c0.724,0.73,1.173,1.723,1.179,2.823v0.012v0.004
				c-0.003,1.105-0.455,2.11-1.181,2.832h-0.001c-0.725,0.723-1.721,1.177-2.819,1.181h-0.014h-0.007
				c-1.103-0.004-2.104-0.458-2.833-1.185c-0.72-0.723-1.169-1.723-1.172-2.818v-0.014v-0.004c0.002-1.108,0.452-2.104,1.181-2.836
				c0.723-0.719,1.722-1.17,2.819-1.17H279.57L279.57,409.364z M279.575,410.173h-0.005h-0.012
				c-0.877,0.005-1.672,0.366-2.247,0.938c-0.578,0.577-0.938,1.379-0.94,2.259v0.004v0.014c0.006,0.877,0.362,1.673,0.938,2.241
				c0.578,0.581,1.376,0.946,2.255,0.946h0.007h0.014c0.873-0.004,1.669-0.365,2.247-0.938h-0.001
				c0.576-0.577,0.938-1.379,0.938-2.26v-0.004v-0.012c-0.001-0.872-0.362-1.674-0.936-2.251
				C281.257,410.534,280.457,410.178,279.575,410.173L279.575,410.173z"/>
		</g>
		<g>
			<path fill-rule="evenodd" clip-rule="evenodd" fill="#F7DA03" d="M262.118,414.163c1.985,0,3.604,1.62,3.604,3.604
				c0,1.988-1.618,3.608-3.604,3.608c-1.989,0-3.608-1.62-3.608-3.608C258.51,415.783,260.129,414.163,262.118,414.163
				L262.118,414.163z"/>
		</g>
		<g>
			<path d="M262.118,413.753h0.006c1.101,0,2.104,0.46,2.829,1.183c0.724,0.727,1.175,1.724,1.176,2.823v0.009v0.008
				c0,1.104-0.454,2.104-1.177,2.831h-0.001c-0.725,0.724-1.726,1.171-2.822,1.175h-0.011h-0.007
				c-1.103-0.004-2.106-0.451-2.832-1.182c-0.721-0.723-1.172-1.72-1.175-2.82v-0.012v-0.004c0.001-1.104,0.454-2.106,1.181-2.831
				c0.723-0.72,1.719-1.173,2.819-1.18H262.118L262.118,413.753z M262.124,414.57h-0.006h-0.014c-0.875,0-1.67,0.365-2.247,0.935
				c-0.578,0.577-0.938,1.378-0.939,2.259v0.004v0.012c0.003,0.876,0.362,1.673,0.937,2.246c0.58,0.581,1.377,0.942,2.257,0.942
				h0.007h0.011c0.874-0.004,1.67-0.361,2.247-0.938l0,0c0.576-0.578,0.937-1.379,0.938-2.255v-0.008v-0.009
				c-0.002-0.876-0.362-1.677-0.938-2.254C263.803,414.936,263.003,414.57,262.124,414.57L262.124,414.57z"/>
		</g>
		<g>
			<path fill-rule="evenodd" clip-rule="evenodd" fill="#F7DA03" d="M266.933,426.647c1.987,0,3.605,1.617,3.605,3.608
				c0,1.977-1.618,3.604-3.605,3.604c-1.985,0-3.604-1.627-3.604-3.604C263.329,428.265,264.947,426.647,266.933,426.647
				L266.933,426.647z"/>
		</g>
		<g>
			<path d="M266.933,426.238h0.006c1.102,0.003,2.104,0.456,2.831,1.183c0.722,0.722,1.173,1.72,1.175,2.819v0.016v0.005
				c0,1.101-0.453,2.104-1.178,2.831h-0.003c-0.723,0.719-1.721,1.171-2.819,1.171h-0.012h-0.008c-1.102,0-2.104-0.452-2.832-1.179
				c-0.72-0.723-1.17-1.723-1.174-2.819v-0.009v-0.007c0.002-1.104,0.454-2.114,1.179-2.837c0.727-0.718,1.725-1.171,2.822-1.174
				H266.933L266.933,426.238z M266.938,427.056h-0.006h-0.013c-0.874,0-1.673,0.36-2.247,0.934c-0.578,0.577-0.938,1.375-0.938,2.26
				v0.007v0.009c0.002,0.871,0.361,1.668,0.937,2.246c0.576,0.581,1.376,0.942,2.254,0.942h0.008h0.012
				c0.874-0.004,1.67-0.361,2.246-0.938h-0.001c0.579-0.582,0.938-1.379,0.941-2.254v-0.005v-0.016
				c-0.003-0.876-0.362-1.67-0.938-2.251C268.618,427.416,267.816,427.056,266.938,427.056L266.938,427.056z"/>
		</g>
		<g>
			<path fill-rule="evenodd" clip-rule="evenodd" fill="#F7DA03" d="M286.141,423.613c1.988,0,3.607,1.614,3.607,3.604
				c0,1.989-1.619,3.607-3.607,3.607c-1.986,0-3.605-1.618-3.605-3.607C282.535,425.228,284.154,423.613,286.141,423.613
				L286.141,423.613z"/>
		</g>
		<g>
			<path d="M286.141,423.206h0.007c1.104,0,2.105,0.453,2.831,1.18c0.723,0.726,1.175,1.723,1.177,2.818v0.014v0.004
				c-0.001,1.107-0.454,2.108-1.18,2.831h-0.003c-0.724,0.728-1.722,1.175-2.818,1.175h-0.014h-0.006
				c-1.1,0-2.104-0.447-2.829-1.175c-0.724-0.727-1.174-1.724-1.177-2.82v-0.015v-0.006c0.002-1.104,0.453-2.104,1.182-2.835
				c0.723-0.718,1.719-1.171,2.819-1.171H286.141L286.141,423.206z M286.147,424.021h-0.007h-0.011
				c-0.874,0.003-1.672,0.36-2.248,0.935c-0.576,0.576-0.937,1.377-0.938,2.257v0.006v0.015c0.003,0.869,0.362,1.67,0.935,2.242
				c0.576,0.578,1.377,0.938,2.256,0.938h0.006h0.014c0.873-0.004,1.669-0.36,2.246-0.938h-0.001
				c0.578-0.572,0.939-1.373,0.94-2.253v-0.004v-0.014c-0.003-0.872-0.362-1.673-0.937-2.246
				C287.826,424.377,287.026,424.021,286.147,424.021L286.147,424.021z"/>
		</g>
		<g>
			<path fill-rule="evenodd" clip-rule="evenodd" fill="#F7DA03" d="M299.891,414.242c1.984,0,3.608,1.619,3.608,3.604
				c0,1.992-1.624,3.608-3.608,3.608c-1.985,0-3.603-1.616-3.603-3.608C296.288,415.861,297.905,414.242,299.891,414.242
				L299.891,414.242z"/>
		</g>
		<g>
			<path d="M299.891,413.839h0.009c1.1,0,2.108,0.449,2.832,1.179c0.723,0.723,1.171,1.72,1.177,2.82v0.009v0.004
				c-0.006,1.108-0.454,2.109-1.177,2.835h-0.006c-0.723,0.728-1.727,1.175-2.821,1.175h-0.014h-0.004
				c-1.102,0-2.104-0.453-2.832-1.179c-0.722-0.722-1.171-1.723-1.177-2.819v-0.016v-0.005c0.004-1.104,0.455-2.102,1.183-2.831
				c0.723-0.723,1.72-1.172,2.82-1.172H299.891L299.891,413.839z M299.899,414.649h-0.009h-0.01
				c-0.876,0.008-1.671,0.361-2.248,0.938c-0.576,0.577-0.938,1.378-0.938,2.254v0.005v0.016c0.001,0.872,0.362,1.669,0.938,2.247
				c0.575,0.576,1.374,0.938,2.255,0.938h0.004h0.014c0.875-0.004,1.671-0.361,2.243-0.934v-0.004
				c0.584-0.578,0.944-1.375,0.944-2.259v-0.004v-0.009c0-0.876-0.36-1.673-0.938-2.25
				C301.581,415.011,300.779,414.653,299.899,414.649L299.899,414.649z"/>
		</g>
		<g>
			<path fill-rule="evenodd" clip-rule="evenodd" fill="#F7DA03" d="M321.978,412.976c1.982,0,3.606,1.619,3.606,3.609
				c0,1.984-1.624,3.604-3.606,3.604c-1.986,0-3.61-1.619-3.61-3.604C318.367,414.595,319.991,412.976,321.978,412.976
				L321.978,412.976z"/>
		</g>
		<g>
			<path d="M321.978,412.573h0.006c1.1,0,2.109,0.449,2.831,1.176c0.719,0.727,1.168,1.722,1.179,2.822v0.014v0.007
				c-0.011,1.101-0.46,2.102-1.187,2.833l0,0c-0.723,0.721-1.724,1.171-2.819,1.171h-0.01h-0.006c-1.101,0-2.108-0.457-2.831-1.18
				c-0.725-0.723-1.174-1.724-1.181-2.819v-0.012v-0.01c0.007-1.104,0.456-2.104,1.185-2.831c0.725-0.722,1.719-1.171,2.817-1.171
				H321.978L321.978,412.573z M321.983,413.383h-0.006h-0.016c-0.874,0.005-1.669,0.366-2.25,0.938
				c-0.571,0.573-0.934,1.379-0.934,2.255v0.01v0.012c0,0.873,0.362,1.674,0.934,2.246c0.577,0.582,1.376,0.938,2.26,0.938h0.006
				h0.01c0.877-0.004,1.669-0.356,2.246-0.934l0,0c0.581-0.577,0.939-1.378,0.939-2.256v-0.007v-0.014
				c0-0.872-0.358-1.678-0.935-2.251C323.666,413.749,322.855,413.388,321.983,413.383L321.983,413.383z"/>
		</g>
		<g>
			<path fill-rule="evenodd" clip-rule="evenodd" fill="#F7DA03" d="M339.426,419.041c1.988,0,3.604,1.624,3.604,3.608
				c0,1.989-1.616,3.604-3.604,3.604c-1.99,0-3.604-1.615-3.604-3.604C335.822,420.665,337.436,419.041,339.426,419.041
				L339.426,419.041z"/>
		</g>
		<g>
			<path d="M339.426,418.635h0.009c1.101,0.005,2.103,0.457,2.828,1.184c0.727,0.723,1.175,1.723,1.175,2.819v0.012v0.005
				c0,1.108-0.458,2.109-1.179,2.835l0,0c-0.722,0.723-1.724,1.172-2.82,1.177h-0.013h-0.004c-1.109,0-2.108-0.458-2.837-1.181
				c-0.719-0.73-1.168-1.723-1.17-2.827v-0.009v-0.008c0-1.101,0.451-2.101,1.178-2.827c0.721-0.723,1.72-1.175,2.816-1.18H339.426
				L339.426,418.635z M339.435,419.452h-0.009h-0.017c-0.871,0.005-1.67,0.362-2.243,0.934c-0.581,0.582-0.937,1.385-0.937,2.256
				v0.008v0.009c0,0.881,0.363,1.673,0.937,2.249c0.573,0.578,1.372,0.939,2.256,0.943h0.004h0.013
				c0.872-0.004,1.672-0.361,2.245-0.943l0,0c0.579-0.576,0.935-1.378,0.945-2.253v-0.005v-0.012
				c-0.011-0.872-0.366-1.67-0.945-2.246C341.11,419.814,340.311,419.452,339.435,419.452L339.435,419.452z"/>
		</g>
		<g>
			<path fill-rule="evenodd" clip-rule="evenodd" fill="#F7DA03" d="M313.963,425.315c1.99,0,3.606,1.615,3.606,3.604
				c0,1.988-1.616,3.607-3.606,3.607c-1.981,0-3.599-1.619-3.599-3.607C310.364,426.931,311.981,425.315,313.963,425.315
				L313.963,425.315z"/>
		</g>
		<g>
			<path d="M313.963,424.904h0.008c1.1,0,2.106,0.454,2.835,1.18c0.719,0.727,1.167,1.723,1.17,2.818v0.018v0.004
				c0,1.104-0.451,2.108-1.174,2.831l0,0c-0.729,0.728-1.723,1.175-2.821,1.175h-0.018h-0.006c-1.103,0-2.102-0.452-2.829-1.179
				c-0.725-0.723-1.172-1.723-1.172-2.819v-0.012v-0.008c0-1.105,0.447-2.105,1.177-2.832c0.723-0.722,1.722-1.173,2.82-1.176
				H313.963L313.963,424.904z M313.971,425.723h-0.008h-0.01c-0.878,0-1.672,0.357-2.247,0.934c-0.578,0.576-0.935,1.375-0.94,2.256
				v0.008v0.012c0.006,0.872,0.362,1.674,0.933,2.246c0.583,0.577,1.383,0.939,2.259,0.939h0.006h0.018
				c0.87-0.005,1.663-0.362,2.247-0.934v-0.006c0.574-0.572,0.937-1.374,0.937-2.254v-0.004v-0.018c0-0.871-0.362-1.67-0.937-2.246
				C315.65,426.08,314.851,425.723,313.971,425.723L313.971,425.723z"/>
		</g>
		<g>
			<path fill-rule="evenodd" clip-rule="evenodd" fill="#F7DA03" d="M334.543,431.042c1.983,0,3.604,1.617,3.604,3.607
				c0,1.98-1.62,3.604-3.604,3.604c-1.984,0-3.608-1.623-3.608-3.604C330.935,432.659,332.559,431.042,334.543,431.042
				L334.543,431.042z"/>
		</g>
		<g>
			<path d="M334.543,430.63h0.005c1.099,0.004,2.107,0.456,2.83,1.188c0.724,0.718,1.176,1.715,1.179,2.818v0.014v0.005
				c-0.003,1.1-0.455,2.108-1.187,2.831l0,0c-0.723,0.723-1.724,1.171-2.814,1.179h-0.013h-0.008
				c-1.101-0.008-2.109-0.456-2.831-1.184c-0.721-0.722-1.168-1.727-1.177-2.819v-0.012v-0.01c0.009-1.101,0.456-2.108,1.185-2.831
				c0.723-0.723,1.719-1.17,2.818-1.179H334.543L334.543,430.63z M334.548,431.448h-0.005h-0.013c-0.876,0-1.672,0.36-2.249,0.938
				c-0.577,0.571-0.937,1.373-0.937,2.253v0.01v0.012c0,0.873,0.359,1.666,0.937,2.243c0.577,0.581,1.373,0.942,2.254,0.942h0.008
				h0.013c0.874-0.005,1.67-0.361,2.243-0.938l0,0c0.579-0.581,0.94-1.378,0.94-2.254v-0.005v-0.014
				c0-0.876-0.361-1.672-0.935-2.249C336.229,431.809,335.423,431.448,334.548,431.448L334.548,431.448z"/>
		</g>
		<g>
			<path fill-rule="evenodd" clip-rule="evenodd" fill="#F7DA03" d="M340.85,422.105l12.41,23.654l-2.176,1.034l-12.651-23.072
				C337.222,421.559,340.021,420.537,340.85,422.105L340.85,422.105z M336.196,434.205l6.781,14.836
				c-0.786,0.247-1.663,0.498-2.579,0.713l-6.777-14.208C332.657,433.264,335.543,432.549,336.196,434.205L336.196,434.205z
				 M323.394,415.937l10.194,35.009c-0.743,0.091-1.499,0.132-2.281,0.142l-10.644-34.154
				C320.008,414.54,322.959,414.217,323.394,415.937L323.394,415.937z M315.493,428.944l1.326,12.61l-2.866-1.678l-1.312-10.326
				C312.335,427.084,315.303,427.176,315.493,428.944L315.493,428.944z M301.402,418.055l-0.445,18.251l-2.569,0.101l0.119-18.129
				C298.525,415.799,301.449,416.276,301.402,418.055L301.402,418.055z M287.537,427.595l-2.083,13.137
				c-0.918,0.499-1.995,1.204-3.054,1.914l2.234-15.237C284.995,424.955,287.815,425.847,287.537,427.595L287.537,427.595z
				 M280.932,413.88l-8.373,36.098c-0.906,0.22-1.866,0.395-2.729,0.453l8.214-36.882
				C278.543,411.115,281.306,412.142,280.932,413.88L280.932,413.88z M267.977,431.323l-8.812,21.055
				c-0.755-0.342-1.51-0.723-2.266-1.134l8.298-20.769C266.114,428.175,268.672,429.69,267.977,431.323L267.977,431.323z
				 M263.152,418.673l-18.903,25.376l-2.115-0.987l18.391-25.64C261.756,415.276,264.067,417.156,263.152,418.673L263.152,418.673z"
				/>
			<path d="M259.369,452.896l-0.365-0.166c-0.727-0.327-1.477-0.701-2.293-1.146l-0.305-0.166l8.428-21.084
				c0.358-0.904,1.013-1.423,1.792-1.423c0.608,0,1.205,0.331,1.556,0.861c0.34,0.512,0.396,1.135,0.153,1.704L259.369,452.896z
				 M257.389,451.066c0.548,0.29,1.067,0.551,1.571,0.788l8.656-20.681c0.191-0.443,0.028-0.801-0.085-0.972
				c-0.203-0.312-0.56-0.512-0.905-0.512c-0.449,0-0.828,0.334-1.069,0.932L257.389,451.066z M331.02,451.485l-10.73-34.437
				c-0.261-0.963-0.008-1.565,0.25-1.904c0.33-0.433,0.851-0.683,1.433-0.683c0.867,0,1.59,0.556,1.8,1.379l10.319,35.433
				l-0.457,0.059c-0.695,0.087-1.453,0.133-2.32,0.145L331.02,451.485z M321.972,415.243c-0.337,0-0.633,0.137-0.812,0.373
				c-0.217,0.287-0.261,0.706-0.122,1.217l10.554,33.859c0.537-0.012,1.032-0.042,1.491-0.083l-10.064-34.561
				C322.867,415.45,322.36,415.243,321.972,415.243z M269.335,450.854l8.327-37.392c0.265-1.284,1.111-1.745,1.819-1.745
				c0.562,0,1.112,0.271,1.473,0.718c0.351,0.429,0.478,0.973,0.357,1.529l-8.428,36.332l-0.233,0.059
				c-1.043,0.254-1.982,0.412-2.795,0.466L269.335,450.854z M279.481,412.498c-0.524,0-0.909,0.411-1.056,1.127l-8.101,36.369
				c0.578-0.066,1.225-0.182,1.909-0.34l8.316-35.865c0.087-0.397-0.062-0.692-0.203-0.866
				C280.137,412.662,279.805,412.498,279.481,412.498z M340.18,450.202l-6.911-14.49c-0.324-0.772-0.303-1.481,0.053-2.018
				c0.327-0.489,0.898-0.784,1.528-0.784c0.773,0,1.43,0.439,1.706,1.148l6.957,15.218l-0.416,0.137
				c-0.902,0.282-1.78,0.528-2.611,0.719L340.18,450.202z M334.85,433.686c-0.365,0-0.699,0.171-0.878,0.439
				c-0.212,0.316-0.21,0.756,0.006,1.268l6.637,13.91c0.589-0.146,1.199-0.313,1.824-0.503l-6.598-14.433
				C335.668,433.936,335.304,433.686,334.85,433.686z M350.918,447.301l-12.825-23.393c-0.565-1.008-0.317-1.728-0.122-2.068
				c0.321-0.547,0.939-0.884,1.611-0.884c0.69,0,1.293,0.361,1.612,0.967l12.599,24.016L350.918,447.301z M339.582,421.737
				c-0.392,0-0.757,0.194-0.937,0.497c-0.198,0.342-0.156,0.789,0.128,1.295l12.474,22.754l1.481-0.702l-12.224-23.297
				C340.318,421.937,339.982,421.737,339.582,421.737z M244.371,444.535l-2.827-1.32l18.664-26.017
				c0.559-0.979,1.31-1.128,1.706-1.128c0.636,0,1.261,0.378,1.596,0.967c0.327,0.581,0.318,1.265-0.022,1.835L244.371,444.535z
				 M242.726,442.906l1.4,0.656l18.714-25.123c0.176-0.298,0.183-0.681-0.009-1.021c-0.197-0.349-0.558-0.573-0.917-0.573
				c-0.398,0-0.763,0.266-1.052,0.772L242.726,442.906z M281.887,443.455l2.363-16.102c0.198-1.356,1.063-1.843,1.807-1.843
				c0.549,0,1.095,0.253,1.457,0.677c0.348,0.411,0.494,0.935,0.408,1.47l-2.112,13.328l-0.17,0.091
				c-0.914,0.495-1.992,1.204-3.022,1.894L281.887,443.455z M286.057,426.291c-0.549,0-0.927,0.429-1.035,1.176l-2.108,14.37
				c0.751-0.495,1.504-0.974,2.187-1.354l2.053-12.95c0.062-0.394-0.092-0.673-0.231-0.838
				C286.708,426.444,286.376,426.291,286.057,426.291z M317.286,442.277l-3.696-2.16l-1.334-10.517
				c-0.115-0.914,0.179-1.466,0.439-1.76c0.323-0.371,0.807-0.578,1.32-0.578c0.839,0,1.748,0.565,1.865,1.64L317.286,442.277z
				 M314.312,439.635l2.035,1.192l-1.241-11.841c-0.107-0.993-1.353-1.168-1.825-0.632c-0.226,0.257-0.313,0.652-0.253,1.147
				L314.312,439.635z M297.994,436.812l0.122-18.535c0.018-2.296,2.201-2.52,3.173-1.523c0.337,0.349,0.516,0.814,0.505,1.308
				l-0.454,18.618L297.994,436.812z M299.916,416.958c-0.633,0-1.013,0.494-1.02,1.323l-0.117,17.721l1.801-0.07l0.433-17.887
				c0.01-0.368-0.149-0.61-0.283-0.747C300.522,417.081,300.219,416.958,299.916,416.958z"/>
		</g>
		<g>
			<path d="M365.119,426.536l30.886,0.028c-0.337-5.907-1.562-10.442-3.428-13.975c-1.83-3.471-4.295-5.979-7.153-7.867
				c-0.049,0.054-0.091,0.116-0.139,0.179c-0.019,0.04-0.044,0.064-0.071,0.095c-2.94,4.049-6.091,7.95-9.479,11.638
				C372.433,420.214,368.908,423.56,365.119,426.536L365.119,426.536z M385.285,404.901c-0.019,0.033-0.044,0.064-0.071,0.095
				L385.285,404.901L385.285,404.901z M396.437,427.379l-32.379-0.033c-6.007,4.529-12.844,8.062-19.95,11.024
				c-7.135,2.976-14.485,5.344-21.842,7.709c-9.043-7.561-20.005-11.472-31.54-7.299c-4.356,1.577-8.325,4.089-11.877,7.047
				l-0.002-0.005l-0.308,0.257c-14.69-5.501-29.257-13.021-40.063-24.687c-9.076-9.791-14.113-21.151-15.484-33.909
				c-2.978-2.541-6.578-4.982-9.895-7.039c-3.357-2.087-6.439-3.785-8.285-4.781c-2.132-1.15-2.57-2.579-2.562-4.793
				c-6.565-2.719-13.095-5.521-19.636-8.298l-0.008-5.755l48.97,6.273c2.431,4.134,5.832,7.76,9.318,11.019
				c0.694,0.647,1.388,1.275,2.068,1.864l0,0c2.909,2.528,6.388,4.691,9.762,6.988c4.988,3.396,10.407,6.303,16.011,9.139
				c11.912,6.028,24.927,10.097,36.943,11.168c20.669,1.839,42.256-4.339,65.335-23.085h-6.436v-7.124l0.113-0.282l5.793-5.93
				h26.884l7.059,6.024v7.312h-11.138c0.032,4.396-0.518,8.55-1.729,12.506c-1.211,3.962-3.074,7.73-5.661,11.365
				c2.952,1.959,5.5,4.562,7.401,8.153c1.963,3.725,3.234,8.504,3.538,14.749l0.025,0.422H396.437L396.437,427.379z
				 M375.381,415.815c3.452-3.753,6.626-7.764,9.61-11.892c2.66-3.669,4.566-7.465,5.792-11.471
				c1.181-3.878,1.729-7.952,1.695-12.27h-3.619c-6.302,17.616-18.83,31.22-34.319,40.299
				c-38.42,22.541-95.718,17.019-119.937-24.264c-1.898-3.238-3.758-6.19-5.666-8.938c-1.864-2.7-3.771-5.183-5.802-7.545
				l-20.072-8.499c0,1.753,0.504,2.832,2.132,3.709c1.845,0.999,4.934,2.697,8.327,4.808c3.378,2.097,7.431,4.528,10.247,7.349
				c5.354,6.954,8.001,12.854,10.345,18.076c2.542,5.677,4.724,10.538,9.652,15.044c11.512,10.521,26.888,16.059,41.688,20.074
				l-1.08,0.585c-14.679-4.023-29.742-9.624-41.158-20.062c-5.048-4.612-7.264-9.549-9.843-15.308
				c-2.2-4.904-4.672-10.418-9.421-16.824c1.544,12.054,6.473,22.82,15.121,32.153c8.972,9.687,21.952,17.841,39.306,24.318
				c1.954-1.62,3.937-3.031,5.946-4.223c2.021-1.192,4.067-2.173,6.124-2.919c10.518-3.799,21.399-1.623,31.995,7.149
				c7.01-2.238,14.323-4.612,21.353-7.544c0.491-0.211,0.987-0.415,1.49-0.631c-8.852,2.628-18.443,4.144-27.576,4.732l-1.265-0.777
				c11.481-0.435,24.053-2.664,34.696-6.676C360.202,430.285,368.742,423.036,375.381,415.815L375.381,415.815z M387.994,380.184
				h-5.296c-12.949,30.529-50.339,43.321-81.26,42.18l-0.136-0.012c-16.978-0.653-33.882-7.167-49.864-20.167
				c-6.655-5.413-12.698-11.578-18.192-18.164l-0.012-0.017l-8.449-3.575c1.667,2.018,3.261,4.136,4.824,6.39
				c1.913,2.756,3.786,5.729,5.697,8.989c23.983,40.893,80.782,46.29,118.824,23.974
				C369.375,410.842,381.729,397.473,387.994,380.184L387.994,380.184z M381.813,380.184h-3.18
				c-11.505,11.477-21.103,19.826-32.78,25.232c-11.712,5.421-25.498,7.871-45.356,7.518c-14.786-0.261-29.837-4.794-44.273-14.498
				c-6.013-4.039-11.58-8.748-16.678-13.889c-0.46,0.52-0.917,1.03-1.373,1.549h-0.002l0,0c-1.091-0.465-2.187-0.926-3.279-1.387
				c5.185,6.095,10.849,11.797,17.06,16.845c15.838,12.888,32.578,19.337,49.381,19.983l0.136,0.008
				C331.938,422.68,368.87,410.152,381.813,380.184L381.813,380.184z M377.483,380.184h-1.814
				c-13.81,10.695-23.719,17.933-34.341,22.562c-10.647,4.643-21.976,6.664-38.597,6.918c-16.846,0.253-32.689-5.577-46.194-15.03
				c-5.304-3.712-10.256-7.973-14.736-12.638c-0.573,0.639-1.146,1.294-1.717,1.946c5.056,5.116,10.617,9.803,16.593,13.817
				c14.297,9.611,29.196,14.101,43.833,14.362c19.729,0.349,33.405-2.077,45.001-7.44
				C356.891,399.412,366.297,391.294,377.483,380.184L377.483,380.184z M374.345,380.184h-2.056
				c-23.55,19.394-45.584,25.775-66.682,23.902c-21.005-1.876-41.066-12.123-60.789-25.704c-0.896,1.026-1.723,2.139-2.478,2.997
				c15.718,16.348,37.223,27.823,60.377,27.466c16.513-0.25,27.751-2.25,38.285-6.843
				C351.325,397.498,361.009,390.489,374.345,380.184L374.345,380.184z M370.819,367.665l-4.861,4.976l36.96,0.011l-5.851-4.986
				H370.819L370.819,367.665z M365.39,373.453v5.918h6.757v-0.005c10.486,0,20.975,0.005,31.464,0.005v-5.905L365.39,373.453
				L365.39,373.453z M238.757,384.198l5.495-6.265c-0.569-0.47-1.223-0.867-1.79-1.361l-3.621,4.159L238.757,384.198
				L238.757,384.198z M231.15,363.846l-46.385-5.937l53.56,22.171l3.526-4.007C237.823,372.503,233.921,368.488,231.15,363.846
				L231.15,363.846z M183.428,358.232v3.808l54.536,23.051l0.059-4.255L183.428,358.232L183.428,358.232z"/>
		</g>
		<g>
			<path fill-rule="evenodd" clip-rule="evenodd" fill="#F7DA03" d="M324.096,337.559l29.975,17.53
				c-3.833,1.38-7.787,3.307-10.896,5.996c-9.884,8.558-8.395,21.46,3.758,38.734c-5.646-1.869-10.47-3.787-15.321-7.101
				c-10.072-6.876-17.89-18.131-20.585-38.737C313.751,347.782,317.499,342.043,324.096,337.559L324.096,337.559z"/>
		</g>
		<g>
			<path d="M324.303,337.211l29.978,17.529l0.752,0.445l-0.823,0.29c-1.908,0.685-3.83,1.503-5.67,2.478
				c-1.823,0.978-3.562,2.115-5.094,3.439c-4.829,4.186-6.765,9.517-6.01,15.918c0.766,6.478,4.055,13.698,10.087,22.28
				l-0.979,0.571c-2.837-0.938-4.847-1.582-7.499-2.806c-2.657-1.225-5.219-2.632-7.662-4.298
				c-5.082-3.475-9.604-8.059-13.188-14.362c-3.57-6.289-6.212-14.308-7.569-24.662l0.029-0.22c1.374-3.127,3.01-6.14,5.129-8.936
				c2.132-2.802,4.749-5.393,8.082-7.654l0.214-0.146L324.303,337.211L324.303,337.211z M353.123,355.011l-29.005-16.97
				c-3.161,2.186-5.653,4.654-7.687,7.333c-2.061,2.714-3.652,5.639-4.99,8.67c1.346,10.188,3.948,18.072,7.46,24.251
				c3.518,6.19,7.948,10.684,12.935,14.088c2.411,1.645,4.932,3.035,7.551,4.234c2.257,1.042,4.59,1.946,6.986,2.778
				c-5.678-8.279-8.995-15.637-9.745-21.985c-0.789-6.681,1.236-12.256,6.284-16.633c1.579-1.365,3.371-2.537,5.249-3.541
				C349.781,356.376,351.462,355.638,353.123,355.011L353.123,355.011z"/>
		</g>
		<g>
			<path fill-rule="evenodd" clip-rule="evenodd" fill="#F7DA03" d="M257.162,386.241l-0.166,8.051l-2.067-1.465l0.034-7.942
				C255.645,385.319,256.457,385.809,257.162,386.241L257.162,386.241z"/>
		</g>
		<g>
			<path d="M257.569,386.249l-0.164,8.05l-0.018,0.774l-0.626-0.444l-2.066-1.466l-0.174-0.12v-0.216l0.034-7.942l0.006-0.757
				l0.627,0.419h0.001l0,0c0.567,0.361,1.097,0.681,1.603,0.993v-0.004c0.211,0.128,0.415,0.258,0.584,0.357l0.198,0.119
				L257.569,386.249L257.569,386.249z M256.607,393.516l0.142-7.047c-0.128-0.082-0.257-0.165-0.378-0.231l0,0
				c-0.342-0.208-0.686-0.418-1.003-0.614l-0.032,6.995L256.607,393.516L256.607,393.516z"/>
		</g>
		<g>
			<path fill-rule="evenodd" clip-rule="evenodd" fill="#F7DA03" d="M256.91,358.913l0.173,19.673
				c-0.876-1.54-1.742-3.248-2.254-4.755l0.002-11.118C255.345,361.389,256.04,360.121,256.91,358.913L256.91,358.913z"/>
		</g>
		<g>
			<path d="M257.319,358.91l0.173,19.667l-0.761,0.209c-0.445-0.782-0.889-1.604-1.279-2.414c-0.393-0.817-0.747-1.639-1.006-2.408
				l-0.023-0.133l0.002-11.118l0.031-0.154l0.005-0.013l0,0c0.08-0.199,0.154-0.386,0.229-0.561
				c0.086-0.194,0.171-0.381,0.255-0.562l0,0c0.45-0.941,0.998-1.862,1.635-2.752L257.319,358.91L257.319,358.91z M256.664,376.961
				l-0.147-16.719c-0.31,0.502-0.589,1.014-0.836,1.531v0.005c-0.086,0.18-0.171,0.361-0.242,0.527
				c-0.072,0.17-0.14,0.332-0.197,0.48l-0.004,10.979c0.245,0.719,0.575,1.482,0.948,2.254
				C256.338,376.336,256.5,376.646,256.664,376.961L256.664,376.961z"/>
		</g>
		<g>
			<polygon fill-rule="evenodd" clip-rule="evenodd" fill="#F7DA03" points="254.831,328.309 256.91,328.309 256.91,334.459 
				254.831,332.83 254.831,328.309 			"/>
		</g>
		<g>
			<path d="M254.831,327.902h2.079h0.409v0.406v6.15v0.83l-0.658-0.516l-2.077-1.623l-0.159-0.124v-0.196v-4.521v-0.406H254.831
				L254.831,327.902z M256.502,328.716h-1.261v3.915l1.261,0.989V328.716L256.502,328.716z"/>
		</g>
		<g>
			<path fill-rule="evenodd" clip-rule="evenodd" fill="#F7DA03" d="M302.288,394.154l0.22,15.056l-4.599-0.082l0.255-17.447
				c0-0.005,0.004,0,0.006,0c0,0,0.003,0,0.005,0c0,0.008,0.007,0.008,0.007,0.008C299.537,392.544,300.888,393.366,302.288,394.154
				L302.288,394.154z"/>
		</g>
		<g>
			<path d="M302.906,409.206l0.014,0.42l-0.422-0.013l-4.593-0.084l-0.41-0.008l0.006-0.402l0.267-18.091
				c1.702,0.847,3.269,1.952,4.919,2.89L302.906,409.206L302.906,409.206z M302.091,408.79l-0.131-14.742
				c-1.12-0.644-2.277-1.304-3.369-1.984l-0.267,16.657L302.091,408.79L302.091,408.79z"/>
		</g>
		<g>
			<polygon fill-rule="evenodd" clip-rule="evenodd" fill="#F7DA03" points="301.007,304.871 301.119,314.227 299.13,313.104 
				299.254,304.797 301.007,304.871 			"/>
		</g>
		<g>
			<path d="M301.647,314.94l-3.2-1.765l0.129-8.952l2.942,0.236L301.647,314.94L301.647,314.94z M300.812,313.521l-0.1-8.242
				l-1.329-0.24l-0.112,7.673L300.812,313.521L300.812,313.521z"/>
		</g>
		<g>
			<path fill-rule="evenodd" clip-rule="evenodd" fill="#F7DA03" d="M333.611,336.875c1.804,1.054,3.908-0.207,2.211-2.607
				l-55.874-32.249c-2.179-1.075-2.891,1.566-2.149,2.002L333.611,336.875L333.611,336.875z"/>
		</g>
		<g>
			<path d="M333.82,336.526c0.551,0.32,1.468,0.52,1.977,0c0.475-0.491,0.208-1.678-0.258-1.947l-55.793-32.207
				c-0.615-0.295-1.066-0.229-1.355-0.008c-0.119,0.096-0.219,0.221-0.293,0.353c-0.076,0.137-0.13,0.287-0.156,0.432l0,0
				c-0.046,0.254-0.024,0.47,0.065,0.523L333.82,336.526L333.82,336.526z M335.461,337.598c-0.611,0.142-1.358,0.033-2.048-0.373
				l-55.821-32.851c-0.398-0.237-0.55-0.794-0.451-1.362l0,0c0.038-0.232,0.125-0.474,0.245-0.693
				c0.128-0.22,0.296-0.433,0.506-0.594c0.522-0.399,1.273-0.544,2.234-0.071l0.025,0.013l55.871,32.253
				c0.648,0.398,0.902,1.487,0.818,2.2c-0.051,0.395-0.213,0.723-0.462,0.976C336.138,337.339,335.822,337.511,335.461,337.598
				L335.461,337.598z"/>
		</g>
		<g>
			<polygon fill-rule="evenodd" clip-rule="evenodd" fill="#F7DA03" points="340.203,335.726 340.203,343.566 342.164,344.711 
				341.808,335.741 340.203,335.726 			"/>
		</g>
		<g>
			<path d="M340.612,336.137v7.198l1.111,0.652l-0.307-7.843L340.612,336.137L340.612,336.137z M339.8,343.566v-7.841v-0.413h0.409
				l1.606,0.019l0.381,0.003l0.021,0.387l0.349,8.973l0.03,0.739l-0.643-0.374l-1.952-1.143L339.8,343.8V343.566L339.8,343.566z"/>
		</g>
		<g>
			<path fill-rule="evenodd" clip-rule="evenodd" fill="#F7DA03" d="M340.203,397.455l0.132,5.216l3.418-1.474l-0.145-2.358
				C342.459,398.407,341.324,397.95,340.203,397.455L340.203,397.455z"/>
		</g>
		<g>
			<path d="M340.63,398.083l0.101,3.977l2.594-1.124l-0.105-1.811c-0.496-0.188-0.991-0.382-1.478-0.576
				C341.381,398.398,341.007,398.246,340.63,398.083L340.63,398.083z M339.933,402.68l-0.133-5.211l-0.018-0.64l0.584,0.253
				c0.53,0.233,1.091,0.47,1.685,0.707c0.567,0.231,1.139,0.457,1.702,0.668l0.245,0.095l0.021,0.263l0.14,2.357l0.012,0.241
				l-0.259,0.162l-3.413,1.469l-0.559,0.24L339.933,402.68L339.933,402.68z"/>
		</g>
		<g>
			<path fill-rule="evenodd" clip-rule="evenodd" fill="#F7DA03" d="M340.203,364.27v23.641c0.913,2.002,2.004,4.069,3.27,6.203
				l-0.926-32.464C341.659,362.484,340.884,363.356,340.203,364.27L340.203,364.27z"/>
		</g>
		<g>
			<path d="M340.612,364.406v23.417c0.445,0.973,0.925,1.951,1.452,2.944c0.302,0.585,0.617,1.166,0.955,1.756l-0.851-29.927
				c-0.193,0.198-0.385,0.398-0.567,0.602C341.245,363.597,340.917,364,340.612,364.406L340.612,364.406z M339.8,387.91V364.27
				l0.078-0.241c0.349-0.473,0.723-0.934,1.113-1.37c0.399-0.439,0.824-0.876,1.281-1.304l0.656-0.614l0.025,0.9l0.927,32.47
				l-0.759,0.216c-0.632-1.068-1.224-2.127-1.774-3.178c-0.551-1.041-1.055-2.066-1.511-3.071L339.8,387.91L339.8,387.91z"/>
		</g>
		<g>
			<path fill-rule="evenodd" clip-rule="evenodd" fill="#F7DA03" d="M340.831,331.241c1.106,0,2.006,0.901,2.006,2.006
				c0,1.103-0.899,2-2.006,2c-1.101,0-2.003-0.897-2.003-2C338.828,332.143,339.73,331.241,340.831,331.241L340.831,331.241z"/>
		</g>
		<g>
			<path fill-rule="evenodd" clip-rule="evenodd" d="M340.831,330.481c1.527,0,2.773,1.241,2.773,2.766
				c0,1.523-1.246,2.768-2.773,2.768c-1.525,0-2.764-1.244-2.764-2.768C338.067,331.723,339.306,330.481,340.831,330.481
				L340.831,330.481z M340.831,331.241c1.106,0,2.006,0.901,2.006,2.006c0,1.103-0.899,2-2.006,2c-1.101,0-2.003-0.897-2.003-2
				C338.828,332.143,339.73,331.241,340.831,331.241L340.831,331.241z"/>
		</g>
		<g>
			<path fill-rule="evenodd" clip-rule="evenodd" fill="#F7DA03" d="M300.211,300.549c1.104,0,2.005,0.897,2.005,2.006
				c0,1.1-0.901,2-2.005,2c-1.105,0-2.007-0.9-2.007-2C298.204,301.446,299.105,300.549,300.211,300.549L300.211,300.549z"/>
		</g>
		<g>
			<path fill-rule="evenodd" clip-rule="evenodd" d="M300.211,299.781c1.524,0,2.766,1.246,2.766,2.775
				c0,1.52-1.241,2.765-2.766,2.765c-1.526,0-2.77-1.245-2.77-2.765C297.441,301.026,298.685,299.781,300.211,299.781
				L300.211,299.781z M300.211,300.549c1.104,0,2.005,0.897,2.005,2.001s-0.901,2.005-2.005,2.005c-1.105,0-2.007-0.9-2.007-2.005
				S299.105,300.549,300.211,300.549L300.211,300.549z"/>
		</g>
		<g>
			<path fill-rule="evenodd" clip-rule="evenodd" fill="#F7DA03" d="M255.881,324.062c1.104,0,2.005,0.902,2.005,2.005
				c0,1.101-0.9,2.007-2.005,2.007c-1.103,0-2.003-0.906-2.003-2.007C253.878,324.964,254.778,324.062,255.881,324.062
				L255.881,324.062z"/>
		</g>
		<g>
			<path fill-rule="evenodd" clip-rule="evenodd" d="M255.884,323.303c1.521,0,2.767,1.24,2.767,2.764
				c0,1.524-1.245,2.771-2.767,2.771c-1.526,0-2.771-1.246-2.771-2.771C253.113,324.543,254.357,323.303,255.884,323.303
				L255.884,323.303z M255.881,324.062c1.104,0,2.005,0.902,2.005,2.005c0,1.101-0.9,2.007-2.005,2.007
				c-1.103,0-2.003-0.906-2.003-2.007C253.878,324.964,254.778,324.062,255.881,324.062L255.881,324.062z"/>
		</g>
		<g>
			<path fill-rule="evenodd" clip-rule="evenodd" fill="#F7DA03" d="M334.904,334.113c0.809,0,1.469,0.66,1.469,1.471
				c0,0.813-0.66,1.473-1.469,1.473c-0.813,0-1.474-0.659-1.474-1.473C333.431,334.773,334.091,334.113,334.904,334.113
				L334.904,334.113z"/>
		</g>
		<g>
			<path fill-rule="evenodd" clip-rule="evenodd" d="M334.904,333.553c1.118,0,2.029,0.914,2.029,2.031
				c0,1.121-0.911,2.033-2.029,2.033c-1.117,0-2.03-0.912-2.03-2.033C332.874,334.467,333.787,333.553,334.904,333.553
				L334.904,333.553z M334.904,334.113c0.809,0,1.469,0.66,1.469,1.471c0,0.813-0.66,1.473-1.469,1.473
				c-0.813,0-1.474-0.659-1.474-1.473C333.431,334.773,334.091,334.113,334.904,334.113L334.904,334.113z"/>
		</g>
		<g>
			<path fill-rule="evenodd" clip-rule="evenodd" fill="#F7DA03" d="M279.692,305.158l49.569,29.138
				c-22.25,11.24-39.129,52.792,6.79,69.745C289.294,401.242,240.347,348.276,279.692,305.158L279.692,305.158z"/>
		</g>
		<g>
			<path d="M279.9,304.809l49.564,29.136l0.641,0.382l-0.661,0.331c-8.425,4.257-16.067,12.9-19.754,22.895
				c-1.538,4.16-2.391,8.557-2.326,12.967c0.066,4.396,1.049,8.813,3.176,13.016c3.989,7.905,12.312,15.238,25.927,20.262
				l-0.437,0.651c-17.863-1.065-36.043-9.421-49.541-21.734c-6.819-6.224-12.449-13.461-16.243-21.283
				c-3.805-7.839-5.771-16.268-5.258-24.862c0.634-10.588,5.036-21.415,14.403-31.683l0.223-0.245L279.9,304.809L279.9,304.809z
				 M328.426,334.275l-48.652-28.598c-9.076,10.043-13.352,20.609-13.968,30.939c-0.507,8.449,1.428,16.741,5.174,24.455
				c3.748,7.73,9.314,14.886,16.058,21.038c12.672,11.563,29.504,19.593,46.273,21.304c-12.266-5.044-19.681-11.953-23.499-19.514
				c-2.187-4.318-3.191-8.856-3.262-13.374c-0.065-4.508,0.805-9.001,2.376-13.253C312.582,347.346,320.093,338.722,328.426,334.275
				L328.426,334.275z"/>
		</g>
		<g>
			<path fill-rule="evenodd" clip-rule="evenodd" fill="#F7DA03" d="M237.987,323.946l34.663,27.377
				c1.809,0.599,3.537,0.523,2.881-2.297l-34.698-27.118C238.754,320.425,236.604,322.695,237.987,323.946L237.987,323.946z"/>
		</g>
		<g>
			<path d="M238.25,323.63l34.604,27.329c0.626,0.332,1.847,0.609,2.338-0.309l0,0c0.104-0.306,0.173-0.887-0.024-1.39
				l-34.571-27.025c-0.681-0.486-1.36-0.491-1.861-0.258c-0.189,0.092-0.356,0.217-0.488,0.366h-0.003
				c-0.122,0.136-0.212,0.294-0.257,0.455C237.912,323.074,237.981,323.381,238.25,323.63L238.25,323.63z M272.397,351.64
				l-34.66-27.378l-0.021-0.018c-0.538-0.485-0.667-1.096-0.513-1.66c0.075-0.283,0.228-0.553,0.435-0.785v-0.004
				c0.198-0.22,0.459-0.415,0.755-0.547c0.737-0.35,1.72-0.354,2.678,0.322l0.014,0.013l34.701,27.125
				c0.363,0.569,0.392,1.562,0.178,2.196h0.003c-0.181,0.557-0.619,0.935-1.182,1.062
				C274.089,352.129,273.022,351.967,272.397,351.64L272.397,351.64z"/>
		</g>
		<g>
			<path fill-rule="evenodd" clip-rule="evenodd" fill="#F7DA03" d="M239.361,325.03c-23.461,21.825-15.338,46.057,34.914,70.129
				c-21.879-14.563-25.854-30.192-13.554-40.257c2.553-2.092,5.793-3.89,9.703-5.318L239.361,325.03L239.361,325.03z"/>
		</g>
		<g>
			<path d="M239.385,325.564c-4.368,4.106-7.608,8.297-9.645,12.548c-2.451,5.116-3.162,10.325-2.008,15.603
				c1.161,5.299,4.066,10.861,9.109,16.285c6.994,7.518,17.982,14.934,33.014,22.535c-4.168-3.143-7.53-6.318-10.096-9.449
				c-3.514-4.292-5.551-8.533-6.146-12.547c-0.599-4.044,0.257-7.86,2.53-11.272c1.107-1.666,2.551-3.234,4.32-4.68l0.008-0.008
				c0.354-0.287,0.731-0.577,1.131-0.872l0,0c0.377-0.278,0.783-0.557,1.209-0.836h0.002c1.968-1.286,4.238-2.428,6.8-3.412
				L239.385,325.564L239.385,325.564z M229.002,337.764c2.123-4.426,5.507-8.777,10.082-13.032l0.258-0.242l0.27,0.221
				l31.065,24.551l0.572,0.452l-0.687,0.253c-2.778,1.018-5.218,2.222-7.306,3.584l0.001,0.004c-0.392,0.256-0.786,0.527-1.175,0.81
				v-0.005c-0.368,0.274-0.735,0.557-1.096,0.852l-0.009,0.009c-1.71,1.398-3.099,2.901-4.159,4.496
				c-2.156,3.242-2.972,6.866-2.4,10.704c0.573,3.865,2.553,7.972,5.972,12.147c3.33,4.074,8.021,8.201,14.108,12.258l-0.316,0.544
				c-17.528-8.396-30.082-16.447-37.844-24.792c-5.146-5.53-8.212-11.252-9.4-16.688C225.74,348.426,226.474,343.04,229.002,337.764
				L229.002,337.764z"/>
		</g>
		<g>
			<path fill-rule="evenodd" clip-rule="evenodd" fill="#F7DA03" d="M274.132,348.597c0.905,0,1.64,0.734,1.64,1.635
				c0,0.901-0.734,1.641-1.64,1.641c-0.901,0-1.636-0.739-1.636-1.641C272.496,349.331,273.23,348.597,274.132,348.597
				L274.132,348.597z"/>
		</g>
		<g>
			<path fill-rule="evenodd" clip-rule="evenodd" d="M274.133,347.974c1.247,0,2.261,1.013,2.261,2.263
				c0,1.245-1.014,2.258-2.261,2.258c-1.246,0-2.261-1.013-2.261-2.258C271.872,348.986,272.887,347.974,274.133,347.974
				L274.133,347.974z M274.132,348.597c0.901,0,1.64,0.734,1.64,1.635c0,0.901-0.738,1.641-1.64,1.641s-1.635-0.739-1.635-1.641
				C272.497,349.331,273.23,348.597,274.132,348.597L274.132,348.597z"/>
		</g>
		<g>
			<path d="M310.001,356.405l29.939,46.402l-0.687,0.437l-29.94-46.394L310.001,356.405L310.001,356.405z M261.077,354.708
				l29.234,53.461l-0.71,0.385l-29.237-53.456L261.077,354.708L261.077,354.708z M280.814,406.591l-22.628-49.492l0.737-0.335
				l22.629,49.494L280.814,406.591L280.814,406.591z M257.29,358.765l17.376,44.956l-0.758,0.291l-17.377-44.953L257.29,358.765
				L257.29,358.765z M308.93,359.151l23.985,46.302l-0.721,0.372l-23.915-46.094L308.93,359.151L308.93,359.151z M307.894,363.58
				l18.512,43.476l-0.75,0.314l-18.365-43.242L307.894,363.58L307.894,363.58z M343.02,334.359l27.946,32.643l-0.63,0.51
				l-27.639-32.185L343.02,334.359L343.02,334.359z M342.37,335.435l22.957,37.409l-0.689,0.432l-22.954-37.406L342.37,335.435
				L342.37,335.435z M344.396,360.279l13.924,32.465l-0.748,0.319l-13.92-32.465L344.396,360.279L344.396,360.279z M343.569,360.965
				l10.885,34.308l-0.778,0.248l-10.63-33.497l7.946,35.304l-0.797,0.183l-8.045-35.769l0.755-0.171l-0.114-0.361L343.569,360.965
				L343.569,360.965z"/>
		</g>
		<g>
			<path fill-rule="evenodd" clip-rule="evenodd" fill="#F7DA03" d="M324.096,337.559l29.975,17.53l3.236,2.072
				c1.402,0.141,2.198-0.266,1.659-1.876l-2.952-1.943c-13.24-8.283-27.544-16.965-28.762-17.637L324.096,337.559L324.096,337.559z"
				/>
		</g>
		<g>
			<path d="M324.901,337.559l29.379,17.182l0.011,0.009l3.152,2.022c0.537,0.041,0.944-0.004,1.139-0.187
				c0.176-0.162,0.205-0.486,0.048-1.039l-2.838-1.863l0,0l-0.094-0.062l0,0c-2.012-1.255-3.871-2.413-5.58-3.476
				c-1.854-1.146-3.692-2.284-5.474-3.38c-8.622-5.317-15.9-9.724-17.393-10.588L324.901,337.559L324.901,337.559z M353.851,355.431
				l-29.963-17.518l-0.593-0.349l0.593-0.354l3.156-1.855l0.205-0.117l0.198,0.113c0.872,0.481,8.493,5.094,17.626,10.721
				c1.781,1.1,3.615,2.232,5.467,3.383c1.998,1.237,3.887,2.417,5.589,3.475l0,0l0.099,0.067l0.004,0.005l2.959,1.942l0.164,0.212
				c0.326,0.975,0.217,1.622-0.212,2.021c-0.406,0.374-1.067,0.47-1.878,0.391l-0.185-0.067l-3.229-2.066V355.431L353.851,355.431z"
				/>
		</g>
		<g>
			<path fill-rule="evenodd" clip-rule="evenodd" fill="#F7DA03" d="M358.115,355.015c0.662,0,1.203,0.543,1.203,1.204
				c0,0.665-0.541,1.204-1.203,1.204s-1.201-0.539-1.201-1.204C356.914,355.558,357.453,355.015,358.115,355.015L358.115,355.015z"
				/>
		</g>
		<g>
			<path fill-rule="evenodd" clip-rule="evenodd" d="M358.115,354.562c0.92,0,1.668,0.739,1.668,1.656
				c0,0.913-0.748,1.66-1.668,1.66c-0.911,0-1.653-0.747-1.653-1.66C356.462,355.302,357.204,354.562,358.115,354.562
				L358.115,354.562z M358.115,355.015c0.662,0,1.203,0.543,1.203,1.204c0,0.66-0.541,1.204-1.203,1.204s-1.201-0.544-1.201-1.204
				C356.914,355.558,357.453,355.015,358.115,355.015L358.115,355.015z"/>
		</g>
	</g>
</g>
</svg>
