<svg xmlns:rdf="http://www.w3.org/1999/02/22-rdf-syntax-ns#" xmlns="http://www.w3.org/2000/svg" enable-background="new 0 0 600 600" xml:space="preserve" viewBox="0 0 600 600" version="1.1"><path fill="#FFE703" d="m300.06 50.291c-3.923 0-7.848 1.015-11.363 3.045l-196.83 113.63c-7.032 4.059-11.363 11.562-11.363 19.682v227.27c0 8.117 4.332 15.62 11.363 19.679l196.82 113.64c3.516 2.032 7.44 3.046 11.363 3.046 3.924 0 7.848-1.014 11.365-3.046l196.82-113.64c7.032-4.059 11.363-11.562 11.363-19.679v-227.27c0-8.12-4.331-15.623-11.363-19.682l-196.82-113.63c-3.52-2.034-7.44-3.049-11.36-3.049z"/><path fill="#FBB602" d="m300.06 73.018c-3.566 0-7.135.922-10.331 2.769l-178.93 103.3c-6.394 3.689-10.33 10.51-10.33 17.894v206.61c0 7.382 3.936 14.206 10.33 17.897l178.93 103.3c3.196 1.85 6.765 2.771 10.331 2.771s7.136-.921 10.331-2.771l178.93-103.3c6.393-3.691 10.335-10.516 10.335-17.897v-206.6c0-7.384-3.942-14.205-10.335-17.894l-178.93-103.31c-3.2-1.85-6.77-2.772-10.33-2.772z"/><path fill="#FFE703" d="m172.84 308.14l-72.852 42.12v53.305c0 7.399 3.945 14.24 10.355 17.941l179.36 103.55c3.204 1.854 6.781 2.775 10.356 2.775s7.152-.922 10.357-2.775l179.36-103.55c6.407-3.701 10.36-10.542 10.36-17.941v-53.305l-77.217-42.12h-250.08z"/><path fill="#FBB602" fill-rule="evenodd"  d="m156.11 447.66c15.099-4.07 30.842-14.592 44.335-13.439l242.62 13.979-35.476 20.477c-2.445-.668-4.978-1.202-7.632-1.543-7.574-.969-15.537 2.386-23.438 6.093-10.174 4.762-21.697 9.665-33.141 9.749-9.244.071-15.045-7.713-22.791-11.811-6.866-3.637-13.335-5.314-19.61-5.389-1.3-.008-2.6.04-3.883.15-6.732.593-13.196 2.905-19.523 6.536-7.415 4.252-12.905 10.38-21.886 11.224-4.678.444-9.526-.164-13.241-1.701-10.758-4.46-28.682-18.328-44.25-15.492-2.834.516-4.58 1.29-5.604 2.225l-36.48-21.06zm-55.64-81.97c7.243-.677 16.106.518 28.071 6.931 10.25 5.493 24.461 8.056 36.742 6.159 22.761-3.519 43.881-5.906 66.418-1.154 13.59 2.867 26.693 1.971 37.208-2.618 13.558-5.92 26.438-8.612 41.188-8.206 20.222.56 25.344 12.889 45.55 11.107 10.638-.937 24.977-17.062 48.318-15.305 19.463 1.463 40.853 23.856 57.092 13.02 13.63-9.097 26.059-13.901 38.599-12.508l-.011 34.321c-8.449-1.732-20.812-2.514-31.582 7.23-9.164 8.294-20.884 9.593-34.758 6.097-27.499-6.938-57.231 4.164-86.01.455-17.264-2.229-34.481-14.64-51.497-14.564-10.956.051-19.721 10.33-35.054 9.015-25.357-2.17-49.241-7.172-74.582-4.856-8.43.77-30.101 17.317-43.651 10.334-18.721-9.654-28.35-13.736-42.042-13.071v-32.39z"/><g stroke="#FFE703" fill="#FBB602"><polygon fill-rule="evenodd" points="421.97 307.68 409.13 256.22 416.9 247 416.9 200.41 404.49 187.27 392.58 200.66 392.58 219.3 376.36 219.3 376.36 236.24 347.32 236.24 347.32 219.8 338.44 219.8 338.44 165.98 348.88 155.93 348.88 123.48 328.82 123.48 328.82 137.4 310.6 137.4 310.6 123.48 285.71 123.48 285.71 137.4 267.5 137.4 267.5 123.48 247.43 123.48 247.43 155.93 257.87 165.98 257.87 219.8 248.99 219.8 248.99 236.24 219.95 236.24 219.95 219.3 203.73 219.3 203.73 200.66 191.82 187.27 179.41 200.41 179.41 247 187.18 256.22 174.34 307.68" /><path d="m269.06 256.14v13.324h3.991v-8.914c-1.26-1.68-2.31-3.15-3.99-4.41zm-4.83-2.98v16.305h3.992v-13.993c-1.3-1.07-2.48-1.8-3.99-2.31zm-5.46 16.31h4.623l.04-16.647c-1.471-.627-3.192-1.04-4.663-1.048v17.7zm64.69 31.09v6.726h3.58v-6.726h-3.58zm4.43 6.73h3.988v-6.726h-3.988v6.73zm4.83 0h4.834v-6.726h-4.834v6.73zm-5.68-32.15h-3.58v19.663h3.58v-19.66zm4.84 0h-3.988v19.663h3.988v-19.66zm5.67 19.66v-19.663h-4.834v19.663h4.83zm-10.29-38.78c-1.683 1.26-2.529 2.73-3.791 4.411v9.033h3.791v-13.44zm4.62-2.94c-1.257.629-2.729 1.471-3.781 2.307v14.078h3.781v-16.39zm5.67 16.39v-17.695c-1.683.21-3.365.462-4.834 1.092v16.604h4.83zm0 30.25v-4.206h-1.472v4.206h1.47zm0-25.42v-3.989h-1.472v3.989h1.47zm9.24 32.99v-16.599h-3.99v16.599h3.99zm-4.83 0v-55.674h-3.606v55.674h3.61zm.76-17.41h23.404v-19.993h-23.319l-.08 19.99zm58.28-33.23l-5.796-6.091h-9.754v18.487h26.684c-1.047-4.203-2.1-8.194-3.361-12.396h-7.77zm11.13 13.24h-12.396l-.084 19.993h17.227c-1.68-6.72-3.07-13.27-4.75-19.99zm-3.15-14.16l7.139-8.525h-22.688l7.905 8.525h7.64v.01zm-42.02 34.15h31.845l.092-19.993h-31.937v19.99h.01zm17.65-39.32h-36.977v18.487h36.977v-18.49zm0 56.73v-16.599h-36.977v16.599h36.98zm-86.98-138.24h-39.218v16.695h39.218v-16.69zm.84-.84h39.495v-1.631l-39.495-.086v1.72h.01zm-.84-1.72h-39.218v1.718h39.218v-1.72zm.84-.80h39.705l9.875-9.455h-49.58v9.45h-.01zm-.84-9.46l-49.226-.072 9.663 9.455 39.563.072v-9.46h.01zm12.61-32.35h-24.161v13.865h-19.12v-13.86h-19.118v31.512h100.63v-31.51h-19.326v13.865h-18.908v-13.86h.01zm112.26 184.22h-248.68c4.862-17.119 8.084-34.637 12.913-51.762l-7.729-9.187v-46.902l12.832-13.586 12.571 13.85v18.383h16.222v16.942h27.697v-16.44l9.137-.011v-53.222l-10.439-10.053v-33.039h20.891v13.92h17.391v-13.92h25.709v13.92h17.396v-13.92h20.886v33.039l-10.436 10.053v53.222l8.879.011v16.44h28.216v-16.942h16.009v-18.383l12.519-13.85 12.836 13.586v46.902l-7.729 9.187c4.82 17.12 8.04 34.64 12.9 51.76zm-124.03-122.36h39.495v-16.695h-39.495v16.7h.01zm-40.05 25.74h39.218v-24.79h-39.218v24.79zm40.05 0h39.495v-24.79h-39.495v24.79h.01zm95.01-11.34h22.641l-11.587-12.132-11.05 12.13zm-.68 46.22h23.742v-45.378h-23.74v45.38zm-94.33 0h93.488v-26.681h-15.079v17.018h-30.091v-16.43h-26.261v-.888h17.438v-7.057h-39.495v23.2h8.191v.961h-8.191v9.88h-.01zm-.84-9.87h-8.193v-.961h8.193v-23.2h-39.218v7.057h17.158v.888h-26.261v16.427h-29.62v-17.018h-15.336v26.681h93.277v-9.88zm-94.11 9.87v-45.378h-23.529v45.378h23.53zm-.60-46.22l-11.064-12.236-11.588 12.307 22.65-.07zm-15.41 55.59h7.598l7.985-8.525h-22.777l7.19 8.53zm7.81.92h-7.773c-1.05 4.202-2.102 8.193-3.15 12.396h26.471v-18.487h-9.664l-5.89 6.09zm9.04-9.45l-2.311 2.52h86.975c1.68-.841 3.362-1.26 5.042-1.682l-.161-.838h-89.54zm25.2 42.6v-19.906h-31.966v19.906h31.97zm-45.37-19.91c-1.681 6.725-3.151 13.182-4.832 19.906h17.437v-19.906h-12.61zm-5.04 20.8c-1.262 5.673-2.521 11.131-4.202 16.599h36.554v-16.599h-32.35zm33.19 16.6h36.344v-16.599h-36.34v16.6zm41.18-17.49v-19.906h-23.144v19.906h23.14zm-41.81-39.24v18.487h36.975v-18.487h-36.97zm61.97 56.73h48.949v-6.726h-8.192v-5.758h8.192v-19.663h-8.192v-5.673h2.525c1.049-2.1 1.678-3.362 2.729-5.248-2.729-7.773-9.742-13.894-17.725-15.365l-.844 4.441-.764-.212 1.054-5.881h-6.725l1.052 6.093-.707.05-.841-4.465c-1.682.211-3.285.841-4.966 1.474-6.091 2.941-9.873 7.351-12.604 14.073 1.049 1.89 1.679 2.94 2.52 5.04h2.521v5.673h-7.983v19.663h7.983v5.758h-7.983v6.74h.01zm-24.16-56.73v18.487h3.993v-18.28l4.554.111c8.001.191 13.542 5.143 17.923 12.706 1.891-5.044 6.094-10.292 11.345-13.025h-37.8zm4.8 56.73h3.608v-55.633l-3.608-.086v55.72zm-4.8 0h3.993v-16.599h-3.993v16.6zm167.65-16.6h-31.728v16.599h35.928c-1.47-5.47-2.94-10.93-4.2-16.6zm-144.33 9.87h-3.782v6.726h3.782v-6.73zm-4.62 6.73v-6.726h-3.783v6.726h3.78zm-4.62 0v-6.726h-4.833v6.726h4.83zm-4.83-7.57h1.471v-4.206h-1.471v4.21zm0-4.92h4.833v-19.663h-4.833v19.66zm0-20.5h1.471v-3.989h-1.471v3.99zm15.12-12.82v7.983h4.41c-1.26-2.72-2.73-5.45-4.41-7.98zm-9.45 13.66v19.663h3.783v-19.663h-3.78zm4.62 0v19.663h3.782v-19.663h-3.78zm11.77-4.83h-19.871v3.989h19.871v-3.99zm0 25.21h-19.871v4.206h19.871v-4.21zm34.45-25.21v3.989h19.956v-3.989h-19.96zm0 25.21v4.206h19.956v-4.206h-19.96zm31.51-44.96h-38.024c5.459 2.733 9.667 7.562 11.552 12.813 5.004-8.249 9.787-11.867 18.057-12.565l4.426-.041v18.28h3.99v-18.48h-.01zm-24.16 10.92c-1.893 2.524-3.36 5.254-4.618 7.983h4.618v-7.98zm69.54-14.28h-89.918l-.13.838c1.891.422 3.494.84 4.963 1.682h87.483l-2.39-2.52z"/><path d="m278.62 236.48h11.11v-24.615h-14.199v8.286h3.079l.01 16.33zm39.62 0h-11.795l.013-24.615h14.309l.012 8.286h-2.538v16.33h.01zm-42.71-60.6h14.199v23.114h-14.199v-23.11zm31.06 0h14.195v23.114h-14.195v-23.11h.01zm-118.48 30.7h7.142v21.641h-7.142v-21.64zm212.96 0h7.142v21.641h-7.142v-21.64z" fill-rule="evenodd" /><path d="m286.6 307.71v-35.464c0-13.301 21.919-15.011 23.039-.578v36.042l7.396-.012v-7.216h-2.542v-5.605h2.542v-19.804h-2.542v-5.552h2.497c-1.045-10.554-8.931-15.682-16.476-16.4-.673-.063-1.351-.094-2.012-.092-.968.007-1.927.078-2.859.205-7.677 1.083-14.052 6.546-16.483 16.288h2.472v5.55h-2.549v19.781h2.543v5.639h-2.543v7.22h7.51v-.01z" fill-rule="evenodd" /></g><path d="m149.68 369.77l25.191 10.672c.01 2.158-.265 4.235 3.01 6.006 4.733 2.558 15.826 8.712 23.571 15.359 3.432 32.682 25.686 58.13 70.657 74.844 17.959-15.018 37.482-15.727 56.315 0 18.174-5.789 37.936-12.301 53.323-23.962l41.717.041c-.79-15.846-6.425-24.252-14.263-29.265 6.893-9.51 9.893-19.699 9.69-31.282h14.296v-8.619l-8.732-7.445h-34.067l-7.272 7.445v8.619h9.186c-60.304 49.75-112.72 32.764-163.42-2.259l-.006-.009c-6.165-5.008-13.188-11.946-17.134-18.652l-62.07-7.943v6.45z" fill-rule="evenodd" stroke="#EBCD1A"  fill="#FBB602"/><path d="m273.54 430.66c2.55 0 4.625 2.073 4.625 4.623 0 2.547-2.076 4.629-4.625 4.629-2.547 0-4.625-2.082-4.625-4.629 0-2.54 2.08-4.62 4.62-4.62z" fill-rule="evenodd" stroke="#EBCD1A"  fill="#FBB602"/><path fill="#FFE703" d="m273.54 430.14h.007c1.414 0 2.704.585 3.631 1.511.928.935 1.504 2.21 1.51 3.621v.023c-.002 1.415-.582 2.704-1.514 3.631h-.001c-.928.928-2.208 1.506-3.617 1.511h-.026c-1.414-.005-2.7-.583-3.632-1.517-.926-.927-1.501-2.21-1.505-3.614v-.027c.003-1.418.58-2.7 1.515-3.633.928-.921 2.208-1.504 3.617-1.506zm.01 1.04h-.023c-1.125.004-2.145.468-2.883 1.202-.742.739-1.203 1.766-1.206 2.894v.027c.006 1.121.464 2.143 1.203 2.877.741.743 1.766 1.21 2.892 1.21h.026c1.12-.006 2.141-.467 2.883-1.202h-.002c.742-.742 1.208-1.769 1.208-2.896v-.023c-.002-1.121-.466-2.147-1.202-2.887-.74-.73-1.76-1.18-2.89-1.19z"/><path d="m251.15 436.3c2.548 0 4.625 2.077 4.625 4.628 0 2.548-2.077 4.628-4.625 4.628-2.549 0-4.627-2.08-4.627-4.628-.01-2.56 2.07-4.63 4.62-4.63z" fill-rule="evenodd" stroke="#EBCD1A"  fill="#FBB602"/><path fill="#FFE703" d="m251.15 435.77h.008c1.413 0 2.699.586 3.63 1.517.928.931 1.506 2.209 1.508 3.617v.024c0 1.415-.582 2.702-1.51 3.632h-.002c-.929.928-2.212 1.504-3.618 1.509h-.023c-1.415-.005-2.704-.581-3.634-1.516-.925-.927-1.502-2.21-1.507-3.618v-.022c.001-1.414.582-2.7 1.514-3.633.928-.924 2.207-1.504 3.617-1.51h.01v-.01zm.01 1.05h-.025c-1.123 0-2.143.465-2.882 1.199-.742.737-1.203 1.766-1.205 2.895v.022c.003 1.122.464 2.146 1.203 2.881.742.744 1.766 1.211 2.894 1.211h.023c1.121-.008 2.142-.467 2.882-1.205.74-.74 1.202-1.768 1.204-2.894v-.024c-.004-1.12-.464-2.148-1.201-2.886-.73-.72-1.75-1.19-2.88-1.19z"/><path d="m257.33 452.31c2.549 0 4.625 2.076 4.625 4.629 0 2.54-2.077 4.628-4.625 4.628-2.547 0-4.624-2.088-4.624-4.628-.02-2.55 2.06-4.63 4.61-4.63z" fill-rule="evenodd" stroke="#EBCD1A" fill="#FBB602"/><path fill="#FFE703" d="m257.33 451.79h.009c1.413.004 2.701.582 3.631 1.516.925.928 1.504 2.207 1.508 3.614v.028c0 1.411-.583 2.703-1.51 3.633h-.003c-.929.925-2.211 1.502-3.617 1.505h-.025c-1.415-.003-2.701-.58-3.633-1.516-.925-.926-1.502-2.211-1.507-3.617v-.019c.002-1.42.582-2.709 1.513-3.637.93-.926 2.211-1.503 3.62-1.508h.02v.02zm.01 1.04h-.025c-1.123 0-2.146.468-2.883 1.202-.741.739-1.203 1.763-1.204 2.897v.019c.004 1.122.464 2.144 1.201 2.883.74.745 1.765 1.207 2.894 1.207h.025c1.12-.005 2.141-.462 2.88-1.201h-.001c.743-.745 1.206-1.77 1.208-2.894v-.028c-.002-1.12-.464-2.14-1.202-2.883-.75-.74-1.78-1.21-2.9-1.21z"/><path d="m281.97 448.42c2.55 0 4.627 2.071 4.627 4.622s-2.078 4.629-4.627 4.629c-2.547 0-4.625-2.078-4.625-4.629s2.08-4.62 4.63-4.62z" fill-rule="evenodd" stroke="#EBCD1A" fill="#FBB602"/><path fill="#FFE703" d="m281.97 447.9h.008c1.415 0 2.702.581 3.633 1.513.926.933 1.505 2.211 1.508 3.617v.024c-.002 1.421-.583 2.705-1.513 3.634h-.004c-.928.93-2.209 1.506-3.616 1.506h-.024c-1.412 0-2.701-.578-3.631-1.511-.928-.932-1.505-2.208-1.508-3.614v-.027c0-1.417.58-2.702 1.515-3.637.927-.923 2.206-1.504 3.616-1.504h.01v-.01zm.01 1.04h-.023c-1.122.002-2.144.461-2.883 1.195-.74.743-1.202 1.769-1.203 2.899v.027c.003 1.112.465 2.141 1.2 2.878.74.74 1.766 1.201 2.894 1.202h.024c1.121-.004 2.141-.461 2.882-1.201h-.001c.743-.738 1.206-1.767 1.208-2.894v-.024c-.004-1.12-.464-2.146-1.202-2.88-.76-.75-1.79-1.21-2.91-1.21z"/><path d="m299.61 436.4c2.546 0 4.627 2.078 4.627 4.624 0 2.556-2.081 4.629-4.627 4.629-2.547 0-4.624-2.073-4.624-4.629 0-2.54 2.07-4.62 4.62-4.62z" fill-rule="evenodd" stroke="#EBCD1A"  stroke-miterlimit="10" fill="#FBB602"/><path fill="#FFE703" d="m299.61 435.88h.009c1.414 0 2.705.573 3.632 1.511.928.927 1.504 2.205 1.511 3.617v.018c-.007 1.42-.583 2.704-1.511 3.639h-.007c-.928.929-2.212 1.505-3.618 1.507h-.023c-1.412 0-2.7-.584-3.632-1.514-.925-.929-1.501-2.212-1.509-3.617v-.027c.006-1.417.584-2.695 1.517-3.632.926-.928 2.207-1.501 3.618-1.501h.02v-.01zm.01 1.04h-.023c-1.125.008-2.142.464-2.883 1.199-.74.741-1.204 1.77-1.204 2.894v.027c0 1.12.464 2.145 1.201 2.884.739.74 1.764 1.203 2.892 1.203h.023c1.121-.007 2.143-.463 2.878-1.2v-.003c.747-.739 1.209-1.764 1.209-2.898v-.018c0-1.121-.462-2.147-1.2-2.883-.75-.74-1.78-1.19-2.91-1.2z"/><path d="m327.94 434.78c2.544 0 4.627 2.075 4.627 4.626 0 2.545-2.083 4.625-4.627 4.625-2.548 0-4.63-2.08-4.63-4.625 0-2.57 2.09-4.64 4.63-4.64z" fill-rule="evenodd" stroke="#EBCD1A"  stroke-miterlimit="10" fill="#FBB602"/><path fill="#FFE703" d="m327.94 434.26h.008c1.412 0 2.705.579 3.632 1.511.923.933 1.501 2.209 1.512 3.619v.028c-.011 1.413-.589 2.699-1.52 3.633-.927.927-2.212 1.503-3.617 1.503h-.022c-1.413 0-2.705-.582-3.633-1.512-.927-.926-1.505-2.211-1.512-3.617v-.027c.007-1.418.585-2.701 1.519-3.636.928-.923 2.204-1.498 3.615-1.502h.02v.01zm.01 1.04h-.026c-1.123.006-2.143.468-2.886 1.201-.736.738-1.199 1.77-1.199 2.894v.027c0 1.119.463 2.145 1.199 2.882.738.744 1.763 1.203 2.896 1.206h.022c1.124-.009 2.143-.462 2.879-1.199v-.003c.746-.741 1.208-1.767 1.208-2.893v-.028c0-1.116-.462-2.147-1.202-2.883-.74-.75-1.78-1.21-2.9-1.21z"/><path d="m350.33 442.56c2.548 0 4.621 2.082 4.621 4.625 0 2.555-2.073 4.628-4.621 4.628-2.553 0-4.624-2.073-4.624-4.628-.01-2.54 2.07-4.62 4.62-4.62z" fill-rule="evenodd" stroke="#EBCD1A"  stroke-miterlimit="10" fill="#FBB602"/><path fill="#FFE703" d="m350.33 442.04h.01c1.415.005 2.698.581 3.63 1.517.929.928 1.506 2.21 1.506 3.617v.021c0 1.42-.587 2.708-1.511 3.638-.927.927-2.21 1.503-3.619 1.506h-.021c-1.421 0-2.705-.584-3.64-1.514-.919-.932-1.497-2.209-1.503-3.623v-.022c0-1.413.584-2.695 1.513-3.63.925-.929 2.209-1.505 3.613-1.51h.03v-.01zm.01 1.04h-.031c-1.117.002-2.142.462-2.879 1.197-.744.748-1.202 1.772-1.202 2.895v.022c0 1.13.468 2.148 1.202 2.889.737.736 1.762 1.202 2.896 1.206h.021c1.116-.004 2.144-.464 2.879-1.206.745-.74 1.201-1.77 1.213-2.896v-.021c-.012-1.121-.468-2.141-1.213-2.882-.75-.74-1.78-1.21-2.9-1.21z"/><path d="m317.66 450.6c2.552 0 4.624 2.071 4.624 4.622 0 2.552-2.072 4.629-4.624 4.629-2.543 0-4.618-2.077-4.618-4.629 0-2.54 2.08-4.62 4.62-4.62z" fill-rule="evenodd" stroke="#EBCD1A"  stroke-miterlimit="10" fill="#FBB602"/><path fill="#FFE703" d="m317.66 450.08h.008c1.413 0 2.703.579 3.638 1.513.921.931 1.498 2.21 1.504 3.615v.026c0 1.415-.583 2.706-1.509 3.636-.936.929-2.211 1.503-3.619 1.503h-.031c-1.411 0-2.694-.576-3.629-1.513-.93-.923-1.505-2.211-1.505-3.617v-.025c0-1.415.575-2.698 1.513-3.633.927-.926 2.21-1.503 3.616-1.505h.01zm.01 1.04h-.023c-1.126.005-2.144.462-2.879 1.199-.745.743-1.203 1.767-1.207 2.894v.025c.004 1.119.462 2.147 1.196 2.884.746.743 1.771 1.203 2.895 1.207h.031c1.117-.008 2.135-.464 2.882-1.2v-.005c.737-.738 1.2-1.767 1.2-2.895v-.026c0-1.117-.463-2.141-1.2-2.882-.72-.72-1.75-1.18-2.88-1.19z"/><path d="m344.06 457.95c2.547 0 4.625 2.076 4.625 4.627 0 2.544-2.078 4.624-4.625 4.624-2.545 0-4.626-2.08-4.626-4.624.01-2.55 2.09-4.63 4.63-4.63z" fill-rule="evenodd" stroke="#EBCD1A"  stroke-miterlimit="10" fill="#FBB602"/><path fill="#FFE703" d="m344.06 457.42h.009c1.41.004 2.704.586 3.629 1.52.928.926 1.506 2.204 1.514 3.618v.022c-.008 1.414-.586 2.708-1.522 3.635-.926.924-2.21 1.502-3.614 1.511h-.023c-1.413-.009-2.708-.587-3.634-1.52-.925-.928-1.5-2.212-1.509-3.617v-.025c.009-1.411.584-2.704 1.518-3.631.927-.927 2.205-1.504 3.619-1.513h.01v-.01zm.01 1.05h-.023c-1.124 0-2.146.467-2.887 1.204-.741.738-1.202 1.762-1.202 2.894v.025c0 1.122.461 2.141 1.202 2.878.738.748 1.763 1.209 2.893 1.209h.023c1.126-.005 2.145-.461 2.88-1.202.743-.744 1.208-1.769 1.208-2.894v-.022c0-1.126-.465-2.146-1.2-2.888-.74-.72-1.78-1.19-2.9-1.19z"/><path d="m352.15 446.48l15.921 30.347-2.791 1.324-16.228-29.597c-1.55-2.77 2.04-4.08 3.1-2.07zm-5.97 15.53l8.701 19.034c-1.008.319-2.133.641-3.31.913l-8.693-18.225c-1.23-2.92 2.47-3.84 3.3-1.71zm-16.42-23.44l13.077 44.908c-.95.118-1.921.171-2.926.186l-13.655-43.816c-.84-3.07 2.94-3.48 3.5-1.28zm-10.14 16.69l1.7 16.177-3.677-2.15-1.682-13.249c-.39-3.17 3.42-3.05 3.66-.78zm-18.07-13.97l-.569 23.416-3.3.129.155-23.255c.02-3.19 3.77-2.57 3.71-.29zm-17.79 12.24l-2.671 16.854c-1.177.635-2.561 1.545-3.917 2.452l2.866-19.545c.46-3.14 4.08-1.99 3.72.25zm-8.47-17.59l-10.741 46.308c-1.162.282-2.394.508-3.502.582l10.539-47.318c.63-3.12 4.18-1.81 3.7.43zm-16.62 22.37l-11.305 27.006c-.968-.436-1.937-.925-2.907-1.452l10.646-26.64c1.18-2.96 4.46-1.01 3.57 1.08zm-6.19-16.23l-24.251 32.555-2.712-1.267 23.591-32.887c1.58-2.75 4.54-.34 3.37 1.6z" fill-rule="evenodd" stroke="#FFE703"  stroke-miterlimit="10" fill="#FBB602"/><path fill="#FFE703" d="m383.29 452.17l39.625.038c-.433-7.576-2.004-13.395-4.398-17.93-2.347-4.45-5.509-7.665-9.175-10.093-.062.071-.118.153-.178.233-.027.05-.059.083-.093.122-3.773 5.19-7.816 10.198-12.16 14.928-4.24 4.59-8.76 8.88-13.62 12.7zm25.87-27.75c-.027.039-.059.083-.093.122l.09-.12zm14.31 28.83l-41.541-.044c-7.703 5.811-16.479 10.342-25.594 14.144-9.153 3.818-18.582 6.854-28.019 9.887-11.602-9.696-25.664-14.713-40.461-9.362-5.589 2.022-10.68 5.25-15.236 9.038l-.003-.004-.396.334c-18.845-7.058-37.531-16.705-51.396-31.673-11.643-12.562-18.103-27.131-19.863-43.503-3.817-3.257-8.439-6.392-12.694-9.028-4.307-2.676-8.261-4.856-10.628-6.133-2.736-1.479-3.296-3.312-3.286-6.148-8.423-3.487-16.8-7.085-25.191-10.646l-.011-7.385 62.822 8.052c3.12 5.306 7.483 9.954 11.955 14.135.89.829 1.779 1.633 2.652 2.391h.001c3.732 3.247 8.195 6.017 12.523 8.964 6.4 4.358 13.351 8.085 20.54 11.727 15.281 7.732 31.976 12.953 47.393 14.322 26.513 2.364 54.206-5.561 83.813-29.611h-8.255v-9.142l.144-.362 7.432-7.604h34.491l9.055 7.729v9.379h-14.289c.043 5.644-.663 10.967-2.218 16.044-1.551 5.08-3.944 9.915-7.264 14.577 3.79 2.516 7.058 5.853 9.497 10.46 2.521 4.78 4.148 10.911 4.54 18.92l.03.545h-.53v-.01zm-27.02-14.83c4.429-4.815 8.501-9.96 12.329-15.255 3.414-4.707 5.858-9.576 7.432-14.716 1.516-4.974 2.218-10.197 2.174-15.739h-4.645c-8.081 22.601-24.155 40.05-44.024 51.698-49.288 28.914-122.79 21.833-153.86-31.126-2.434-4.157-4.82-7.946-7.267-11.471-2.393-3.458-4.84-6.647-7.444-9.678l-25.751-10.9c0 2.248.646 3.631 2.736 4.758 2.366 1.278 6.327 3.458 10.682 6.163 4.333 2.689 9.533 5.811 13.146 9.427 6.868 8.923 10.263 16.495 13.27 23.195 3.261 7.278 6.059 13.518 12.383 19.296 14.766 13.497 34.492 20.603 53.479 25.754l-1.387.75c-18.83-5.163-38.155-12.346-52.8-25.735-6.476-5.92-9.316-12.254-12.627-19.638-2.822-6.293-5.991-13.364-12.085-21.585 1.981 15.466 8.304 29.273 19.399 41.248 11.508 12.424 28.16 22.887 50.423 31.198 2.507-2.081 5.051-3.892 7.627-5.417 2.592-1.534 5.22-2.79 7.858-3.745 13.49-4.877 27.453-2.081 41.045 9.169 8.993-2.867 18.376-5.917 27.393-9.677.629-.27 1.269-.533 1.908-.81-11.352 3.37-23.658 5.316-35.371 6.074l-1.627-.997c14.732-.562 30.858-3.419 44.512-8.562 11.61-5.09 22.57-14.39 31.08-23.65zm16.18-45.71h-6.794c-16.612 39.162-64.579 55.572-104.24 54.108l-.176-.012c-21.781-.837-43.466-9.193-63.97-25.87-8.539-6.946-16.291-14.856-23.337-23.304l-.016-.02-10.838-4.587c2.139 2.588 4.183 5.301 6.188 8.192 2.455 3.541 4.856 7.353 7.309 11.533 30.767 52.462 103.63 59.385 152.44 30.758 19.56-11.47 35.41-28.62 43.44-50.8zm-7.93 0h-4.075c-14.759 14.721-27.074 25.434-42.057 32.37-15.026 6.954-32.707 10.096-58.183 9.646-18.969-.337-38.277-6.152-56.799-18.603-7.713-5.181-14.855-11.222-21.395-17.815-.59.664-1.176 1.323-1.76 1.986h-.002c-1.401-.596-2.806-1.188-4.207-1.78 6.65 7.819 13.916 15.135 21.884 21.613 20.318 16.529 41.793 24.804 63.348 25.636l.177.007c39.1 1.43 86.48-14.63 103.08-53.08zm-5.55 0h-2.328c-17.714 13.719-30.429 23.002-44.054 28.943-13.658 5.958-28.191 8.548-49.516 8.873-21.61.327-41.935-7.155-59.261-19.281-6.803-4.759-13.155-10.225-18.904-16.215-.735.823-1.468 1.667-2.2 2.498 6.484 6.563 13.619 12.578 21.282 17.729 18.343 12.329 37.457 18.086 56.233 18.421 25.312.448 42.855-2.659 57.73-9.544 14.6-6.76 26.67-17.17 41.02-31.42zm-4.03 0h-2.637c-30.21 24.881-58.474 33.066-85.541 30.661-26.946-2.404-52.683-15.548-77.984-32.974-1.15 1.317-2.21 2.746-3.178 3.847 20.162 20.967 47.75 35.69 77.455 35.233 21.185-.318 35.602-2.887 49.116-8.778 13.23-5.78 25.65-14.77 42.76-27.99zm-4.52-16.06l-6.236 6.385 47.409.013-7.504-6.397h-33.67zm-6.96 7.42v7.588h8.669v-.005c13.453 0 26.906.005 40.364.005v-7.573l-49.03-.02zm-162.46 13.79l7.05-8.036c-.731-.601-1.569-1.111-2.298-1.748l-4.644 5.335-.11 4.46zm-9.76-26.11l-59.503-7.618 68.708 28.445 4.524-5.14c-5.16-4.59-10.17-9.74-13.73-15.69zm-61.22-7.2v4.884l69.962 29.573.074-5.46-70.03-28.99z"/><path fill="#FBB602" fill-rule="evenodd"  d="m330.66 338.03l38.455 22.491c-4.92 1.767-9.988 4.234-13.979 7.688-12.68 10.979-10.769 27.531 4.82 49.69-7.242-2.396-13.432-4.856-19.655-9.107-12.922-8.823-22.951-23.262-26.407-49.697 3.5-7.95 8.31-15.31 16.77-21.06z"/><path fill="#FFE703" d="m330.93 337.58l38.46 22.488.961.565-1.055.376c-2.447.877-4.915 1.926-7.271 3.179-2.34 1.254-4.572 2.713-6.54 4.41-6.19 5.368-8.677 12.21-7.705 20.423.981 8.306 5.199 17.572 12.939 28.58l-1.259.737c-3.64-1.207-6.215-2.033-9.619-3.6-3.41-1.574-6.692-3.378-9.83-5.518-6.52-4.455-12.315-10.335-16.915-18.422-4.585-8.07-7.972-18.354-9.714-31.641l.036-.278c1.765-4.012 3.862-7.88 6.578-11.462 2.738-3.6 6.096-6.92 10.371-9.826l.274-.185.28.16zm36.97 22.83l-37.211-21.767c-4.056 2.799-7.252 5.972-9.858 9.407-2.645 3.483-4.687 7.232-6.403 11.119 1.724 13.071 5.065 23.184 9.568 31.114 4.515 7.937 10.197 13.703 16.594 18.067 3.094 2.112 6.329 3.896 9.687 5.436 2.896 1.334 5.889 2.5 8.965 3.563-7.286-10.622-11.541-20.059-12.505-28.205-1.011-8.57 1.588-15.721 8.063-21.334 2.025-1.756 4.327-3.257 6.734-4.544 2.08-1.11 4.24-2.05 6.37-2.86z"/><path d="m244.79 400.48l-.212 10.33-2.653-1.879.044-10.19c.88.56 1.92 1.18 2.82 1.74z" fill-rule="evenodd" stroke="#EBCD1A"  stroke-miterlimit="10" fill="#FBB602"/><path fill="#FFE703" d="m245.32 400.49l-.21 10.332-.022.987-.804-.569-2.651-1.881-.222-.155v-.273l.043-10.19.007-.971.807.539c.726.463 1.406.876 2.056 1.276v-.009c.27.168.531.328.749.457l.255.158-.02.29zm-1.24 9.32l.184-9.04c-.166-.101-.33-.207-.487-.296-.436-.269-.879-.536-1.285-.788l-.042 8.975 1.64 1.15z"/><path d="m244.47 365.42l.223 25.236c-1.124-1.974-2.236-4.161-2.892-6.097l.003-14.266c.66-1.69 1.56-3.32 2.67-4.87z" fill-rule="evenodd" stroke="#EBCD1A"  stroke-miterlimit="10" fill="#FBB602"/><path fill="#FFE703" d="m244.99 365.41l.224 25.234-.977.264c-.571-.999-1.139-2.055-1.64-3.093-.506-1.051-.958-2.104-1.293-3.09l-.028-.17.003-14.266.039-.196.007-.016h.001c.101-.253.196-.497.294-.72.108-.25.218-.489.325-.716h.001c.577-1.212 1.279-2.394 2.096-3.531l.95.32zm-.84 23.16l-.189-21.448c-.395.644-.755 1.297-1.071 1.964v.005c-.112.231-.218.463-.311.678-.093.216-.18.426-.253.617l-.005 14.081c.315.923.739 1.904 1.218 2.896.20.41.40.81.61 1.21z"/><polygon fill-rule="evenodd" stroke="#EBCD1A" points="241.8 326.16 244.47 326.16 244.47 334.05 241.8 331.96"  stroke-miterlimit="10" fill="#FBB602"/><path fill="#FFE703" d="m241.8 325.64h3.189v9.479l-.844-.66-2.662-2.087-.204-.156v-6.576h.51zm2.15 1.04h-1.619v5.026l1.619 1.266v-6.3z"/><path d="m302.68 410.63l.281 19.312-5.895-.111.326-22.379c0-.002.006.001.009.001h.006c0 .01.007.01.007.01 1.74 1.1 3.47 2.16 5.26 3.17z" fill-rule="evenodd" stroke="#EBCD1A"  stroke-miterlimit="10" fill="#FBB602"/><path fill="#FFE703" d="m303.48 429.94l.017.539-.543-.014-5.892-.11-.524-.012.006-.516.342-23.209c2.184 1.089 4.192 2.505 6.311 3.71l.27 19.61zm-1.05-.53l-.167-18.917c-1.438-.822-2.923-1.673-4.324-2.544l-.341 21.369 4.83.09z"/><polygon fill-rule="evenodd" stroke="#EBCD1A" points="301.04 296.09 301.18 308.1 298.63 306.66 298.79 295.99"  stroke-miterlimit="10" fill="#FBB602"/><path fill="#FFE703" d="m301.86 309.01l-4.104-2.263.167-11.484 3.775.304.16 13.44zm-1.07-1.82l-.128-10.569-1.707-.313-.144 9.846 1.98 1.03z"/><path d="m342.87 337.15c2.31 1.354 5.011-.266 2.833-3.343l-71.679-41.371c-2.794-1.376-3.709 2.01-2.757 2.568l71.61 42.14z" fill-rule="evenodd" stroke="#EBCD1A"  stroke-miterlimit="10" fill="#FBB602"/><path fill="#FFE703" d="m343.14 336.7c.707.412 1.883.669 2.535.001.61-.627.269-2.152-.331-2.499l-71.573-41.314c-.788-.378-1.369-.293-1.738-.009-.153.12-.28.28-.377.449-.098.176-.167.37-.202.556v.002c-.056.325-.03.602.084.668l71.6 42.14zm2.1 1.37c-.784.186-1.742.047-2.628-.477l-71.611-42.145c-.51-.3-.706-1.013-.578-1.747.049-.295.16-.603.315-.887.164-.285.378-.552.65-.763.669-.512 1.63-.697 2.865-.088l.033.015 71.676 41.371c.829.515 1.155 1.91 1.046 2.829-.065.504-.272.924-.592 1.247-.32.34-.73.55-1.19.66z"/><polygon fill-rule="evenodd" stroke="#EBCD1A" points="351.32 335.67 351.32 345.73 353.84 347.2 353.38 335.69"  stroke-miterlimit="10" fill="#FBB602"/><path fill="#FFE703" d="m351.85 336.2v9.234l1.427.838-.395-10.062-1.03-.01zm-1.04 9.53v-10.586l.522.002 2.062.021.491.004.022.496.448 11.508.039.95-.821-.479-2.507-1.467-.258-.151v-.29h.01z"/><path d="m351.32 414.87l.167 6.688 4.385-1.892-.184-3.025c-1.48-.56-2.94-1.14-4.38-1.77z" fill-rule="evenodd" stroke="#EBCD1A"  stroke-miterlimit="10" fill="#FBB602"/><path fill="#FFE703" d="m351.87 415.67l.13 5.101 3.325-1.441-.135-2.325c-.639-.24-1.271-.49-1.893-.74-.45-.19-.93-.38-1.42-.59zm-.89 5.89l-.169-6.683-.022-.821.749.327c.679.297 1.4.602 2.159.901.73.299 1.461.587 2.184.861l.317.117.024.336.182 3.029.014.308-.332.205-4.378 1.889-.714.309-.01-.80z"/><path fill="#FBB602" fill-rule="evenodd"  d="m351.32 372.29v30.33c1.17 2.568 2.568 5.222 4.192 7.96l-1.186-41.647c-1.13 1.07-2.12 2.19-3 3.36z"/><path fill="#FFE703" d="m351.85 372.47v30.042c.57 1.243 1.188 2.501 1.863 3.775.385.746.795 1.496 1.229 2.254l-1.092-38.392c-.253.253-.496.51-.731.771-.46.52-.88 1.04-1.27 1.56zm-1.04 30.15v-30.33l.101-.306c.446-.61.927-1.198 1.427-1.761.51-.562 1.058-1.123 1.643-1.672l.843-.788.034 1.153 1.187 41.654-.972.277c-.812-1.369-1.571-2.729-2.276-4.073-.706-1.338-1.355-2.654-1.938-3.939l-.04-.21z"/><path fill="#FBB602" fill-rule="evenodd"  d="m352.13 329.92c1.419 0 2.575 1.154 2.575 2.57s-1.156 2.568-2.575 2.568c-1.413 0-2.57-1.152-2.57-2.568s1.17-2.57 2.58-2.57z"/><path fill="#FFE703" fill-rule="evenodd"  d="m352.13 328.94c1.958 0 3.557 1.591 3.557 3.547 0 1.955-1.599 3.552-3.557 3.552-1.955 0-3.548-1.597-3.548-3.552 0-1.95 1.6-3.55 3.55-3.55zm0 .98c1.419 0 2.575 1.154 2.575 2.569 0 1.417-1.156 2.569-2.575 2.569-1.413 0-2.57-1.152-2.57-2.569.01-1.41 1.17-2.57 2.58-2.57z"/><path d="m300.02 290.55c1.418 0 2.573 1.153 2.573 2.571 0 1.414-1.155 2.57-2.573 2.57-1.416 0-2.572-1.156-2.572-2.57 0-1.42 1.15-2.57 2.57-2.57z" fill-rule="evenodd" stroke="#EBCD1A"  stroke-miterlimit="10" fill="#FBB602"/><path fill="#FFE703" fill-rule="evenodd"  d="m300.02 289.56c1.957 0 3.553 1.598 3.553 3.553s-1.596 3.55-3.553 3.55c-1.955 0-3.551-1.595-3.551-3.55s1.59-3.55 3.55-3.55zm0 .99c1.418 0 2.573 1.153 2.573 2.569s-1.155 2.572-2.573 2.572c-1.416 0-2.572-1.156-2.572-2.572 0-1.42 1.15-2.57 2.57-2.57z"/><path fill="#FBB602" fill-rule="evenodd"  d="m243.15 320.71c1.416 0 2.572 1.153 2.572 2.571 0 1.412-1.156 2.572-2.572 2.572-1.414 0-2.569-1.16-2.569-2.572 0-1.41 1.16-2.57 2.57-2.57z"/><path fill="#FFE703" fill-rule="evenodd"  d="m243.15 319.73c1.953 0 3.55 1.594 3.55 3.551 0 1.955-1.597 3.551-3.55 3.551-1.958 0-3.553-1.596-3.553-3.551 0-1.95 1.6-3.55 3.55-3.55zm0 .98c1.416 0 2.572 1.153 2.572 2.571 0 1.412-1.156 2.572-2.572 2.572-1.414 0-2.569-1.16-2.569-2.572 0-1.41 1.16-2.57 2.57-2.57z"/><path fill="#FBB602" fill-rule="evenodd"  d="m344.53 333.61c1.04 0 1.885.847 1.885 1.886s-.845 1.889-1.885 1.889c-1.043 0-1.892-.85-1.892-1.889s.83-1.89 1.88-1.89z"/><path fill="#FFE703" fill-rule="evenodd"  d="m344.53 332.89c1.437 0 2.606 1.172 2.606 2.605 0 1.438-1.17 2.606-2.606 2.606-1.434 0-2.604-1.168-2.604-2.606-.01-1.44 1.16-2.61 2.6-2.61zm0 .72c1.04 0 1.885.847 1.885 1.886s-.845 1.889-1.885 1.889c-1.043 0-1.892-.85-1.892-1.889s.83-1.89 1.88-1.89z"/><path fill="#FBB602" fill-rule="evenodd"  d="m273.7 296.46l63.588 37.38c-28.542 14.418-50.195 67.726 8.713 89.476-59.98-3.6-122.78-71.54-72.3-126.86z"/><path fill="#FFE703" d="m273.96 296.01l63.588 37.377.82.487-.849.43c-10.806 5.455-20.613 16.548-25.344 29.37-1.97 5.337-3.064 10.977-2.979 16.631.085 5.643 1.343 11.307 4.073 16.697 5.117 10.146 15.794 19.548 33.258 25.996l-.561.836c-22.913-1.368-46.237-12.086-63.554-27.884-8.747-7.984-15.969-17.268-20.837-27.306-4.879-10.055-7.402-20.868-6.745-31.89.814-13.585 6.459-27.478 18.478-40.648l.286-.315.35.21zm62.26 37.8l-62.412-36.688c-11.646 12.884-17.129 26.443-17.921 39.695-.65 10.84 1.834 21.476 6.639 31.372 4.808 9.915 11.949 19.092 20.6 26.986 16.256 14.834 37.848 25.138 59.361 27.331-15.732-6.472-25.246-15.334-30.146-25.037-2.803-5.539-4.094-11.358-4.184-17.152-.086-5.784 1.031-11.548 3.046-17.003 4.68-12.74 14.31-23.8 25.01-29.51z"/><path d="m220.2 320.56l44.468 35.123c2.318.771 4.537.67 3.696-2.946l-44.513-34.792c-2.68-1.89-5.44 1.02-3.66 2.62z" fill-rule="evenodd" stroke="#EBCD1A"  stroke-miterlimit="10" fill="#FBB602"/><path fill="#FFE703" d="m220.53 320.16l44.391 35.06c.806.425 2.37.781 3.001-.394v-.003c.133-.396.222-1.142-.031-1.786l-44.351-34.669c-.873-.618-1.745-.625-2.387-.328-.243.116-.458.276-.627.467h-.004c-.157.178-.272.379-.328.585-.09.34 0 .74.34 1.06zm43.81 35.93l-44.463-35.121-.027-.02c-.691-.624-.856-1.407-.658-2.132.097-.363.292-.71.558-1.009v-.003c.254-.282.587-.532.968-.708.946-.444 2.206-.45 3.436.422l.018.015 44.516 34.794c.467.732.501 2.003.229 2.82h.003c-.231.712-.794 1.197-1.516 1.364-.90.21-2.27 0-3.07-.42z"/><path d="m221.96 321.95c-30.096 28.003-19.676 59.089 44.79 89.97-28.068-18.684-33.167-38.733-17.389-51.646 3.276-2.682 7.434-4.988 12.45-6.82l-39.85-31.5z" fill-rule="evenodd" stroke="#EBCD1A"  stroke-miterlimit="10" fill="#FBB602"/><path fill="#FFE703" d="m221.99 322.64c-5.603 5.268-9.762 10.641-12.373 16.098-3.145 6.562-4.055 13.246-2.575 20.016 1.488 6.794 5.217 13.934 11.686 20.889 8.974 9.645 23.07 19.157 42.352 28.911-5.346-4.03-9.661-8.104-12.952-12.12-4.507-5.509-7.119-10.948-7.884-16.098-.768-5.189.331-10.082 3.246-14.462 1.421-2.136 3.273-4.146 5.542-6l.01-.014c.456-.369.939-.742 1.45-1.117v-.003c.484-.354 1.004-.711 1.553-1.068h.002c2.523-1.649 5.436-3.116 8.721-4.377l-38.78-30.66zm-13.32 15.64c2.721-5.676 7.064-11.258 12.932-16.717l.33-.306.347.277 39.853 31.5.733.579-.879.322c-3.565 1.305-6.694 2.849-9.373 4.597l.001.003c-.502.332-1.008.679-1.506 1.043v-.004c-.474.348-.944.711-1.405 1.088l-.012.014c-2.195 1.795-3.975 3.724-5.336 5.769-2.767 4.158-3.812 8.805-3.08 13.729.736 4.962 3.274 10.229 7.66 15.589 4.274 5.22 10.291 10.519 18.1 15.719l-.405.697c-22.486-10.771-38.591-21.098-48.549-31.801-6.602-7.099-10.533-14.436-12.059-21.408-1.52-7-.59-13.91 2.66-20.69z"/><path fill="#FBB602" fill-rule="evenodd"  d="m266.56 352.18c1.16 0 2.102.947 2.102 2.103s-.942 2.102-2.102 2.102c-1.157 0-2.1-.945-2.1-2.102 0-1.15.95-2.1 2.1-2.1z"/><path fill="#FFE703" fill-rule="evenodd"  d="m266.57 351.38c1.598 0 2.901 1.3 2.901 2.904 0 1.594-1.303 2.896-2.901 2.896s-2.901-1.302-2.901-2.896c-.01-1.6 1.3-2.9 2.9-2.9zm-.01.80c1.156 0 2.102.947 2.102 2.101 0 1.158-.945 2.104-2.102 2.104s-2.099-.945-2.099-2.104c.01-1.15.95-2.1 2.1-2.1z"/><path fill="#FFE703" d="m312.58 362.21l38.411 59.522-.88.561-38.412-59.517.88-.56zm-62.76-2.19l37.502 68.585-.911.493-37.508-68.579.92-.49zm25.32 66.56l-29.028-63.491.947-.432 29.029 63.495-.95.42zm-30.18-61.35l22.292 57.675-.972.37-22.292-57.669.97-.37zm66.24.49l30.77 59.398-.926.479-30.677-59.13.84-.75zm-1.32 5.69l23.748 55.772-.962.405-23.562-55.472.77-.70zm45.06-37.49l35.848 41.877-.811.652-35.455-41.288.42-1.24zm-.84 1.38l29.451 47.989-.886.555-29.448-47.986.89-.55zm2.6 31.87l17.86 41.647-.958.409-17.859-41.648.96-.41zm-1.06.88l13.961 44.013-.997.321-13.636-42.977 10.197 45.293-1.022.233-10.322-45.886.966-.219-.146-.464 1-.30z"/><path d="m330.66 338.03l38.455 22.488 4.149 2.656c1.801.18 2.818-.343 2.127-2.41l-3.782-2.492c-16.988-10.623-35.341-21.764-36.898-22.622l-4.06 2.37z" fill-rule="evenodd" stroke="#EBCD1A"  stroke-miterlimit="10" fill="#FBB602"/><path fill="#FFE703" d="m331.69 338.03l37.691 22.043.012.01 4.045 2.592c.689.057 1.211-.004 1.464-.241.22-.205.258-.621.055-1.328l-3.64-2.393-.119-.078v-.002c-2.578-1.611-4.964-3.096-7.159-4.457-2.377-1.473-4.734-2.931-7.021-4.337-11.06-6.823-20.397-12.475-22.312-13.585l-3.02 1.79zm37.14 22.92l-38.44-22.476-.76-.447.76-.45 4.051-2.382.26-.149.257.143c1.117.619 10.895 6.537 22.609 13.755 2.286 1.408 4.641 2.866 7.018 4.34 2.562 1.588 4.985 3.099 7.17 4.458v.001l.124.083.006.006 3.793 2.492.214.272c.417 1.253.274 2.082-.272 2.594-.523.481-1.371.603-2.411.5l-.235-.081-4.142-2.656v.01h-.01z"/><path fill="#FBB602" fill-rule="evenodd"  d="m374.3 360.42c.851 0 1.543.692 1.543 1.541 0 .852-.692 1.543-1.543 1.543-.85 0-1.542-.691-1.542-1.543 0-.85.70-1.54 1.54-1.54z"/><path fill="#FFE703" fill-rule="evenodd"  d="m374.3 359.84c1.179 0 2.135.954 2.135 2.129 0 1.172-.956 2.129-2.135 2.129-1.17 0-2.124-.957-2.124-2.129 0-1.18.96-2.13 2.12-2.13zm0 .58c.851 0 1.543.692 1.543 1.541 0 .85-.692 1.543-1.543 1.543-.85 0-1.542-.693-1.542-1.543s.70-1.54 1.54-1.54z"/><g opacity=".85" fill="#231F20"><path d="m226.08 222.19h33.636v115.91c0 5.605-.759 11.136-2.272 16.59-1.517 5.453-3.903 10.38-7.16 14.772-3.26 4.397-7.539 7.952-12.842 10.683-5.304 2.728-11.743 4.091-19.318 4.091-4.85 0-10.038-.495-15.567-1.478-5.534-.986-10.417-2.389-14.66-4.206l7.273-26.816c4.393 1.97 9.239 2.954 14.545 2.954 3.484 0 6.286-.644 8.409-1.932 2.121-1.286 3.787-3.105 5-5.457 1.211-2.344 2.007-5.111 2.386-8.293.377-3.184.568-6.591.568-10.226v-106.57z"/><path d="m365.17 337.64c0-4.694-1.97-8.41-5.908-11.135-3.94-2.729-8.828-5.229-14.659-7.502-5.835-2.273-12.159-4.546-18.978-6.818-6.817-2.272-13.146-5.301-18.978-9.09-5.833-3.786-10.72-8.56-14.659-14.319-3.942-5.754-5.909-13.257-5.909-22.498 0-7.877 1.399-14.809 4.205-20.796 2.802-5.983 6.74-10.909 11.818-14.773 5.075-3.864 11.21-6.778 18.408-8.748 7.195-1.969 15.115-2.957 23.75-2.957 9.999 0 19.509.875 28.524 2.614 9.013 1.745 16.397 4.204 22.157 7.387l-10.68 28.183c-1.82-1.058-4.133-2.159-6.935-3.296-2.804-1.136-6.022-2.12-9.657-2.954-3.636-.833-7.502-1.513-11.59-2.046-4.093-.529-8.262-.795-12.5-.795-7.578 0-13.45 1.328-17.615 3.979-4.168 2.652-6.249 6.327-6.249 11.021 0 4.698 1.966 8.447 5.908 11.251 3.938 2.805 8.825 5.38 14.659 7.726 5.83 2.353 12.162 4.698 18.978 7.047 6.818 2.351 13.143 5.38 18.978 9.09 5.83 3.716 10.716 8.374 14.658 13.977 3.939 5.61 5.909 12.807 5.909 21.592 0 8.787-1.516 16.363-4.545 22.728-3.034 6.365-7.313 11.629-12.838 15.795-5.537 4.17-12.162 7.237-19.888 9.203-7.728 1.969-16.216 2.956-25.459 2.956-6.212 0-12.082-.341-17.612-1.021-5.53-.683-10.646-1.516-15.34-2.502-4.698-.983-8.828-2.045-12.386-3.181-3.562-1.138-6.402-2.235-8.524-3.297l11.138-28.409c1.665.911 3.978 1.896 6.932 2.954 2.952 1.065 6.249 2.084 9.886 3.071 3.638.985 7.536 1.782 11.703 2.385 4.169.606 8.373.907 12.615.907 10 0 17.612-1.436 22.84-4.316 5.24-2.87 7.85-7.34 7.85-13.41z"/></g></svg>
