<?xml version="1.0" encoding="utf-8"?>
<!-- Generator: Adobe Illustrator 16.0.0, SVG Export Plug-In . SVG Version: 6.00 Build 0)  -->
<!DOCTYPE svg PUBLIC "-//W3C//DTD SVG 1.1//EN" "http://www.w3.org/Graphics/SVG/1.1/DTD/svg11.dtd">
<svg version="1.1" id="Layer_1" xmlns="http://www.w3.org/2000/svg" xmlns:xlink="http://www.w3.org/1999/xlink" x="0px" y="0px"
	 width="600px" height="600px" viewBox="0 0 600 600" enable-background="new 0 0 600 600" xml:space="preserve">
<g>
	<path fill="#FFE703" d="M300.058,50.291c-3.923,0-7.848,1.015-11.363,3.045L91.87,166.973
		c-7.032,4.059-11.363,11.562-11.363,19.682v227.274c0,8.117,4.332,15.62,11.363,19.679l196.824,113.638
		c3.516,2.032,7.44,3.046,11.363,3.046c3.924,0,7.848-1.014,11.365-3.046l196.822-113.638c7.032-4.059,11.363-11.562,11.363-19.679
		V186.654c0-8.12-4.331-15.623-11.363-19.682L311.423,53.336C307.905,51.306,303.981,50.291,300.058,50.291L300.058,50.291z"/>
</g>
<g>
	<path fill="#FBB602" d="M300.058,73.018c-3.566,0-7.135,0.922-10.331,2.769L110.796,179.093c-6.394,3.689-10.33,10.51-10.33,17.894
		v206.607c0,7.382,3.936,14.206,10.33,17.897l178.931,103.302c3.196,1.85,6.765,2.771,10.331,2.771s7.136-0.921,10.331-2.771
		l178.929-103.302c6.393-3.691,10.335-10.516,10.335-17.897V196.987c0-7.384-3.942-14.205-10.335-17.894L310.389,75.787
		C307.193,73.94,303.624,73.018,300.058,73.018L300.058,73.018z"/>
</g>
<g>
	<path fill="#FFE703" d="M172.837,308.135l-72.852,42.12v53.305c0,7.399,3.945,14.24,10.355,17.941l179.361,103.55
		c3.204,1.854,6.781,2.775,10.356,2.775s7.152-0.922,10.357-2.775l179.357-103.55c6.407-3.701,10.36-10.542,10.36-17.941v-53.305
		l-77.217-42.12H172.837z"/>
</g>
<path fill-rule="evenodd" clip-rule="evenodd" fill="#FBB602" d="M156.106,447.656c15.099-4.07,30.842-14.592,44.335-13.439
	l242.622,13.979l-35.476,20.477c-2.445-0.668-4.978-1.202-7.632-1.543c-7.574-0.969-15.537,2.386-23.438,6.093
	c-10.174,4.762-21.697,9.665-33.141,9.749c-9.244,0.071-15.045-7.713-22.791-11.811c-6.866-3.637-13.335-5.314-19.61-5.389
	c-1.3-0.008-2.6,0.04-3.883,0.15c-6.732,0.593-13.196,2.905-19.523,6.536c-7.415,4.252-12.905,10.38-21.886,11.224
	c-4.678,0.444-9.526-0.164-13.241-1.701c-10.758-4.46-28.682-18.328-44.25-15.492c-2.834,0.516-4.58,1.29-5.604,2.225
	L156.106,447.656z M100.466,365.686c7.243-0.677,16.106,0.518,28.071,6.931c10.25,5.493,24.461,8.056,36.742,6.159
	c22.761-3.519,43.881-5.906,66.418-1.154c13.59,2.867,26.693,1.971,37.208-2.618c13.558-5.92,26.438-8.612,41.188-8.206
	c20.222,0.56,25.344,12.889,45.55,11.107c10.638-0.937,24.977-17.062,48.318-15.305c19.463,1.463,40.853,23.856,57.092,13.02
	c13.63-9.097,26.059-13.901,38.599-12.508l-0.011,34.321c-8.449-1.732-20.812-2.514-31.582,7.23
	c-9.164,8.294-20.884,9.593-34.758,6.097c-27.499-6.938-57.231,4.164-86.01,0.455c-17.264-2.229-34.481-14.64-51.497-14.564
	c-10.956,0.051-19.721,10.33-35.054,9.015c-25.357-2.17-49.241-7.172-74.582-4.856c-8.43,0.77-30.101,17.317-43.651,10.334
	c-18.721-9.654-28.35-13.736-42.042-13.071V365.686z"/>
<g>
	<polygon fill-rule="evenodd" clip-rule="evenodd" fill="#FBB602" stroke="#FFE703" stroke-miterlimit="10" points="
		421.966,307.679 409.134,256.223 416.899,246.998 416.899,200.41 404.488,187.269 392.583,200.665 392.583,219.305 
		376.364,219.305 376.364,236.243 347.321,236.243 347.321,219.803 338.44,219.797 338.44,165.984 348.881,155.931 348.881,123.481 
		328.817,123.481 328.817,137.402 310.598,137.402 310.598,123.481 285.714,123.481 285.714,137.402 267.497,137.402 
		267.497,123.481 247.434,123.481 247.434,155.931 257.873,165.984 257.873,219.797 248.992,219.803 248.992,236.243 
		219.952,236.243 219.952,219.305 203.731,219.305 203.731,200.665 191.824,187.269 179.413,200.41 179.413,246.998 
		187.181,256.223 174.345,307.679 421.966,307.679 	"/>
	<path fill="#FBB602" stroke="#FFE703" stroke-miterlimit="10" d="M269.061,256.144v13.324h3.991v-8.914
		C271.792,258.873,270.742,257.404,269.061,256.144L269.061,256.144z M264.229,253.163v16.305h3.992v-13.993
		C266.915,254.4,265.744,253.668,264.229,253.163L264.229,253.163z M258.767,269.468h4.623l0.04-16.647
		c-1.471-0.627-3.192-1.04-4.663-1.048V269.468L258.767,269.468z M323.465,300.562v6.726h3.58v-6.726H323.465L323.465,300.562z
		 M327.887,307.287h3.988v-6.726h-3.988V307.287L327.887,307.287z M332.715,307.287h4.834v-6.726h-4.834V307.287L332.715,307.287z
		 M327.045,275.141h-3.58v19.663h3.58V275.141L327.045,275.141z M331.875,275.141h-3.988v19.663h3.988V275.141L331.875,275.141z
		 M337.549,294.803v-19.663h-4.834v19.663H337.549L337.549,294.803z M327.256,256.023c-1.683,1.26-2.529,2.73-3.791,4.411v9.033
		h3.791V256.023L327.256,256.023z M331.875,253.083c-1.257,0.629-2.729,1.471-3.781,2.307v14.078h3.781V253.083L331.875,253.083z
		 M337.549,269.468v-17.695c-1.683,0.21-3.365,0.462-4.834,1.092v16.604H337.549L337.549,269.468z M337.549,299.724v-4.206h-1.472
		v4.206H337.549L337.549,299.724z M337.549,274.301v-3.989h-1.472v3.989H337.549L337.549,274.301z M346.792,307.287v-16.599h-3.99
		v16.599H346.792L346.792,307.287z M341.959,307.287v-55.674h-3.606c0,18.698,0,37.186,0,55.674H341.959L341.959,307.287z
		 M342.717,289.882h23.404v-19.993h-23.319L342.717,289.882L342.717,289.882z M400.995,256.653l-5.796-6.091h-9.754v18.487h26.684
		c-1.047-4.203-2.1-8.194-3.361-12.396H400.995L400.995,256.653z M412.129,269.889h-12.396l-0.084,19.993h17.227
		C415.197,283.163,413.812,276.614,412.129,269.889L412.129,269.889z M408.979,255.728l7.139-8.525h-22.688l7.905,8.525H408.979
		L408.979,255.728z M366.962,289.882h31.845l0.092-19.993h-31.937V289.882L366.962,289.882z M384.611,250.562h-36.977v18.487h36.977
		V250.562L384.611,250.562z M384.611,307.287v-16.599h-36.977v16.599H384.611L384.611,307.287z M297.633,169.048h-39.218v16.695
		h39.218V169.048L297.633,169.048z M298.474,168.208h39.495v-1.631l-39.495-0.086V168.208L298.474,168.208z M297.633,166.49h-39.218
		v1.718h39.218V166.49L297.633,166.49z M298.474,165.687h39.705l9.875-9.455h-49.58V165.687L298.474,165.687z M297.633,156.232
		l-49.226-0.072l9.663,9.455l39.563,0.072V156.232L297.633,156.232z M310.238,123.88h-24.161v13.865H266.96V123.88h-19.118v31.512
		c33.404,0,67.019,0,100.63,0V123.88h-19.326v13.865h-18.908V123.88L310.238,123.88z M422.5,308.095c-82.896,0-165.79,0-248.682,0
		c4.862-17.119,8.084-34.637,12.913-51.762l-7.729-9.187v-46.902l12.832-13.586l12.571,13.85v18.383h16.222v16.942h27.697v-16.44
		l9.137-0.011c0-17.739,0-35.482,0-53.222l-10.439-10.053v-33.039h20.891v13.92h17.391v-13.92h25.709v13.92h17.396v-13.92h20.886
		v33.039l-10.436,10.053c0,17.74,0,35.482,0,53.222l8.879,0.011v16.44h28.216v-16.942h16.009v-18.383l12.519-13.85l12.836,13.586
		v46.902l-7.729,9.187C414.415,273.458,417.636,290.976,422.5,308.095L422.5,308.095z M298.474,185.744h39.495v-16.695h-39.495
		V185.744L298.474,185.744z M258.415,211.485h39.218v-24.79h-39.218V211.485L258.415,211.485z M298.474,211.485h39.495v-24.79
		h-39.495V211.485L298.474,211.485z M393.478,200.142h22.641l-11.587-12.132L393.478,200.142L393.478,200.142z M392.8,246.359
		h23.742v-45.378H392.8V246.359L392.8,246.359z M298.474,246.359c31.091,0,62.392,0,93.488,0v-26.681h-15.079v17.018h-30.091V220.27
		c-8.613,0-17.432,0-26.261,0v-0.888h17.438v-7.057h-39.495v23.2h8.191v0.961h-8.191V246.359L298.474,246.359z M297.633,236.486
		h-8.193v-0.961h8.193v-23.2h-39.218v7.057h17.158v0.888c-8.613,0-17.437,0-26.261,0v16.427h-29.62v-17.018h-15.336v26.681h93.277
		V236.486L297.633,236.486z M203.516,246.359v-45.378h-23.529v45.378H203.516L203.516,246.359z M202.92,200.142l-11.064-12.236
		l-11.588,12.307L202.92,200.142L202.92,200.142z M187.513,255.728h7.598l7.985-8.525h-22.777L187.513,255.728L187.513,255.728z
		 M195.321,256.653h-7.773c-1.05,4.202-2.102,8.193-3.15,12.396h26.471v-18.487h-9.664L195.321,256.653L195.321,256.653z
		 M204.356,247.202l-2.311,2.52h86.975c1.68-0.841,3.362-1.26,5.042-1.682l-0.161-0.838H204.356L204.356,247.202z M229.565,289.795
		v-19.906h-31.966v19.906H229.565L229.565,289.795z M184.187,269.889c-1.681,6.725-3.151,13.182-4.832,19.906h17.437v-19.906
		H184.187L184.187,269.889z M179.146,290.688c-1.262,5.673-2.521,11.131-4.202,16.599h36.554v-16.599H179.146L179.146,290.688z
		 M212.34,307.287h36.344v-16.599H212.34V307.287L212.34,307.287z M253.516,289.795v-19.906h-23.144v19.906H253.516L253.516,289.795
		z M211.708,250.562v18.487h36.975v-18.487H211.708L211.708,250.562z M273.683,307.287h48.949v-6.726h-8.192v-5.758h8.192v-19.663
		h-8.192v-5.673h2.525c1.049-2.1,1.678-3.362,2.729-5.248c-2.729-7.773-9.742-13.894-17.725-15.365l-0.844,4.441l-0.764-0.212
		l1.054-5.881h-6.725l1.052,6.093l-0.707,0.05l-0.841-4.465c-1.682,0.211-3.285,0.841-4.966,1.474
		c-6.091,2.941-9.873,7.351-12.604,14.073c1.049,1.89,1.679,2.94,2.52,5.04c0.421,0,2.521,0,2.521,0v5.673h-7.983v19.663h7.983
		v5.758h-7.983V307.287L273.683,307.287z M249.522,250.562v18.487h3.993v-18.28l4.554,0.111c8.001,0.191,13.542,5.143,17.923,12.706
		c1.891-5.044,6.094-10.292,11.345-13.025H249.522L249.522,250.562z M254.317,307.287h3.608c0-18.488,0-36.936,0-55.633
		l-3.608-0.086V307.287L254.317,307.287z M249.522,307.287h3.993v-16.599h-3.993V307.287L249.522,307.287z M417.173,290.688h-31.728
		v16.599h35.928C419.904,301.819,418.434,296.361,417.173,290.688L417.173,290.688z M272.843,300.562h-3.782v6.726h3.782V300.562
		L272.843,300.562z M268.222,307.287v-6.726h-3.783v6.726H268.222L268.222,307.287z M263.599,307.287v-6.726h-4.833v6.726H263.599
		L263.599,307.287z M258.767,299.724h1.471v-4.206h-1.471V299.724L258.767,299.724z M258.767,294.803h4.833v-19.663h-4.833V294.803
		L258.767,294.803z M258.767,274.301h1.471v-3.989h-1.471V274.301L258.767,274.301z M273.894,261.484v7.983h4.41
		C277.045,266.738,275.573,264.008,273.894,261.484L273.894,261.484z M264.439,275.141v19.663h3.783v-19.663H264.439
		L264.439,275.141z M269.061,275.141v19.663h3.782v-19.663H269.061L269.061,275.141z M280.826,270.312c-6.512,0-13.147,0-19.871,0
		v3.989c6.723,0,13.358,0,19.871,0V270.312L280.826,270.312z M280.826,295.518c-6.512,0-13.147,0-19.871,0v4.206
		c6.723,0,13.358,0,19.871,0V295.518L280.826,295.518z M315.284,270.312v3.989c6.716,0,13.231,0,19.956,0v-3.989
		C328.516,270.312,322,270.312,315.284,270.312L315.284,270.312z M315.284,295.518v4.206c6.716,0,13.231,0,19.956,0v-4.206H315.284
		L315.284,295.518z M346.792,250.562h-38.024c5.459,2.733,9.667,7.562,11.552,12.813c5.004-8.249,9.787-11.867,18.057-12.565
		l4.426-0.041v18.28h3.99V250.562L346.792,250.562z M322.632,261.484c-1.893,2.524-3.36,5.254-4.618,7.983h4.618V261.484
		L322.632,261.484z M392.172,247.202h-89.918l-0.13,0.838c1.891,0.422,3.494,0.84,4.963,1.682h87.483L392.172,247.202
		L392.172,247.202z"/>
	<path fill-rule="evenodd" clip-rule="evenodd" fill="#FBB602" stroke="#FFE703" stroke-miterlimit="10" d="M278.622,236.482h11.11
		v-24.615h-14.199v8.286h3.079L278.622,236.482L278.622,236.482z M318.243,236.482h-11.795l0.013-24.615h14.309l0.012,8.286h-2.538
		V236.482L318.243,236.482z M275.533,175.876h14.199v23.114h-14.199V175.876L275.533,175.876z M306.586,175.876h14.195v23.114
		h-14.195V175.876L306.586,175.876z M188.107,206.583h7.142v21.641h-7.142V206.583L188.107,206.583z M401.068,206.583h7.142v21.641
		h-7.142V206.583L401.068,206.583z"/>
	<path fill-rule="evenodd" clip-rule="evenodd" fill="#FBB602" stroke="#FFE703" stroke-miterlimit="10" d="M286.597,307.713
		v-35.464c0-13.301,21.919-15.011,23.039-0.578v36.042l7.396-0.012v-7.216h-2.542v-5.605h2.542v-19.804h-2.542v-5.552h2.497
		c-1.045-10.554-8.931-15.682-16.476-16.4c-0.673-0.063-1.351-0.094-2.012-0.092c-0.968,0.007-1.927,0.078-2.859,0.205
		c-7.677,1.083-14.052,6.546-16.483,16.288h2.472v5.55h-2.549v19.781h2.543v5.639h-2.543v7.22H286.597L286.597,307.713z"/>
</g>
<path fill-rule="evenodd" clip-rule="evenodd" fill="#FBB602" stroke="#EBCD1A" stroke-miterlimit="10" d="M149.682,369.771
	l25.191,10.672c0.01,2.158-0.265,4.235,3.01,6.006c4.733,2.558,15.826,8.712,23.571,15.359c3.432,32.682,25.686,58.13,70.657,74.844
	c17.959-15.018,37.482-15.727,56.315,0c18.174-5.789,37.936-12.301,53.323-23.962l41.717,0.041
	c-0.79-15.846-6.425-24.252-14.263-29.265c6.893-9.51,9.893-19.699,9.69-31.282h14.296v-8.619l-8.732-7.445h-34.067l-7.272,7.445
	v8.619h9.186c-60.304,49.75-112.717,32.764-163.424-2.259l-0.006-0.009c-6.165-5.008-13.188-11.946-17.134-18.652l-62.07-7.943
	L149.682,369.771L149.682,369.771z"/>
<path fill-rule="evenodd" clip-rule="evenodd" fill="#FBB602" stroke="#EBCD1A" stroke-miterlimit="10" d="M273.542,430.663
	c2.55,0,4.625,2.073,4.625,4.623c0,2.547-2.076,4.629-4.625,4.629c-2.547,0-4.625-2.082-4.625-4.629
	C268.917,432.736,270.995,430.663,273.542,430.663L273.542,430.663z"/>
<path fill="#FFE703" d="M273.542,430.139h0.007c1.414,0,2.704,0.585,3.631,1.511c0.928,0.935,1.504,2.21,1.51,3.621v0.016v0.007
	c-0.002,1.415-0.582,2.704-1.514,3.631h-0.001c-0.928,0.928-2.208,1.506-3.617,1.511h-0.016h-0.01
	c-1.414-0.005-2.7-0.583-3.632-1.517c-0.926-0.927-1.501-2.21-1.505-3.614v-0.018v-0.009c0.003-1.418,0.58-2.7,1.515-3.633
	c0.928-0.921,2.208-1.504,3.617-1.506H273.542L273.542,430.139z M273.549,431.182h-0.007h-0.016
	c-1.125,0.004-2.145,0.468-2.883,1.202c-0.742,0.739-1.203,1.766-1.206,2.894v0.009v0.018c0.006,1.121,0.464,2.143,1.203,2.877
	c0.741,0.743,1.766,1.21,2.892,1.21h0.01h0.016c1.12-0.006,2.141-0.467,2.883-1.202h-0.002c0.742-0.742,1.208-1.769,1.208-2.896
	v-0.007v-0.016c-0.002-1.121-0.466-2.147-1.202-2.887C275.704,431.645,274.677,431.186,273.549,431.182L273.549,431.182z"/>
<path fill-rule="evenodd" clip-rule="evenodd" fill="#FBB602" stroke="#EBCD1A" stroke-miterlimit="10" d="M251.151,436.296
	c2.548,0,4.625,2.077,4.625,4.628c0,2.548-2.077,4.628-4.625,4.628c-2.549,0-4.627-2.08-4.627-4.628
	C246.524,438.373,248.602,436.296,251.151,436.296L251.151,436.296z"/>
<path fill="#FFE703" d="M251.151,435.773h0.008c1.413,0,2.699,0.586,3.63,1.517c0.928,0.931,1.506,2.209,1.508,3.617v0.017v0.007
	c0,1.415-0.582,2.702-1.51,3.632h-0.002c-0.929,0.928-2.212,1.504-3.618,1.509h-0.015h-0.008c-1.415-0.005-2.704-0.581-3.634-1.516
	c-0.925-0.927-1.502-2.21-1.507-3.618v-0.014v-0.008c0.001-1.414,0.582-2.7,1.514-3.633c0.928-0.924,2.207-1.504,3.617-1.51H251.151
	L251.151,435.773z M251.159,436.822h-0.008h-0.017c-1.123,0-2.143,0.465-2.882,1.199c-0.742,0.737-1.203,1.766-1.205,2.895v0.008
	v0.014c0.003,1.122,0.464,2.146,1.203,2.881c0.742,0.744,1.766,1.211,2.894,1.211h0.008h0.015c1.121-0.008,2.142-0.467,2.882-1.205
	l0,0c0.74-0.74,1.202-1.768,1.204-2.894v-0.007v-0.017c-0.004-1.12-0.464-2.148-1.201-2.886
	C253.313,437.287,252.288,436.822,251.159,436.822L251.159,436.822z"/>
<path fill-rule="evenodd" clip-rule="evenodd" fill="#FBB602" stroke="#EBCD1A" stroke-miterlimit="10" d="M257.328,452.312
	c2.549,0,4.625,2.076,4.625,4.629c0,2.54-2.077,4.628-4.625,4.628c-2.547,0-4.624-2.088-4.624-4.628
	C252.704,454.388,254.781,452.312,257.328,452.312L257.328,452.312z"/>
<path fill="#FFE703" d="M257.328,451.789h0.009c1.413,0.004,2.701,0.582,3.631,1.516c0.925,0.928,1.504,2.207,1.508,3.614v0.021
	v0.007c0,1.411-0.583,2.703-1.51,3.633h-0.003c-0.929,0.925-2.211,1.502-3.617,1.505h-0.017h-0.008
	c-1.415-0.003-2.701-0.58-3.633-1.516c-0.925-0.926-1.502-2.211-1.507-3.617v-0.012v-0.007c0.002-1.42,0.582-2.709,1.513-3.637
	c0.93-0.926,2.211-1.503,3.62-1.508H257.328L257.328,451.789z M257.337,452.834h-0.009h-0.016c-1.123,0-2.146,0.468-2.883,1.202
	c-0.741,0.739-1.203,1.763-1.204,2.897v0.007v0.012c0.004,1.122,0.464,2.144,1.201,2.883c0.74,0.745,1.765,1.207,2.894,1.207h0.008
	h0.017c1.12-0.005,2.141-0.462,2.88-1.201h-0.001c0.743-0.745,1.206-1.77,1.208-2.894v-0.007v-0.021
	c-0.002-1.12-0.464-2.14-1.202-2.883C259.491,453.302,258.464,452.834,257.337,452.834L257.337,452.834z"/>
<path fill-rule="evenodd" clip-rule="evenodd" fill="#FBB602" stroke="#EBCD1A" stroke-miterlimit="10" d="M281.97,448.423
	c2.55,0,4.627,2.071,4.627,4.622s-2.078,4.629-4.627,4.629c-2.547,0-4.625-2.078-4.625-4.629S279.422,448.423,281.97,448.423
	L281.97,448.423z"/>
<path fill="#FFE703" d="M281.97,447.898h0.008c1.415,0,2.702,0.581,3.633,1.513c0.926,0.933,1.505,2.211,1.508,3.617v0.017v0.007
	c-0.002,1.421-0.583,2.705-1.513,3.634h-0.004c-0.928,0.93-2.209,1.506-3.616,1.506h-0.017h-0.007c-1.412,0-2.701-0.578-3.631-1.511
	c-0.928-0.932-1.505-2.208-1.508-3.614v-0.021v-0.006c0-1.417,0.58-2.702,1.515-3.637c0.927-0.923,2.206-1.504,3.616-1.504H281.97
	L281.97,447.898z M281.978,448.944h-0.008h-0.015c-1.122,0.002-2.144,0.461-2.883,1.195c-0.74,0.743-1.202,1.769-1.203,2.899v0.006
	v0.021c0.003,1.112,0.465,2.141,1.2,2.878c0.74,0.74,1.766,1.201,2.894,1.202h0.007h0.017c1.121-0.004,2.141-0.461,2.882-1.201
	h-0.001c0.743-0.738,1.206-1.767,1.208-2.894v-0.007v-0.017c-0.004-1.12-0.464-2.146-1.202-2.88
	C284.133,449.402,283.105,448.944,281.978,448.944L281.978,448.944z"/>
<path fill-rule="evenodd" clip-rule="evenodd" fill="#FBB602" stroke="#EBCD1A" stroke-miterlimit="10" d="M299.611,436.397
	c2.546,0,4.627,2.078,4.627,4.624c0,2.556-2.081,4.629-4.627,4.629c-2.547,0-4.624-2.073-4.624-4.629
	C294.987,438.476,297.063,436.397,299.611,436.397L299.611,436.397z"/>
<path fill="#FFE703" d="M299.611,435.883h0.009c1.414,0,2.705,0.573,3.632,1.511c0.928,0.927,1.504,2.205,1.511,3.617v0.011v0.007
	c-0.007,1.42-0.583,2.704-1.511,3.639h-0.007c-0.928,0.929-2.212,1.505-3.618,1.507h-0.016h-0.007c-1.412,0-2.7-0.584-3.632-1.514
	c-0.925-0.929-1.501-2.212-1.509-3.617v-0.021v-0.006c0.006-1.417,0.584-2.695,1.517-3.632c0.926-0.928,2.207-1.501,3.618-1.501
	H299.611L299.611,435.883z M299.62,436.923h-0.009h-0.014c-1.125,0.008-2.142,0.464-2.883,1.199c-0.74,0.741-1.204,1.77-1.204,2.894
	v0.006v0.021c0,1.12,0.464,2.145,1.201,2.884c0.739,0.74,1.764,1.203,2.892,1.203h0.007h0.016c1.121-0.007,2.143-0.463,2.878-1.2
	v-0.003c0.747-0.739,1.209-1.764,1.209-2.898v-0.007v-0.011c0-1.121-0.462-2.147-1.2-2.883
	C301.776,437.384,300.748,436.926,299.62,436.923L299.62,436.923z"/>
<path fill-rule="evenodd" clip-rule="evenodd" fill="#FBB602" stroke="#EBCD1A" stroke-miterlimit="10" d="M327.942,434.776
	c2.544,0,4.627,2.075,4.627,4.626c0,2.545-2.083,4.625-4.627,4.625c-2.548,0-4.63-2.08-4.63-4.625
	C323.312,436.852,325.395,434.776,327.942,434.776L327.942,434.776z"/>
<path fill="#FFE703" d="M327.942,434.255h0.008c1.412,0,2.705,0.579,3.632,1.511c0.923,0.933,1.501,2.209,1.512,3.619v0.018v0.01
	c-0.011,1.413-0.589,2.699-1.52,3.633l0,0c-0.927,0.927-2.212,1.503-3.617,1.503h-0.015h-0.007c-1.413,0-2.705-0.582-3.633-1.512
	c-0.927-0.926-1.505-2.211-1.512-3.617v-0.017v-0.01c0.007-1.418,0.585-2.701,1.519-3.636c0.928-0.923,2.204-1.498,3.615-1.502
	H327.942L327.942,434.255z M327.95,435.298h-0.008h-0.018c-1.123,0.006-2.143,0.468-2.886,1.201
	c-0.736,0.738-1.199,1.77-1.199,2.894v0.01v0.017c0,1.119,0.463,2.145,1.199,2.882c0.738,0.744,1.763,1.203,2.896,1.206h0.007h0.015
	c1.124-0.009,2.143-0.462,2.879-1.199v-0.003c0.746-0.741,1.208-1.767,1.208-2.893v-0.01v-0.018c0-1.116-0.462-2.147-1.202-2.883
	C330.107,435.764,329.071,435.304,327.95,435.298L327.95,435.298z"/>
<path fill-rule="evenodd" clip-rule="evenodd" fill="#FBB602" stroke="#EBCD1A" stroke-miterlimit="10" d="M350.328,442.558
	c2.548,0,4.621,2.082,4.621,4.625c0,2.555-2.073,4.628-4.621,4.628c-2.553,0-4.624-2.073-4.624-4.628
	C345.704,444.64,347.775,442.558,350.328,442.558L350.328,442.558z"/>
<path fill="#FFE703" d="M350.328,442.036h0.01c1.415,0.005,2.698,0.581,3.63,1.517c0.929,0.928,1.506,2.21,1.506,3.617v0.013v0.008
	c0,1.42-0.587,2.708-1.511,3.638l0,0c-0.927,0.927-2.21,1.503-3.619,1.506h-0.016h-0.005c-1.421,0-2.705-0.584-3.64-1.514
	c-0.919-0.932-1.497-2.209-1.503-3.623v-0.015v-0.007c0-1.413,0.584-2.695,1.513-3.63c0.925-0.929,2.209-1.505,3.613-1.51H350.328
	L350.328,442.036z M350.338,443.084h-0.01h-0.021c-1.117,0.002-2.142,0.462-2.879,1.197c-0.744,0.748-1.202,1.772-1.202,2.895v0.007
	v0.015c0,1.13,0.468,2.148,1.202,2.889c0.737,0.736,1.762,1.202,2.896,1.206h0.005h0.016c1.116-0.004,2.144-0.464,2.879-1.206l0,0
	c0.745-0.74,1.201-1.77,1.213-2.896v-0.008v-0.013c-0.012-1.121-0.468-2.141-1.213-2.882
	C352.487,443.546,351.46,443.084,350.338,443.084L350.338,443.084z"/>
<path fill-rule="evenodd" clip-rule="evenodd" fill="#FBB602" stroke="#EBCD1A" stroke-miterlimit="10" d="M317.663,450.604
	c2.552,0,4.624,2.071,4.624,4.622c0,2.552-2.072,4.629-4.624,4.629c-2.543,0-4.618-2.077-4.618-4.629
	C313.045,452.676,315.12,450.604,317.663,450.604L317.663,450.604z"/>
<path fill="#FFE703" d="M317.663,450.079h0.008c1.413,0,2.703,0.579,3.638,1.513c0.921,0.931,1.498,2.21,1.504,3.615v0.02v0.006
	c0,1.415-0.583,2.706-1.509,3.636l0,0c-0.936,0.929-2.211,1.503-3.619,1.503h-0.021h-0.01c-1.411,0-2.694-0.576-3.629-1.513
	c-0.93-0.923-1.505-2.211-1.505-3.617v-0.015v-0.01c0-1.415,0.575-2.698,1.513-3.633c0.927-0.926,2.21-1.503,3.616-1.505H317.663
	L317.663,450.079z M317.671,451.124h-0.008h-0.015c-1.126,0.005-2.144,0.462-2.879,1.199c-0.745,0.743-1.203,1.767-1.207,2.894v0.01
	v0.015c0.004,1.119,0.462,2.147,1.196,2.884c0.746,0.743,1.771,1.203,2.895,1.207h0.01h0.021c1.117-0.008,2.135-0.464,2.882-1.2
	v-0.005c0.737-0.738,1.2-1.767,1.2-2.895v-0.006v-0.02c0-1.117-0.463-2.141-1.2-2.882
	C319.829,451.586,318.802,451.129,317.671,451.124L317.671,451.124z"/>
<path fill-rule="evenodd" clip-rule="evenodd" fill="#FBB602" stroke="#EBCD1A" stroke-miterlimit="10" d="M344.062,457.95
	c2.547,0,4.625,2.076,4.625,4.627c0,2.544-2.078,4.624-4.625,4.624c-2.545,0-4.626-2.08-4.626-4.624
	C339.437,460.026,341.518,457.95,344.062,457.95L344.062,457.95z"/>
<path fill="#FFE703" d="M344.062,457.424h0.009c1.41,0.004,2.704,0.586,3.629,1.52c0.928,0.926,1.506,2.204,1.514,3.618v0.016v0.006
	c-0.008,1.414-0.586,2.708-1.522,3.635l0,0c-0.926,0.924-2.21,1.502-3.614,1.511h-0.015h-0.008c-1.413-0.009-2.708-0.587-3.634-1.52
	c-0.925-0.928-1.5-2.212-1.509-3.617v-0.015v-0.01c0.009-1.411,0.584-2.704,1.518-3.631c0.927-0.927,2.205-1.504,3.619-1.513
	H344.062L344.062,457.424z M344.071,458.47h-0.009h-0.014c-1.124,0-2.146,0.467-2.887,1.204c-0.741,0.738-1.202,1.762-1.202,2.894
	v0.01v0.015c0,1.122,0.461,2.141,1.202,2.878c0.738,0.748,1.763,1.209,2.893,1.209h0.008h0.015c1.126-0.005,2.145-0.461,2.88-1.202
	l0,0c0.743-0.744,1.208-1.769,1.208-2.894v-0.006v-0.016c0-1.126-0.465-2.146-1.2-2.888
	C346.226,458.937,345.193,458.47,344.071,458.47L344.071,458.47z"/>
<path fill-rule="evenodd" clip-rule="evenodd" fill="#FBB602" stroke="#FFE703" stroke-miterlimit="10" d="M352.153,446.485
	l15.921,30.347l-2.791,1.324l-16.228-29.597C347.498,445.784,351.089,444.474,352.153,446.485L352.153,446.485z M346.182,462.006
	l8.701,19.034c-1.008,0.319-2.133,0.641-3.31,0.913l-8.693-18.225C341.647,460.798,345.347,459.885,346.182,462.006L346.182,462.006
	z M329.76,438.574l13.077,44.908c-0.95,0.118-1.921,0.171-2.926,0.186l-13.655-43.816
	C325.418,436.783,329.204,436.367,329.76,438.574L329.76,438.574z M319.625,455.259l1.7,16.177l-3.677-2.15l-1.682-13.249
	C315.574,452.874,319.38,452.99,319.625,455.259L319.625,455.259z M301.549,441.288l-0.569,23.416l-3.3,0.129l0.155-23.255
	C297.857,438.394,301.609,439.01,301.549,441.288L301.549,441.288z M283.761,453.53l-2.671,16.854
	c-1.177,0.635-2.561,1.545-3.917,2.452l2.866-19.545C280.5,450.14,284.117,451.288,283.761,453.53L283.761,453.53z M275.287,435.936
	l-10.741,46.308c-1.162,0.282-2.394,0.508-3.502,0.582l10.539-47.318C272.223,432.388,275.767,433.705,275.287,435.936
	L275.287,435.936z M258.667,458.313l-11.305,27.006c-0.968-0.436-1.937-0.925-2.907-1.452l10.646-26.64
	C256.279,454.273,259.559,456.218,258.667,458.313L258.667,458.313z M252.479,442.081l-24.251,32.555l-2.712-1.267l23.591-32.887
	C250.687,437.727,253.652,440.136,252.479,442.081L252.479,442.081z"/>
<path fill="#FFE703" d="M383.286,452.168l39.625,0.038c-0.433-7.576-2.004-13.395-4.398-17.93c-2.347-4.45-5.509-7.665-9.175-10.093
	c-0.062,0.071-0.118,0.153-0.178,0.233c-0.027,0.05-0.059,0.083-0.093,0.122c-3.773,5.19-7.816,10.198-12.16,14.928
	C392.674,444.058,388.149,448.354,383.286,452.168L383.286,452.168z M409.16,424.417c-0.027,0.039-0.059,0.083-0.093,0.122
	L409.16,424.417L409.16,424.417z M423.467,453.253l-41.541-0.044c-7.703,5.811-16.479,10.342-25.594,14.144
	c-9.153,3.818-18.582,6.854-28.019,9.887c-11.602-9.696-25.664-14.713-40.461-9.362c-5.589,2.022-10.68,5.25-15.236,9.038
	l-0.003-0.004l-0.396,0.334c-18.845-7.058-37.531-16.705-51.396-31.673c-11.643-12.562-18.103-27.131-19.863-43.503
	c-3.817-3.257-8.439-6.392-12.694-9.028c-4.307-2.676-8.261-4.856-10.628-6.133c-2.736-1.479-3.296-3.312-3.286-6.148
	c-8.423-3.487-16.8-7.085-25.191-10.646l-0.011-7.385l62.822,8.052c3.12,5.306,7.483,9.954,11.955,14.135
	c0.89,0.829,1.779,1.633,2.652,2.391h0.001c3.732,3.247,8.195,6.017,12.523,8.964c6.4,4.358,13.351,8.085,20.54,11.727
	c15.281,7.732,31.976,12.953,47.393,14.322c26.513,2.364,54.206-5.561,83.813-29.611h-8.255v-9.142l0.144-0.362l7.432-7.604h34.491
	l9.055,7.729v9.379h-14.289c0.043,5.644-0.663,10.967-2.218,16.044c-1.551,5.08-3.944,9.915-7.264,14.577
	c3.79,2.516,7.058,5.853,9.497,10.46c2.521,4.78,4.148,10.911,4.54,18.92l0.03,0.545H423.467L423.467,453.253z M396.451,438.417
	c4.429-4.815,8.501-9.96,12.329-15.255c3.414-4.707,5.858-9.576,7.432-14.716c1.516-4.974,2.218-10.197,2.174-15.739h-4.645
	c-8.081,22.601-24.155,40.05-44.024,51.698c-49.288,28.914-122.794,21.833-153.861-31.126c-2.434-4.157-4.82-7.946-7.267-11.471
	c-2.393-3.458-4.84-6.647-7.444-9.678l-25.751-10.9c0,2.248,0.646,3.631,2.736,4.758c2.366,1.278,6.327,3.458,10.682,6.163
	c4.333,2.689,9.533,5.811,13.146,9.427c6.868,8.923,10.263,16.495,13.27,23.195c3.261,7.278,6.059,13.518,12.383,19.296
	c14.766,13.497,34.492,20.603,53.479,25.754l-1.387,0.75c-18.83-5.163-38.155-12.346-52.8-25.735
	c-6.476-5.92-9.316-12.254-12.627-19.638c-2.822-6.293-5.991-13.364-12.085-21.585c1.981,15.466,8.304,29.273,19.399,41.248
	c11.508,12.424,28.16,22.887,50.423,31.198c2.507-2.081,5.051-3.892,7.627-5.417c2.592-1.534,5.22-2.79,7.858-3.745
	c13.49-4.877,27.453-2.081,41.045,9.169c8.993-2.867,18.376-5.917,27.393-9.677c0.629-0.27,1.269-0.533,1.908-0.81
	c-11.352,3.37-23.658,5.316-35.371,6.074l-1.627-0.997c14.732-0.562,30.858-3.419,44.512-8.562
	C376.979,456.979,387.936,447.682,396.451,438.417L396.451,438.417z M412.633,392.707h-6.794
	c-16.612,39.162-64.579,55.572-104.242,54.108l-0.176-0.012c-21.781-0.837-43.466-9.193-63.97-25.87
	c-8.539-6.946-16.291-14.856-23.337-23.304l-0.016-0.02l-10.838-4.587c2.139,2.588,4.183,5.301,6.188,8.192
	c2.455,3.541,4.856,7.353,7.309,11.533c30.767,52.462,103.633,59.385,152.437,30.758
	C388.749,432.037,404.597,414.889,412.633,392.707L412.633,392.707z M404.703,392.707h-4.075
	c-14.759,14.721-27.074,25.434-42.057,32.37c-15.026,6.954-32.707,10.096-58.183,9.646c-18.969-0.337-38.277-6.152-56.799-18.603
	c-7.713-5.181-14.855-11.222-21.395-17.815c-0.59,0.664-1.176,1.323-1.76,1.986h-0.002l0,0c-1.401-0.596-2.806-1.188-4.207-1.78
	c6.65,7.819,13.916,15.135,21.884,21.613c20.318,16.529,41.793,24.804,63.348,25.636l0.177,0.007
	C340.721,447.224,388.104,431.155,404.703,392.707L404.703,392.707z M399.149,392.707h-2.328
	c-17.714,13.719-30.429,23.002-44.054,28.943c-13.658,5.958-28.191,8.548-49.516,8.873c-21.61,0.327-41.935-7.155-59.261-19.281
	c-6.803-4.759-13.155-10.225-18.904-16.215c-0.735,0.823-1.468,1.667-2.2,2.498c6.484,6.563,13.619,12.578,21.282,17.729
	c18.343,12.329,37.457,18.086,56.233,18.421c25.312,0.448,42.855-2.659,57.73-9.544
	C372.732,417.373,384.798,406.962,399.149,392.707L399.149,392.707z M395.121,392.707h-2.637
	c-30.21,24.881-58.474,33.066-85.541,30.661c-26.946-2.404-52.683-15.548-77.984-32.974c-1.15,1.317-2.21,2.746-3.178,3.847
	c20.162,20.967,47.75,35.69,77.455,35.233c21.185-0.318,35.602-2.887,49.116-8.778C365.593,414.92,378.014,405.93,395.121,392.707
	L395.121,392.707z M390.604,376.646l-6.236,6.385l47.409,0.013l-7.504-6.397H390.604L390.604,376.646z M383.635,384.074v7.588h8.669
	v-0.005c13.453,0,26.906,0.005,40.364,0.005v-7.573L383.635,384.074L383.635,384.074z M221.183,397.856l7.05-8.036
	c-0.731-0.601-1.569-1.111-2.298-1.748l-4.644,5.335L221.183,397.856L221.183,397.856z M211.423,371.749l-59.503-7.618
	l68.708,28.445l4.524-5.14C219.986,382.854,214.98,377.702,211.423,371.749L211.423,371.749z M150.204,364.546v4.884l69.962,29.573
	l0.074-5.46L150.204,364.546L150.204,364.546z"/>
<path fill-rule="evenodd" clip-rule="evenodd" fill="#FBB602" d="M330.66,338.026l38.455,22.491
	c-4.92,1.767-9.988,4.234-13.979,7.688c-12.68,10.979-10.769,27.531,4.82,49.69c-7.242-2.396-13.432-4.856-19.655-9.107
	c-12.922-8.823-22.951-23.262-26.407-49.697C317.389,351.142,322.2,343.779,330.66,338.026L330.66,338.026z"/>
<path fill="#FFE703" d="M330.926,337.581l38.46,22.488l0.961,0.565l-1.055,0.376c-2.447,0.877-4.915,1.926-7.271,3.179
	c-2.34,1.254-4.572,2.713-6.54,4.41c-6.19,5.368-8.677,12.21-7.705,20.423c0.981,8.306,5.199,17.572,12.939,28.58l-1.259,0.737
	c-3.64-1.207-6.215-2.033-9.619-3.6c-3.41-1.574-6.692-3.378-9.83-5.518c-6.52-4.455-12.315-10.335-16.915-18.422
	c-4.585-8.07-7.972-18.354-9.714-31.641l0.036-0.278c1.765-4.012,3.862-7.88,6.578-11.462c2.738-3.6,6.096-6.92,10.371-9.826
	l0.274-0.185L330.926,337.581L330.926,337.581z M367.9,360.412l-37.211-21.767c-4.056,2.799-7.252,5.972-9.858,9.407
	c-2.645,3.483-4.687,7.232-6.403,11.119c1.724,13.071,5.065,23.184,9.568,31.114c4.515,7.937,10.197,13.703,16.594,18.067
	c3.094,2.112,6.329,3.896,9.687,5.436c2.896,1.334,5.889,2.5,8.965,3.563c-7.286-10.622-11.541-20.059-12.505-28.205
	c-1.011-8.57,1.588-15.721,8.063-21.334c2.025-1.756,4.327-3.257,6.734-4.544C363.609,362.165,365.769,361.219,367.9,360.412
	L367.9,360.412z"/>
<path fill-rule="evenodd" clip-rule="evenodd" fill="#FBB602" stroke="#EBCD1A" stroke-miterlimit="10" d="M244.793,400.476
	l-0.212,10.33l-2.653-1.879l0.044-10.19C242.848,399.296,243.889,399.925,244.793,400.476L244.793,400.476z"/>
<path fill="#FFE703" d="M245.316,400.486l-0.21,10.332l-0.022,0.987l-0.804-0.569l-2.651-1.881l-0.222-0.155v-0.273l0.043-10.19
	l0.007-0.971l0.807,0.539h0l0,0c0.726,0.463,1.406,0.876,2.056,1.276v-0.009c0.27,0.168,0.531,0.328,0.749,0.457l0.255,0.158
	L245.316,400.486L245.316,400.486z M244.082,409.809l0.184-9.04c-0.166-0.101-0.33-0.207-0.487-0.296l0,0
	c-0.436-0.269-0.879-0.536-1.285-0.788l-0.042,8.975L244.082,409.809L244.082,409.809z"/>
<path fill-rule="evenodd" clip-rule="evenodd" fill="#FBB602" stroke="#EBCD1A" stroke-miterlimit="10" d="M244.471,365.418
	l0.223,25.236c-1.124-1.974-2.236-4.161-2.892-6.097l0.003-14.266C242.464,368.597,243.355,366.969,244.471,365.418L244.471,365.418
	z"/>
<path fill="#FFE703" d="M244.994,365.412l0.224,25.234l-0.977,0.264c-0.571-0.999-1.139-2.055-1.64-3.093
	c-0.506-1.051-0.958-2.104-1.293-3.09l-0.028-0.17l0.003-14.266l0.039-0.196l0.007-0.016h0.001c0.101-0.253,0.196-0.497,0.294-0.72
	c0.108-0.25,0.218-0.489,0.325-0.716h0.001c0.577-1.212,1.279-2.394,2.096-3.531L244.994,365.412L244.994,365.412z M244.154,388.574
	l-0.189-21.448c-0.395,0.644-0.755,1.297-1.071,1.964v0.005c-0.112,0.231-0.218,0.463-0.311,0.678
	c-0.093,0.216-0.18,0.426-0.253,0.617l-0.005,14.081c0.315,0.923,0.739,1.904,1.218,2.896
	C243.737,387.768,243.945,388.17,244.154,388.574L244.154,388.574z"/>
<polygon fill-rule="evenodd" clip-rule="evenodd" fill="#FBB602" stroke="#EBCD1A" stroke-miterlimit="10" points="241.805,326.158 
	244.471,326.158 244.471,334.046 241.805,331.959 241.805,326.158 "/>
<path fill="#FFE703" d="M241.805,325.636h2.666h0.523v0.522v7.888v1.069l-0.844-0.66l-2.662-2.087l-0.204-0.156v-0.253v-5.801
	v-0.522H241.805L241.805,325.636z M243.949,326.682h-1.619v5.026l1.619,1.266V326.682L243.949,326.682z"/>
<path fill-rule="evenodd" clip-rule="evenodd" fill="#FBB602" stroke="#EBCD1A" stroke-miterlimit="10" d="M302.682,410.633
	l0.281,19.312l-5.895-0.111l0.326-22.379c0-0.002,0.006,0.001,0.009,0.001c0,0,0.002,0,0.006,0c0,0.01,0.007,0.01,0.007,0.01
	C299.156,408.562,300.889,409.616,302.682,410.633L302.682,410.633z"/>
<path fill="#FFE703" d="M303.48,429.938l0.017,0.539l-0.543-0.014l-5.892-0.11l-0.524-0.012l0.006-0.516l0.342-23.209
	c2.184,1.089,4.192,2.505,6.311,3.71L303.48,429.938L303.48,429.938z M302.432,429.407l-0.167-18.917
	c-1.438-0.822-2.923-1.673-4.324-2.544l-0.341,21.369L302.432,429.407L302.432,429.407z"/>
<polygon fill-rule="evenodd" clip-rule="evenodd" fill="#FBB602" stroke="#EBCD1A" stroke-miterlimit="10" points="301.039,296.089 
	301.185,308.095 298.633,306.657 298.792,295.994 301.039,296.089 "/>
<path fill="#FFE703" d="M301.861,309.008l-4.104-2.263l0.167-11.484l3.775,0.304L301.861,309.008L301.861,309.008z M300.793,307.187
	l-0.128-10.569l-1.707-0.313l-0.144,9.846L300.793,307.187L300.793,307.187z"/>
<path fill-rule="evenodd" clip-rule="evenodd" fill="#FBB602" stroke="#EBCD1A" stroke-miterlimit="10" d="M342.871,337.147
	c2.31,1.354,5.011-0.266,2.833-3.343l-71.679-41.371c-2.794-1.376-3.709,2.01-2.757,2.568L342.871,337.147L342.871,337.147z"/>
<path fill="#FFE703" d="M343.136,336.699c0.707,0.412,1.883,0.669,2.535,0.001c0.61-0.627,0.269-2.152-0.331-2.499l-71.573-41.314
	c-0.788-0.378-1.369-0.293-1.738-0.009c-0.153,0.12-0.28,0.28-0.377,0.449c-0.098,0.176-0.167,0.37-0.202,0.556v0.002
	c-0.056,0.325-0.03,0.602,0.084,0.668L343.136,336.699L343.136,336.699z M345.241,338.072c-0.784,0.186-1.742,0.047-2.628-0.477
	l-71.611-42.145c-0.51-0.3-0.706-1.013-0.578-1.747l0,0c0.049-0.295,0.16-0.603,0.315-0.887c0.164-0.285,0.378-0.552,0.65-0.763
	c0.669-0.512,1.63-0.697,2.865-0.088l0.033,0.015l71.676,41.371c0.829,0.515,1.155,1.91,1.046,2.829
	c-0.065,0.504-0.272,0.924-0.592,1.247C346.107,337.746,345.704,337.964,345.241,338.072L345.241,338.072z"/>
<polygon fill-rule="evenodd" clip-rule="evenodd" fill="#FBB602" stroke="#EBCD1A" stroke-miterlimit="10" points="351.325,335.672 
	351.325,345.732 353.839,347.199 353.383,335.692 351.325,335.672 "/>
<path fill="#FFE703" d="M351.849,336.199v9.234l1.427,0.838l-0.395-10.062L351.849,336.199L351.849,336.199z M350.808,345.732
	v-10.061v-0.525l0.522,0.002l2.062,0.021l0.491,0.004l0.022,0.496l0.448,11.508l0.039,0.95l-0.821-0.479l-2.507-1.467l-0.258-0.151
	V345.732L350.808,345.732z"/>
<path fill-rule="evenodd" clip-rule="evenodd" fill="#FBB602" stroke="#EBCD1A" stroke-miterlimit="10" d="M351.325,414.867
	l0.167,6.688l4.385-1.892l-0.184-3.025C354.222,416.084,352.761,415.499,351.325,414.867L351.325,414.867z"/>
<path fill="#FFE703" d="M351.873,415.671l0.13,5.101l3.325-1.441l-0.135-2.325c-0.639-0.24-1.271-0.49-1.893-0.74
	C352.837,416.072,352.357,415.877,351.873,415.671L351.873,415.671z M350.977,421.565l-0.169-6.683l-0.022-0.821l0.749,0.327
	c0.679,0.297,1.4,0.602,2.159,0.901c0.73,0.299,1.461,0.587,2.184,0.861l0.317,0.117l0.024,0.336l0.182,3.029l0.014,0.308
	l-0.332,0.205l-4.378,1.889l-0.714,0.309L350.977,421.565L350.977,421.565z"/>
<path fill-rule="evenodd" clip-rule="evenodd" fill="#FBB602" d="M351.325,372.29v30.33c1.17,2.568,2.568,5.222,4.192,7.96
	l-1.186-41.647C353.191,369.998,352.199,371.119,351.325,372.29L351.325,372.29z"/>
<path fill="#FFE703" d="M351.849,372.469v30.042c0.57,1.243,1.188,2.501,1.863,3.775c0.385,0.746,0.795,1.496,1.229,2.254
	l-1.092-38.392c-0.253,0.253-0.496,0.51-0.731,0.771C352.661,371.429,352.243,371.947,351.849,372.469L351.849,372.469z
	 M350.808,402.62v-30.33l0.101-0.306c0.446-0.61,0.927-1.198,1.427-1.761c0.51-0.562,1.058-1.123,1.643-1.672l0.843-0.788
	l0.034,1.153l1.187,41.654l-0.972,0.277c-0.812-1.369-1.571-2.729-2.276-4.073c-0.706-1.338-1.355-2.654-1.938-3.939L350.808,402.62
	L350.808,402.62z"/>
<path fill-rule="evenodd" clip-rule="evenodd" fill="#FBB602" d="M352.131,329.922c1.419,0,2.575,1.154,2.575,2.57
	s-1.156,2.568-2.575,2.568c-1.413,0-2.57-1.152-2.57-2.568S350.718,329.922,352.131,329.922L352.131,329.922z"/>
<path fill-rule="evenodd" clip-rule="evenodd" fill="#FFE703" d="M352.131,328.945c1.958,0,3.557,1.591,3.557,3.547
	c0,1.955-1.599,3.552-3.557,3.552c-1.955,0-3.548-1.597-3.548-3.552C348.583,330.536,350.176,328.945,352.131,328.945
	L352.131,328.945z M352.131,329.922c1.419,0,2.575,1.154,2.575,2.569c0,1.417-1.156,2.569-2.575,2.569
	c-1.413,0-2.57-1.152-2.57-2.569C349.561,331.076,350.718,329.922,352.131,329.922L352.131,329.922z"/>
<path fill-rule="evenodd" clip-rule="evenodd" fill="#FBB602" stroke="#EBCD1A" stroke-miterlimit="10" d="M300.018,290.546
	c1.418,0,2.573,1.153,2.573,2.571c0,1.414-1.155,2.57-2.573,2.57c-1.416,0-2.572-1.156-2.572-2.57
	C297.446,291.7,298.602,290.546,300.018,290.546L300.018,290.546z"/>
<path fill-rule="evenodd" clip-rule="evenodd" fill="#FFE703" d="M300.018,289.564c1.957,0,3.553,1.598,3.553,3.553
	s-1.596,3.55-3.553,3.55c-1.955,0-3.551-1.595-3.551-3.55S298.062,289.564,300.018,289.564L300.018,289.564z M300.018,290.546
	c1.418,0,2.573,1.153,2.573,2.569c0,1.416-1.155,2.572-2.573,2.572c-1.416,0-2.572-1.156-2.572-2.572
	C297.446,291.7,298.602,290.546,300.018,290.546L300.018,290.546z"/>
<path fill-rule="evenodd" clip-rule="evenodd" fill="#FBB602" d="M243.151,320.713c1.416,0,2.572,1.153,2.572,2.571
	c0,1.412-1.156,2.572-2.572,2.572c-1.414,0-2.569-1.16-2.569-2.572C240.582,321.866,241.737,320.713,243.151,320.713
	L243.151,320.713z"/>
<path fill-rule="evenodd" clip-rule="evenodd" fill="#FFE703" d="M243.154,319.733c1.953,0,3.55,1.594,3.55,3.551
	c0,1.955-1.597,3.551-3.55,3.551c-1.958,0-3.553-1.596-3.553-3.551C239.601,321.327,241.196,319.733,243.154,319.733
	L243.154,319.733z M243.151,320.713c1.416,0,2.572,1.153,2.572,2.571c0,1.412-1.156,2.572-2.572,2.572
	c-1.414,0-2.569-1.16-2.569-2.572C240.582,321.866,241.737,320.713,243.151,320.713L243.151,320.713z"/>
<path fill-rule="evenodd" clip-rule="evenodd" fill="#FBB602" d="M344.526,333.608c1.04,0,1.885,0.847,1.885,1.886
	s-0.845,1.889-1.885,1.889c-1.043,0-1.892-0.85-1.892-1.889S343.483,333.608,344.526,333.608L344.526,333.608z"/>
<path fill-rule="evenodd" clip-rule="evenodd" fill="#FFE703" d="M344.526,332.889c1.437,0,2.606,1.172,2.606,2.605
	c0,1.438-1.17,2.606-2.606,2.606c-1.434,0-2.604-1.168-2.604-2.606C341.923,334.061,343.093,332.889,344.526,332.889
	L344.526,332.889z M344.526,333.608c1.04,0,1.885,0.847,1.885,1.886s-0.845,1.889-1.885,1.889c-1.043,0-1.892-0.85-1.892-1.889
	S343.483,333.608,344.526,333.608L344.526,333.608z"/>
<path fill-rule="evenodd" clip-rule="evenodd" fill="#FBB602" d="M273.699,296.459l63.588,37.38
	c-28.542,14.418-50.195,67.726,8.713,89.476C286.015,419.722,223.223,351.776,273.699,296.459L273.699,296.459z"/>
<path fill="#FFE703" d="M273.963,296.011l63.588,37.377l0.82,0.487l-0.849,0.43c-10.806,5.455-20.613,16.548-25.344,29.37
	c-1.97,5.337-3.064,10.977-2.979,16.631c0.085,5.643,1.343,11.307,4.073,16.697c5.117,10.146,15.794,19.548,33.258,25.996
	l-0.561,0.836c-22.913-1.368-46.237-12.086-63.554-27.884c-8.747-7.984-15.969-17.268-20.837-27.306
	c-4.879-10.055-7.402-20.868-6.745-31.89c0.814-13.585,6.459-27.478,18.478-40.648l0.286-0.315L273.963,296.011L273.963,296.011z
	 M336.215,333.812l-62.412-36.688c-11.646,12.884-17.129,26.443-17.921,39.695c-0.65,10.84,1.834,21.476,6.639,31.372
	c4.808,9.915,11.949,19.092,20.6,26.986c16.256,14.834,37.848,25.138,59.361,27.331c-15.732-6.472-25.246-15.334-30.146-25.037
	c-2.803-5.539-4.094-11.358-4.184-17.152c-0.086-5.784,1.031-11.548,3.046-17.003C315.891,350.583,325.525,339.521,336.215,333.812
	L336.215,333.812z"/>
<path fill-rule="evenodd" clip-rule="evenodd" fill="#FBB602" stroke="#EBCD1A" stroke-miterlimit="10" d="M220.197,320.559
	l44.468,35.123c2.318,0.771,4.537,0.67,3.696-2.946l-44.513-34.792C221.179,316.046,218.423,318.961,220.197,320.559
	L220.197,320.559z"/>
<path fill="#FFE703" d="M220.533,320.157l44.391,35.06c0.806,0.425,2.37,0.781,3.001-0.394v-0.003
	c0.133-0.396,0.222-1.142-0.031-1.786l-44.351-34.669c-0.873-0.618-1.745-0.625-2.387-0.328c-0.243,0.116-0.458,0.276-0.627,0.467
	h-0.004c-0.157,0.178-0.272,0.379-0.328,0.585C220.1,319.444,220.189,319.837,220.533,320.157L220.533,320.157z M264.338,356.089
	l-44.463-35.121l-0.027-0.02c-0.691-0.624-0.856-1.407-0.658-2.132c0.097-0.363,0.292-0.71,0.558-1.009v-0.003
	c0.254-0.282,0.587-0.532,0.968-0.708c0.946-0.444,2.206-0.45,3.436,0.422l0.018,0.015l44.516,34.794
	c0.467,0.732,0.501,2.003,0.229,2.82h0.003c-0.231,0.712-0.794,1.197-1.516,1.364C266.509,356.718,265.141,356.512,264.338,356.089
	L264.338,356.089z"/>
<path fill-rule="evenodd" clip-rule="evenodd" fill="#FBB602" stroke="#EBCD1A" stroke-miterlimit="10" d="M221.958,321.95
	c-30.096,28.003-19.676,59.089,44.79,89.97c-28.068-18.684-33.167-38.733-17.389-51.646c3.276-2.682,7.434-4.988,12.45-6.82
	L221.958,321.95L221.958,321.95z"/>
<path fill="#FFE703" d="M221.988,322.639c-5.603,5.268-9.762,10.641-12.373,16.098c-3.145,6.562-4.055,13.246-2.575,20.016
	c1.488,6.794,5.217,13.934,11.686,20.889c8.974,9.645,23.07,19.157,42.352,28.911c-5.346-4.03-9.661-8.104-12.952-12.12
	c-4.507-5.509-7.119-10.948-7.884-16.098c-0.768-5.189,0.331-10.082,3.246-14.462c1.421-2.136,3.273-4.146,5.542-6l0.01-0.014
	c0.456-0.369,0.939-0.742,1.45-1.117v-0.003c0.484-0.354,1.004-0.711,1.553-1.068h0.002c2.523-1.649,5.436-3.116,8.721-4.377
	L221.988,322.639L221.988,322.639z M208.67,338.285c2.721-5.676,7.064-11.258,12.932-16.717l0.33-0.306l0.347,0.277l39.853,31.5
	l0.733,0.579l-0.879,0.322c-3.565,1.305-6.694,2.849-9.373,4.597l0.001,0.003c-0.502,0.332-1.008,0.679-1.506,1.043v-0.004
	c-0.474,0.348-0.944,0.711-1.405,1.088l-0.012,0.014c-2.195,1.795-3.975,3.724-5.336,5.769c-2.767,4.158-3.812,8.805-3.08,13.729
	c0.736,4.962,3.274,10.229,7.66,15.589c4.274,5.22,10.291,10.519,18.1,15.719l-0.405,0.697
	c-22.486-10.771-38.591-21.098-48.549-31.801c-6.602-7.099-10.533-14.436-12.059-21.408
	C204.486,351.968,205.425,345.057,208.67,338.285L208.67,338.285z"/>
<path fill-rule="evenodd" clip-rule="evenodd" fill="#FBB602" d="M266.565,352.182c1.16,0,2.102,0.947,2.102,2.103
	c0,1.156-0.942,2.102-2.102,2.102c-1.157,0-2.1-0.945-2.1-2.102C264.465,353.129,265.408,352.182,266.565,352.182L266.565,352.182z"
	/>
<path fill-rule="evenodd" clip-rule="evenodd" fill="#FFE703" d="M266.566,351.385c1.598,0,2.901,1.3,2.901,2.904
	c0,1.594-1.303,2.896-2.901,2.896s-2.901-1.302-2.901-2.896C263.665,352.685,264.968,351.385,266.566,351.385L266.566,351.385z
	 M266.565,352.182c1.156,0,2.102,0.947,2.102,2.101c0,1.158-0.945,2.104-2.102,2.104c-1.157,0-2.099-0.945-2.099-2.104
	C264.466,353.129,265.408,352.182,266.565,352.182L266.565,352.182z"/>
<path fill="#FFE703" d="M312.579,362.206l38.411,59.522l-0.88,0.561l-38.412-59.517L312.579,362.206L312.579,362.206z
	 M249.818,360.024l37.502,68.585l-0.911,0.493l-37.508-68.579L249.818,360.024L249.818,360.024z M275.136,426.583l-29.028-63.491
	l0.947-0.432l29.029,63.495L275.136,426.583L275.136,426.583z M244.958,365.23l22.292,57.675l-0.972,0.37l-22.292-57.669
	L244.958,365.23L244.958,365.23z M311.204,365.723l30.77,59.398l-0.926,0.479l-30.677-59.13L311.204,365.723L311.204,365.723z
	 M309.877,371.406l23.748,55.772l-0.962,0.405l-23.562-55.472L309.877,371.406L309.877,371.406z M354.941,333.92l35.848,41.877
	l-0.811,0.652l-35.455-41.288L354.941,333.92L354.941,333.92z M354.105,335.301l29.451,47.989l-0.886,0.555l-29.448-47.986
	L354.105,335.301L354.105,335.301z M356.704,367.173l17.86,41.647l-0.958,0.409l-17.859-41.648L356.704,367.173L356.704,367.173z
	 M355.644,368.049l13.961,44.013l-0.997,0.321l-13.636-42.977l10.197,45.293l-1.022,0.233l-10.322-45.886l0.966-0.219l-0.146-0.464
	L355.644,368.049L355.644,368.049z"/>
<path fill-rule="evenodd" clip-rule="evenodd" fill="#FBB602" stroke="#EBCD1A" stroke-miterlimit="10" d="M330.66,338.029
	l38.455,22.488l4.149,2.656c1.801,0.18,2.818-0.343,2.127-2.41l-3.782-2.492c-16.988-10.623-35.341-21.764-36.898-22.622
	L330.66,338.029L330.66,338.029z"/>
<path fill="#FFE703" d="M331.694,338.026l37.691,22.043l0.012,0.01l4.045,2.592c0.689,0.057,1.211-0.004,1.464-0.241
	c0.22-0.205,0.258-0.621,0.055-1.328l-3.64-2.393l0,0l-0.119-0.078v-0.002c-2.578-1.611-4.964-3.096-7.159-4.457
	c-2.377-1.473-4.734-2.931-7.021-4.337c-11.06-6.823-20.397-12.475-22.312-13.585L331.694,338.026L331.694,338.026z
	 M368.834,360.954l-38.44-22.476l-0.76-0.447l0.76-0.45l4.051-2.382l0.26-0.149l0.257,0.143c1.117,0.619,10.895,6.537,22.609,13.755
	c2.286,1.408,4.641,2.866,7.018,4.34c2.562,1.588,4.985,3.099,7.17,4.458v0.001l0.124,0.083l0.006,0.006l3.793,2.492l0.214,0.272
	c0.417,1.253,0.274,2.082-0.272,2.594c-0.523,0.481-1.371,0.603-2.411,0.5l-0.235-0.081l-4.142-2.656V360.954L368.834,360.954z"/>
<path fill-rule="evenodd" clip-rule="evenodd" fill="#FBB602" d="M374.305,360.422c0.851,0,1.543,0.692,1.543,1.541
	c0,0.852-0.692,1.543-1.543,1.543c-0.85,0-1.542-0.691-1.542-1.543C372.763,361.114,373.455,360.422,374.305,360.422
	L374.305,360.422z"/>
<path fill-rule="evenodd" clip-rule="evenodd" fill="#FFE703" d="M374.305,359.835c1.179,0,2.135,0.954,2.135,2.129
	c0,1.172-0.956,2.129-2.135,2.129c-1.17,0-2.124-0.957-2.124-2.129C372.181,360.789,373.135,359.835,374.305,359.835
	L374.305,359.835z M374.305,360.422c0.851,0,1.543,0.692,1.543,1.541c0,0.85-0.692,1.543-1.543,1.543
	c-0.85,0-1.542-0.693-1.542-1.543C372.763,361.114,373.455,360.422,374.305,360.422L374.305,360.422z"/>
<g opacity="0.85">
	<path fill="#231F20" d="M226.082,222.19h33.636v115.91c0,5.605-0.759,11.136-2.272,16.59c-1.517,5.453-3.903,10.38-7.16,14.772
		c-3.26,4.397-7.539,7.952-12.842,10.683c-5.304,2.728-11.743,4.091-19.318,4.091c-4.85,0-10.038-0.495-15.567-1.478
		c-5.534-0.986-10.417-2.389-14.66-4.206l7.273-26.816c4.393,1.97,9.239,2.954,14.545,2.954c3.484,0,6.286-0.644,8.409-1.932
		c2.121-1.286,3.787-3.105,5-5.457c1.211-2.344,2.007-5.111,2.386-8.293c0.377-3.184,0.568-6.591,0.568-10.226V222.19z"/>
	<path fill="#231F20" d="M365.171,337.645c0-4.694-1.97-8.41-5.908-11.135c-3.94-2.729-8.828-5.229-14.659-7.502
		c-5.835-2.273-12.159-4.546-18.978-6.818c-6.817-2.272-13.146-5.301-18.978-9.09c-5.833-3.786-10.72-8.56-14.659-14.319
		c-3.942-5.754-5.909-13.257-5.909-22.498c0-7.877,1.399-14.809,4.205-20.796c2.802-5.983,6.74-10.909,11.818-14.773
		c5.075-3.864,11.21-6.778,18.408-8.748c7.195-1.969,15.115-2.957,23.75-2.957c9.999,0,19.509,0.875,28.524,2.614
		c9.013,1.745,16.397,4.204,22.157,7.387l-10.68,28.183c-1.82-1.058-4.133-2.159-6.935-3.296c-2.804-1.136-6.022-2.12-9.657-2.954
		c-3.636-0.833-7.502-1.513-11.59-2.046c-4.093-0.529-8.262-0.795-12.5-0.795c-7.578,0-13.45,1.328-17.615,3.979
		c-4.168,2.652-6.249,6.327-6.249,11.021c0,4.698,1.966,8.447,5.908,11.251c3.938,2.805,8.825,5.38,14.659,7.726
		c5.83,2.353,12.162,4.698,18.978,7.047c6.818,2.351,13.143,5.38,18.978,9.09c5.83,3.716,10.716,8.374,14.658,13.977
		c3.939,5.61,5.909,12.807,5.909,21.592c0,8.787-1.516,16.363-4.545,22.728c-3.034,6.365-7.313,11.629-12.838,15.795
		c-5.537,4.17-12.162,7.237-19.888,9.203c-7.728,1.969-16.216,2.956-25.459,2.956c-6.212,0-12.082-0.341-17.612-1.021
		c-5.53-0.683-10.646-1.516-15.34-2.502c-4.698-0.983-8.828-2.045-12.386-3.181c-3.562-1.138-6.402-2.235-8.524-3.297l11.138-28.409
		c1.665,0.911,3.978,1.896,6.932,2.954c2.952,1.065,6.249,2.084,9.886,3.071c3.638,0.985,7.536,1.782,11.703,2.385
		c4.169,0.606,8.373,0.907,12.615,0.907c10,0,17.612-1.436,22.84-4.316C362.557,348.178,365.171,343.706,365.171,337.645z"/>
</g>
</svg>
