<svg xmlns="http://www.w3.org/2000/svg" viewBox="0 0 600 600">
  <path fill="#FBB602" d="M523.303 229.87c-10.29-20.322-24.933-26.294-35.455-27.72-11.266-1.52-22.572 1.592-32.86 6.534-5.763-5.75-13.563-9.417-22.185-9.417h-304.6c-17.705 0-32.063 15.242-32.063 32.947v15.145s.107 169.45 127.96 208.4h-7.723c-4.423 0-8.014 3.58-8.014 8.01s3.59 8.01 8.014 8.01h128.255c4.43 0 8.014-3.58 8.014-8.02 0-4.43-3.583-8.02-8.014-8.02H336.9c37.98-11.56 64.75-34.56 83.52-61.33-2.564 10.684-4.12 22.924-4.12 37.283h32.064c0-48.1 19.07-63.61 39.25-79.33 10.67-8.31 21.71-18.4 29.104-31.35 27.68-48.41 9.782-85.307 6.585-91.17zm-34.41 76.027c-4.248 7.438-11.994 14.22-20.97 21.203-7.174 5.58-15.207 11.923-22.763 20.146 19.67-51.194 19.71-99.883 19.71-99.883v-7.524c6.87-3.97 13.59-6.51 18.695-5.83 1.74.24 6.35.96 11.22 10.7l.59 1.27c.146.22 13.547 24.86-6.483 59.91zM304.065 94.572c-37.757 37.76-19.095 76.376-18.285 78.007l21.512-10.76c-.127-.24-11.85-24.62 13.777-50.25 37.56-37.56 45.65-67.55 24.05-89.15l-17 17c3.35 3.34 6.34 8.07 3.11 17.75-3.41 10.19-12.56 22.77-27.18 37.38z"/>
  <path fill="#FFE703" d="M267.876 139.41c-.513-1.608-12.324-39.4 18.817-58.084l-12.376-20.618c-38.24 22.95-35.87 66.458-29.264 86.25l22.823-7.55zm68.254-20.788c-18.01 18.006-9.855 39.21 0 49.066l17.11-16.894c-4.924-5.205-4.96-10.312-.107-15.17 22.73-22.714 35.584-36.183 35.584-48.57H364.67c0-.65.108-1.02.108-1.03-1.644 5.59-18.552 22.497-28.648 32.598z"/>
  <path fill="#231F20" d="M225.656 254.19h27.78v95.73c0 4.63-.626 9.192-1.876 13.7-1.252 4.504-3.224 8.574-5.913 12.198-2.693 3.634-6.228 6.57-10.606 8.824-4.38 2.252-9.69 3.378-15.95 3.378-4 0-8.29-.408-12.85-1.22-4.57-.813-8.6-1.972-12.1-3.474l6.01-22.146c3.63 1.625 7.63 2.438 12.02 2.438 2.878 0 5.19-.53 6.946-1.598 1.75-1.062 3.128-2.562 4.13-4.504 1-1.936 1.658-4.222 1.97-6.85.31-2.632.47-5.443.47-8.445v-88.03zm114.874 95.353c0-3.877-1.63-6.945-4.88-9.197-3.256-2.252-7.29-4.317-12.108-6.192-4.82-1.88-10.038-3.758-15.675-5.636-5.628-1.873-10.854-4.378-15.67-7.506-4.82-3.128-8.854-7.068-12.106-11.825-3.25-4.75-4.88-10.948-4.88-18.58 0-6.507 1.16-12.23 3.48-17.177 2.32-4.94 5.57-9.01 9.76-12.2 4.19-3.19 9.26-5.598 15.2-7.226 5.94-1.625 12.49-2.44 19.62-2.44 8.26 0 16.12.72 23.56 2.157 7.44 1.45 13.54 3.48 18.3 6.11l-8.83 23.27c-1.5-.87-3.41-1.78-5.72-2.72-2.31-.94-4.97-1.75-7.97-2.44s-6.19-1.25-9.57-1.69c-3.38-.43-6.82-.65-10.32-.65-6.26 0-11.103 1.1-14.55 3.29-3.44 2.19-5.16 5.23-5.16 9.1 0 3.88 1.62 6.98 4.88 9.29 3.255 2.32 7.29 4.45 12.107 6.38 4.814 1.95 10.043 3.88 15.673 5.82 5.63 1.95 10.86 4.44 15.68 7.51 4.815 3.07 8.85 6.92 12.11 11.54 3.25 4.64 4.875 10.58 4.875 17.84s-1.25 13.52-3.75 18.78c-2.51 5.26-6.04 9.606-10.6 13.046-4.575 3.444-10.047 5.978-16.43 7.604-6.384 1.625-13.393 2.44-21.027 2.44-5.13 0-9.98-.284-14.55-.844-4.57-.567-8.792-1.254-12.67-2.066-3.88-.815-7.29-1.688-10.23-2.628-2.94-.94-5.29-1.846-7.04-2.725l9.2-23.46c1.375.754 3.286 1.567 5.726 2.44 2.437.88 5.16 1.72 8.16 2.536 3.008.81 6.228 1.47 9.67 1.97 3.446.5 6.92.75 10.42.75 8.26 0 14.545-1.186 18.866-3.565 4.31-2.38 6.47-6.07 6.47-11.078z" opacity=".85"/>
  <path fill="#FBB602" d="M269.807 579.375v-11.61c0-14.07-3.752-23.572-11.258-28.493-7.51-4.928-16.19-7.392-26.04-7.392-11.73 0-24.28 1.647-37.65 4.928l-22.52 5.272c-14.78 3.523-28.73 5.28-41.87 5.28-19.47 0-35.06-6.862-46.79-20.582-11.73-13.72-17.59-30.198-17.59-49.428v-3.17h34.12v4.22c0 7.977 3.17 15.19 9.5 21.64 6.33 6.456 15.95 9.68 28.85 9.68 4.22 0 7.86-.355 10.9-1.06l10.553-2.465 26.384-4.573c19.7-3.515 32.954-5.272 39.753-5.272 11.497 0 23.048 3.517 34.657 10.55 11.61 7.038 20.23 18.77 25.86 35.18 5.863-16.41 14.6-28.142 26.21-35.18 11.606-7.033 23.16-10.55 34.65-10.55 6.57 0 19.82 1.758 39.753 5.272l26.39 4.573 10.202 2.464c3.745.7 7.5 1.06 11.26 1.06 12.66 0 22.22-3.23 28.67-9.68 6.447-6.45 9.676-13.67 9.676-21.64v-4.22h33.77v3.17c0 19.23-5.864 35.7-17.59 49.42-11.73 13.72-27.324 20.58-46.79 20.58-13.136 0-26.97-1.76-41.513-5.28l-22.512-5.27c-13.6-3.28-26.26-4.93-37.99-4.93-9.854 0-18.526 2.46-26.04 7.39-7.5 4.92-11.256 14.42-11.256 28.49v11.61H269.8z"/>
</svg>
